<?xml version="1.0" encoding="UTF-8" standalone="no"?>
<!DOCTYPE svg PUBLIC "-//W3C//DTD SVG 1.1//EN" "http://www.w3.org/Graphics/SVG/1.1/DTD/svg11.dtd">
<svg width="100%" height="100%" viewBox="0 0 344 447" version="1.1" xmlns="http://www.w3.org/2000/svg" xmlns:xlink="http://www.w3.org/1999/xlink" xml:space="preserve" xmlns:serif="http://www.serif.com/" style="fill-rule:evenodd;clip-rule:evenodd;stroke-linejoin:round;stroke-miterlimit:2;">
    <g>
        <path d="M172.007,0.814C266.753,0.814 343.674,179.685 343.674,274.431C343.674,369.177 266.753,446.099 172.007,446.099C77.261,446.099 0.339,369.177 0.339,274.431C0.339,179.685 77.261,0.814 172.007,0.814ZM220.883,79.159C295.641,89.548 336.723,239.119 326.335,313.877C315.946,388.636 246.818,440.896 172.059,430.508C97.301,420.119 45.041,350.991 55.429,276.232C65.817,201.474 146.124,68.771 220.883,79.159Z" style="fill:white;"/>
        <path d="M240.799,199.913C289.474,212.998 304.287,315.516 291.202,364.191C278.116,412.866 227.974,441.76 179.299,428.674C130.624,415.589 101.73,365.447 114.816,316.772C127.902,268.097 192.124,186.827 240.799,199.913Z" style="fill:white;"/>
    </g>
</svg>
