<?xml version="1.0" encoding="UTF-8" standalone="no"?>
<!DOCTYPE svg PUBLIC "-//W3C//DTD SVG 1.1//EN" "http://www.w3.org/Graphics/SVG/1.1/DTD/svg11.dtd">
<svg width="100%" height="100%" viewBox="0 0 16 16" version="1.1" xmlns="http://www.w3.org/2000/svg" xmlns:xlink="http://www.w3.org/1999/xlink" xml:space="preserve" xmlns:serif="http://www.serif.com/" style="fill-rule:evenodd;clip-rule:evenodd;stroke-linejoin:round;stroke-miterlimit:2;">
    <rect id="Cob" x="0" y="0" width="16" height="16" style="fill:none;"/>
    <clipPath id="_clip1">
        <rect x="0" y="0" width="16" height="16"/>
    </clipPath>
    <g clip-path="url(#_clip1)">
        <rect x="2.999" y="0.946" width="10.207" height="7.054" style="fill:none;"/>
        <clipPath id="_clip2">
            <rect x="2.999" y="0.946" width="10.207" height="7.054"/>
        </clipPath>
        <g clip-path="url(#_clip2)">
            <g id="DocIcon--Symbol-" serif:id="DocIcon (Symbol)">
                <path d="M13.064,15.999L2.999,15.999L2.999,5.978L8.032,5.978L8.032,0.946L13.064,0.946L13.064,15.999ZM7.03,4.976L2.999,4.976L2.999,4.974L7.03,0.974L7.03,4.976Z" style="fill:rgb(135,147,154);"/>
            </g>
        </g>
        <rect x="0.846" y="8.839" width="16" height="7.416" style="fill:rgb(131,36,231);"/>
        <g id="Text">
            <path d="M4.736,10.91L4.161,12.794L5.254,12.794L4.736,10.91ZM5.088,10.05L6.271,14.064C6.329,14.266 6.406,14.446 6.482,14.588C6.54,14.707 6.636,14.812 6.777,14.894L6.777,15.044L5.542,15.044L5.542,14.894C5.747,14.872 5.792,14.648 5.676,14.266L5.35,13.145L4.058,13.145L3.738,14.192C3.604,14.64 3.636,14.887 3.828,14.894L3.828,15.044L2.837,15.044L2.837,14.894C2.933,14.842 3.029,14.737 3.099,14.61C3.169,14.476 3.265,14.244 3.38,13.93L4.698,10.05L5.088,10.05Z" style="fill:white;fill-rule:nonzero;stroke:white;stroke-width:0.45px;"/>
            <path d="M8.823,13.952L8.823,10.506L8.427,10.506C8.292,10.506 8.184,10.543 8.101,10.618L7.608,11.134L7.48,11.134L7.48,10.155L10.793,10.155L10.793,11.134L10.665,11.134L10.173,10.618C10.096,10.543 9.981,10.506 9.853,10.506L9.45,10.506L9.45,13.952C9.45,14.207 9.476,14.408 9.527,14.55C9.591,14.7 9.674,14.827 9.776,14.894L9.776,15.044L8.504,15.044L8.504,14.894C8.599,14.827 8.689,14.7 8.753,14.55C8.798,14.408 8.823,14.207 8.823,13.952Z" style="fill:white;fill-rule:nonzero;stroke:white;stroke-width:0.45px;"/>
            <path d="M12.885,13.952L12.885,10.506L12.488,10.506C12.354,10.506 12.245,10.543 12.162,10.618L11.67,11.134L11.542,11.134L11.542,10.155L14.855,10.155L14.855,11.134L14.727,11.134L14.234,10.618C14.158,10.543 14.042,10.506 13.915,10.506L13.512,10.506L13.512,13.952C13.512,14.207 13.537,14.408 13.588,14.55C13.652,14.7 13.735,14.827 13.838,14.894L13.838,15.044L12.565,15.044L12.565,14.894C12.661,14.827 12.75,14.7 12.814,14.55C12.859,14.408 12.885,14.207 12.885,13.952Z" style="fill:white;fill-rule:nonzero;stroke:white;stroke-width:0.45px;"/>
        </g>
    </g>
</svg>
