<?xml version="1.0" encoding="UTF-8" standalone="no"?>
<!DOCTYPE svg PUBLIC "-//W3C//DTD SVG 1.1//EN" "http://www.w3.org/Graphics/SVG/1.1/DTD/svg11.dtd">
<svg width="100%" height="100%" viewBox="0 0 16 16" version="1.1" xmlns="http://www.w3.org/2000/svg" xmlns:xlink="http://www.w3.org/1999/xlink" xml:space="preserve" xmlns:serif="http://www.serif.com/" style="fill-rule:evenodd;clip-rule:evenodd;stroke-linejoin:round;stroke-miterlimit:2;">
    <rect id="BLK" x="0" y="0" width="16" height="16" style="fill:none;"/>
    <clipPath id="_clip1">
        <rect x="0" y="0" width="16" height="16"/>
    </clipPath>
    <g clip-path="url(#_clip1)">
        <rect x="2.999" y="0.946" width="10.207" height="7.054" style="fill:none;"/>
        <clipPath id="_clip2">
            <rect x="2.999" y="0.946" width="10.207" height="7.054"/>
        </clipPath>
        <g clip-path="url(#_clip2)">
            <g id="DocIcon--Symbol-" serif:id="DocIcon (Symbol)">
                <path d="M13.064,15.999L2.999,15.999L2.999,5.978L8.032,5.978L8.032,0.946L13.064,0.946L13.064,15.999ZM7.03,4.976L2.999,4.976L2.999,4.974L7.03,0.974L7.03,4.976Z" style="fill:rgb(135,147,154);"/>
            </g>
        </g>
        <rect x="0.846" y="8.839" width="16" height="7.416" style="fill:rgb(21,101,192);"/>
        <g id="Text" opacity="0.93">
            <path d="M3.982,14.752L4.352,14.752C4.698,14.752 4.96,14.648 5.133,14.453C5.306,14.251 5.401,13.945 5.401,13.564C5.401,13.242 5.325,12.966 5.19,12.756C5.05,12.562 4.839,12.435 4.564,12.405C4.289,12.45 4.097,12.472 3.982,12.472L3.982,14.752ZM3.982,10.446L3.982,12.196C4.397,12.196 4.723,12.068 4.954,11.814C5.114,11.642 5.197,11.418 5.197,11.156C5.197,10.925 5.12,10.745 4.979,10.611C4.845,10.506 4.66,10.446 4.423,10.446L3.982,10.446ZM3.361,11.246C3.361,10.992 3.336,10.79 3.284,10.648C3.22,10.498 3.131,10.371 3.035,10.297L3.035,10.155L4.532,10.155C5.024,10.155 5.382,10.244 5.593,10.424C5.792,10.581 5.888,10.835 5.888,11.141C5.888,11.403 5.792,11.65 5.606,11.859C5.395,12.083 5.139,12.233 4.839,12.293C5.235,12.293 5.536,12.397 5.753,12.599C5.99,12.816 6.111,13.152 6.111,13.594C6.111,14.102 5.952,14.483 5.632,14.722C5.344,14.932 4.954,15.044 4.461,15.044L3.035,15.044L3.035,14.894C3.131,14.827 3.22,14.7 3.284,14.55C3.336,14.408 3.361,14.207 3.361,13.952L3.361,11.246Z" style="fill:white;fill-rule:nonzero;stroke:white;stroke-width:0.45px;"/>
            <path d="M8.791,14.752C8.913,14.752 9.041,14.692 9.143,14.588L9.68,14.057L9.808,14.057L9.693,15.044L7.18,15.044L7.18,14.894C7.275,14.827 7.365,14.7 7.429,14.55C7.48,14.408 7.506,14.207 7.506,13.952L7.506,11.246C7.506,10.992 7.48,10.79 7.429,10.648C7.365,10.498 7.275,10.371 7.18,10.297L7.18,10.155L8.452,10.155L8.452,10.297C8.35,10.371 8.267,10.498 8.203,10.648C8.152,10.79 8.126,10.992 8.126,11.246L8.126,14.752L8.791,14.752Z" style="fill:white;fill-rule:nonzero;stroke:white;stroke-width:0.45px;"/>
            <path d="M11.567,12.794L11.567,13.952C11.567,14.207 11.593,14.408 11.644,14.55C11.708,14.7 11.791,14.827 11.893,14.894L11.893,15.044L10.621,15.044L10.621,14.894C10.717,14.827 10.806,14.7 10.87,14.55C10.921,14.408 10.947,14.207 10.947,13.952L10.947,11.246C10.947,10.992 10.921,10.79 10.87,10.648C10.806,10.498 10.717,10.371 10.621,10.297L10.621,10.155L11.893,10.155L11.893,10.297C11.791,10.371 11.708,10.498 11.644,10.648C11.593,10.79 11.567,10.992 11.567,11.246L11.567,12.353L12.872,10.872C12.955,10.775 13.019,10.678 13.051,10.588C13.083,10.476 13.051,10.371 12.949,10.297L12.949,10.155L14.119,10.155L14.119,10.297C13.902,10.371 13.659,10.536 13.416,10.805L12.616,11.717L13.556,14.094C13.767,14.558 14.011,14.827 14.286,14.894L14.286,15.044L13.173,15.044L12.098,12.24L11.567,12.794Z" style="fill:white;fill-rule:nonzero;stroke:white;stroke-width:0.45px;"/>
        </g>
    </g>
</svg>
