<?xml version="1.0" encoding="UTF-8" standalone="no"?>
<!DOCTYPE svg PUBLIC "-//W3C//DTD SVG 1.1//EN" "http://www.w3.org/Graphics/SVG/1.1/DTD/svg11.dtd">
<svg width="100%" height="100%" viewBox="0 0 16 16" version="1.1" xmlns="http://www.w3.org/2000/svg" xmlns:xlink="http://www.w3.org/1999/xlink" xml:space="preserve" xmlns:serif="http://www.serif.com/" style="fill-rule:evenodd;clip-rule:evenodd;stroke-linejoin:round;stroke-miterlimit:2;">
    <g id="BLK_dark">
        <rect x="0" y="0" width="16" height="16" style="fill:none;"/>
        <clipPath id="_clip1">
            <rect x="0" y="0" width="16" height="16"/>
        </clipPath>
        <g clip-path="url(#_clip1)">
            <rect x="2.999" y="0.946" width="10.207" height="7.054" style="fill:none;"/>
            <clipPath id="_clip2">
                <rect x="2.999" y="0.946" width="10.207" height="7.054"/>
            </clipPath>
            <g clip-path="url(#_clip2)">
                <g id="DocIcon--Symbol-" serif:id="DocIcon (Symbol)">
                    <path d="M13.064,15.999L2.999,15.999L2.999,5.978L8.032,5.978L8.032,0.946L13.064,0.946L13.064,15.999ZM7.03,4.976L2.999,4.976L2.999,4.974L7.03,0.974L7.03,4.976Z" style="fill:rgb(135,147,154);"/>
                </g>
            </g>
            <rect x="0.846" y="8.839" width="16" height="7.416" style="fill:rgb(21,101,192);"/>
            <g id="Text" opacity="0.95">
                <path d="M3.129,15.044L3.129,10.391L4.622,10.391C4.926,10.391 5.17,10.438 5.354,10.532C5.538,10.626 5.682,10.771 5.786,10.967C5.89,11.163 5.942,11.367 5.942,11.581C5.942,11.78 5.896,11.967 5.803,12.143C5.711,12.319 5.572,12.46 5.385,12.568C5.626,12.651 5.811,12.791 5.941,12.99C6.07,13.189 6.135,13.424 6.135,13.695C6.135,13.913 6.095,14.115 6.017,14.303C5.938,14.49 5.841,14.634 5.725,14.736C5.609,14.838 5.464,14.914 5.289,14.966C5.114,15.018 4.9,15.044 4.647,15.044L3.129,15.044ZM3.656,12.346L4.516,12.346C4.75,12.346 4.917,12.328 5.019,12.292C5.153,12.246 5.254,12.168 5.321,12.06C5.389,11.953 5.423,11.817 5.423,11.654C5.423,11.5 5.392,11.364 5.328,11.246C5.265,11.129 5.174,11.049 5.057,11.005C4.939,10.962 4.737,10.94 4.451,10.94L3.656,10.94L3.656,12.346ZM3.656,14.495L4.647,14.495C4.817,14.495 4.936,14.487 5.005,14.473C5.126,14.447 5.228,14.405 5.309,14.346C5.391,14.286 5.458,14.2 5.51,14.087C5.563,13.974 5.589,13.843 5.589,13.695C5.589,13.521 5.551,13.371 5.475,13.243C5.399,13.115 5.293,13.025 5.159,12.973C5.024,12.921 4.83,12.895 4.576,12.895L3.656,12.895L3.656,14.495Z" style="fill:white;fill-rule:nonzero;stroke:white;stroke-width:0.45px;"/>
                <path d="M7.222,15.044L7.222,10.391L7.749,10.391L7.749,14.495L9.709,14.495L9.709,15.044L7.222,15.044Z" style="fill:white;fill-rule:nonzero;stroke:white;stroke-width:0.45px;"/>
                <path d="M10.698,15.044L10.698,10.391L11.225,10.391L11.225,12.698L13.202,10.391L13.916,10.391L12.246,12.276L13.989,15.044L13.294,15.044L11.877,12.689L11.225,13.432L11.225,15.044L10.698,15.044Z" style="fill:white;fill-rule:nonzero;stroke:white;stroke-width:0.45px;"/>
            </g>
        </g>
    </g>
</svg>
