<?xml version="1.0" encoding="UTF-8" standalone="no"?>
<!DOCTYPE svg PUBLIC "-//W3C//DTD SVG 1.1//EN" "http://www.w3.org/Graphics/SVG/1.1/DTD/svg11.dtd">
<svg width="100%" height="100%" viewBox="0 0 16 16" version="1.1" xmlns="http://www.w3.org/2000/svg" xmlns:xlink="http://www.w3.org/1999/xlink" xml:space="preserve" xmlns:serif="http://www.serif.com/" style="fill-rule:evenodd;clip-rule:evenodd;stroke-linejoin:round;stroke-miterlimit:2;">
    <rect id="C1-Cob" x="0" y="0" width="16" height="16" style="fill:none;"/>
    <clipPath id="_clip1">
        <rect x="0" y="0" width="16" height="16"/>
    </clipPath>
    <g clip-path="url(#_clip1)">
        <g>
            <g>
                <rect id="Clip" x="1.949" y="0.11" width="12.139" height="15.781" style="fill:none;"/>
                <clipPath id="_clip2">
                    <rect id="Clip1" serif:id="Clip" x="1.949" y="0.11" width="12.139" height="15.781"/>
                </clipPath>
                <g clip-path="url(#_clip2)">
                    <path d="M8.019,0.111C11.369,0.111 14.088,6.451 14.088,9.808C14.088,13.166 11.369,15.892 8.019,15.892C4.669,15.892 1.949,13.166 1.949,9.808C1.949,6.451 4.669,0.111 8.019,0.111Z" style="fill:rgb(47,170,240);"/>
                    <path d="M9.763,2.887C12.412,3.255 13.868,8.555 13.5,11.204C13.132,13.853 10.682,15.704 8.034,15.336C5.385,14.968 3.533,12.519 3.901,9.87C4.269,7.221 7.115,2.519 9.763,2.887Z" style="fill:rgb(121,206,254);"/>
                    <path d="M10.469,7.166C12.194,7.629 12.719,11.262 12.255,12.987C11.791,14.711 10.015,15.735 8.29,15.271C6.565,14.808 5.542,13.031 6.005,11.306C6.469,9.582 8.745,6.702 10.469,7.166Z" style="fill:white;"/>
                </g>
            </g>
        </g>
        <rect x="-0.049" y="8.839" width="16.895" height="7.416" style="fill:rgb(5,138,210);"/>
        <g id="Text">
            <path d="M4.196,15.103C3.313,15.103 2.68,14.802 2.304,14.187C2.067,13.789 1.949,13.279 1.949,12.663C1.949,11.86 2.151,11.2 2.561,10.704C2.965,10.231 3.549,9.991 4.286,9.991C4.613,9.991 5.003,10.051 5.441,10.149L5.441,10.997L5.302,10.997L4.613,10.457C4.502,10.381 4.37,10.344 4.231,10.344C3.751,10.344 3.375,10.539 3.118,10.922C2.86,11.342 2.721,11.89 2.721,12.558C2.721,13.099 2.812,13.549 2.958,13.902C3.208,14.472 3.64,14.757 4.224,14.757C4.37,14.757 4.509,14.72 4.62,14.645L5.309,14.104L5.448,14.104L5.448,14.945C4.996,15.043 4.579,15.103 4.196,15.103Z" style="fill:white;fill-rule:nonzero;stroke:white;stroke-width:0.45px;"/>
            <path d="M6.575,12.551C6.575,11.913 6.707,11.365 6.964,10.922C7.347,10.306 7.897,9.991 8.599,9.991C9.295,9.991 9.851,10.306 10.227,10.922C10.484,11.365 10.623,11.913 10.623,12.551C10.623,13.189 10.484,13.737 10.227,14.179C9.851,14.795 9.295,15.103 8.599,15.103C7.897,15.103 7.347,14.795 6.964,14.179C6.707,13.737 6.575,13.189 6.575,12.551ZM9.851,12.551C9.837,11.905 9.733,11.395 9.552,11.034C9.316,10.584 8.989,10.366 8.55,10.374C8.119,10.381 7.792,10.622 7.577,11.08C7.417,11.44 7.333,11.965 7.347,12.611C7.354,13.256 7.458,13.767 7.639,14.127C7.869,14.57 8.203,14.795 8.641,14.787C9.072,14.78 9.399,14.532 9.608,14.082C9.775,13.714 9.858,13.196 9.851,12.551Z" style="fill:white;fill-rule:nonzero;stroke:white;stroke-width:0.45px;"/>
            <path d="M12.807,14.712L13.211,14.712C13.587,14.712 13.872,14.607 14.06,14.412C14.247,14.209 14.352,13.902 14.352,13.519C14.352,13.196 14.268,12.918 14.122,12.708C13.969,12.513 13.74,12.386 13.44,12.355C13.141,12.401 12.933,12.423 12.807,12.423L12.807,14.712ZM12.807,10.389L12.807,12.145C13.26,12.145 13.614,12.018 13.865,11.763C14.039,11.59 14.129,11.365 14.129,11.102C14.129,10.869 14.046,10.689 13.893,10.554C13.747,10.449 13.545,10.389 13.287,10.389L12.807,10.389ZM12.133,11.192C12.133,10.937 12.105,10.734 12.049,10.592C11.98,10.442 11.882,10.314 11.778,10.239L11.778,10.096L13.406,10.096C13.941,10.096 14.331,10.186 14.56,10.366C14.776,10.524 14.88,10.779 14.88,11.087C14.88,11.35 14.776,11.597 14.574,11.808C14.345,12.033 14.066,12.183 13.74,12.243C14.171,12.243 14.498,12.348 14.734,12.551C14.992,12.768 15.124,13.106 15.124,13.549C15.124,14.059 14.95,14.442 14.602,14.682C14.289,14.892 13.865,15.005 13.329,15.005L11.778,15.005L11.778,14.855C11.882,14.787 11.98,14.66 12.049,14.51C12.105,14.367 12.133,14.164 12.133,13.909L12.133,11.192Z" style="fill:white;fill-rule:nonzero;stroke:white;stroke-width:0.45px;"/>
        </g>
    </g>
</svg>
