<?xml version="1.0" encoding="UTF-8" standalone="no"?>
<!DOCTYPE svg PUBLIC "-//W3C//DTD SVG 1.1//EN" "http://www.w3.org/Graphics/SVG/1.1/DTD/svg11.dtd">
<svg width="100%" height="100%" viewBox="0 0 16 16" version="1.1" xmlns="http://www.w3.org/2000/svg" xmlns:xlink="http://www.w3.org/1999/xlink" xml:space="preserve" xmlns:serif="http://www.serif.com/" style="fill-rule:evenodd;clip-rule:evenodd;stroke-linejoin:round;stroke-miterlimit:2;">
    <rect id="C1-Cob" x="0" y="0" width="16" height="16" style="fill:none;"/>
    <clipPath id="_clip1">
        <rect x="0" y="0" width="16" height="16"/>
    </clipPath>
    <g clip-path="url(#_clip1)">
        <g opacity="0.8">
            <g>
                <rect id="Clip" x="1.949" y="0.11" width="12.139" height="15.781" style="fill:none;"/>
                <clipPath id="_clip2">
                    <rect id="Clip1" serif:id="Clip" x="1.949" y="0.11" width="12.139" height="15.781"/>
                </clipPath>
                <g clip-path="url(#_clip2)">
                    <path d="M8.019,0.111C11.369,0.111 14.088,6.451 14.088,9.808C14.088,13.166 11.369,15.892 8.019,15.892C4.669,15.892 1.949,13.166 1.949,9.808C1.949,6.451 4.669,0.111 8.019,0.111Z" style="fill:rgb(47,170,240);"/>
                    <path d="M9.763,2.887C12.412,3.255 13.868,8.555 13.5,11.204C13.132,13.853 10.682,15.704 8.034,15.336C5.385,14.968 3.533,12.519 3.901,9.87C4.269,7.221 7.115,2.519 9.763,2.887Z" style="fill:rgb(121,206,254);"/>
                    <path d="M10.469,7.166C12.194,7.629 12.719,11.262 12.255,12.987C11.791,14.711 10.015,15.735 8.29,15.271C6.565,14.808 5.542,13.031 6.005,11.306C6.469,9.582 8.745,6.702 10.469,7.166Z" style="fill:white;"/>
                </g>
            </g>
        </g>
        <rect x="-0.049" y="8.839" width="16.895" height="7.416" style="fill:rgb(25,118,210);"/>
        <g id="Text" opacity="0.77">
            <path d="M5.15,13.374L5.72,13.529C5.601,14.035 5.386,14.421 5.075,14.686C4.764,14.952 4.384,15.084 3.935,15.084C3.47,15.084 3.092,14.982 2.801,14.778C2.51,14.574 2.288,14.278 2.136,13.891C1.984,13.504 1.908,13.088 1.908,12.644C1.908,12.159 1.994,11.737 2.166,11.376C2.337,11.015 2.581,10.741 2.898,10.554C3.215,10.366 3.563,10.273 3.944,10.273C4.375,10.273 4.738,10.391 5.032,10.628C5.326,10.865 5.531,11.199 5.647,11.628L5.085,11.771C4.985,11.432 4.84,11.186 4.65,11.031C4.46,10.877 4.22,10.8 3.932,10.8C3.601,10.8 3.324,10.885 3.101,11.057C2.879,11.228 2.722,11.458 2.632,11.747C2.542,12.036 2.497,12.334 2.497,12.641C2.497,13.036 2.55,13.382 2.657,13.677C2.764,13.972 2.93,14.193 3.156,14.339C3.381,14.485 3.625,14.558 3.888,14.558C4.208,14.558 4.478,14.458 4.7,14.259C4.921,14.06 5.071,13.765 5.15,13.374Z" style="fill:white;fill-rule:nonzero;stroke:white;stroke-width:0.45px;"/>
            <path d="M6.665,12.739C6.665,11.967 6.858,11.362 7.242,10.925C7.626,10.488 8.122,10.27 8.73,10.27C9.128,10.27 9.487,10.372 9.807,10.578C10.126,10.783 10.37,11.069 10.538,11.436C10.705,11.803 10.789,12.219 10.789,12.685C10.789,13.157 10.701,13.579 10.524,13.951C10.348,14.324 10.098,14.606 9.774,14.797C9.451,14.989 9.102,15.084 8.727,15.084C8.321,15.084 7.959,14.979 7.639,14.767C7.319,14.555 7.077,14.267 6.913,13.901C6.748,13.534 6.665,13.147 6.665,12.739ZM7.254,12.748C7.254,13.309 7.393,13.751 7.673,14.074C7.952,14.396 8.303,14.558 8.724,14.558C9.154,14.558 9.507,14.395 9.785,14.069C10.062,13.743 10.201,13.281 10.201,12.682C10.201,12.303 10.142,11.972 10.023,11.69C9.904,11.407 9.731,11.188 9.502,11.033C9.274,10.877 9.018,10.8 8.733,10.8C8.329,10.8 7.982,10.949 7.691,11.249C7.399,11.548 7.254,12.048 7.254,12.748Z" style="fill:white;fill-rule:nonzero;stroke:white;stroke-width:0.45px;"/>
            <path d="M11.917,15.005L11.917,10.352L13.534,10.352C13.864,10.352 14.128,10.399 14.327,10.493C14.526,10.588 14.682,10.733 14.795,10.928C14.907,11.124 14.964,11.329 14.964,11.542C14.964,11.741 14.914,11.929 14.814,12.104C14.714,12.28 14.563,12.422 14.361,12.529C14.622,12.612 14.822,12.753 14.962,12.952C15.103,13.15 15.173,13.385 15.173,13.656C15.173,13.874 15.13,14.077 15.045,14.264C14.959,14.451 14.854,14.596 14.729,14.697C14.603,14.799 14.446,14.875 14.256,14.927C14.067,14.979 13.835,15.005 13.561,15.005L11.917,15.005ZM12.487,12.307L13.42,12.307C13.673,12.307 13.854,12.289 13.964,12.253C14.109,12.207 14.218,12.13 14.292,12.022C14.365,11.914 14.402,11.778 14.402,11.615C14.402,11.461 14.368,11.325 14.299,11.208C14.23,11.09 14.132,11.01 14.005,10.966C13.878,10.923 13.659,10.901 13.349,10.901L12.487,10.901L12.487,12.307ZM12.487,14.456L13.561,14.456C13.745,14.456 13.875,14.449 13.949,14.434C14.08,14.408 14.19,14.366 14.279,14.307C14.367,14.248 14.439,14.161 14.496,14.048C14.553,13.935 14.581,13.804 14.581,13.656C14.581,13.483 14.54,13.332 14.458,13.204C14.376,13.076 14.261,12.986 14.115,12.934C13.969,12.882 13.759,12.856 13.484,12.856L12.487,12.856L12.487,14.456Z" style="fill:white;fill-rule:nonzero;stroke:white;stroke-width:0.45px;"/>
        </g>
    </g>
</svg>
