<?xml version="1.0" encoding="UTF-8" standalone="no"?>
<!DOCTYPE svg PUBLIC "-//W3C//DTD SVG 1.1//EN" "http://www.w3.org/Graphics/SVG/1.1/DTD/svg11.dtd">
<svg width="100%" height="100%" viewBox="0 0 16 16" version="1.1" xmlns="http://www.w3.org/2000/svg" xmlns:xlink="http://www.w3.org/1999/xlink" xml:space="preserve" xmlns:serif="http://www.serif.com/" style="fill-rule:evenodd;clip-rule:evenodd;stroke-linejoin:round;stroke-miterlimit:2;">
    <g id="C1">
        <g opacity="0.8">
            <path d="M7.813,1.307C10.774,1.307 13.177,6.896 13.177,9.857C13.177,12.818 10.774,15.222 7.813,15.222C4.852,15.222 2.448,12.818 2.448,9.857C2.448,6.896 4.852,1.307 7.813,1.307Z" style="fill:rgb(47,170,240);"/>
            <path d="M9.34,3.755C11.676,4.08 12.96,8.754 12.635,11.09C12.311,13.426 10.151,15.059 7.814,14.735C5.478,14.41 3.845,12.25 4.17,9.914C4.494,7.577 7.004,3.43 9.34,3.755Z" style="fill:rgb(121,206,254);"/>
            <path d="M9.962,7.529C11.484,7.937 11.946,11.141 11.538,12.662C11.129,14.183 9.562,15.086 8.041,14.677C6.52,14.268 5.617,12.701 6.026,11.18C6.434,9.659 8.441,7.12 9.962,7.529Z" style="fill:white;"/>
        </g>
        <rect x="7.813" y="9.256" width="8.187" height="6.744" style="fill:rgb(47,170,240);"/>
        <g opacity="0.77">
            <path d="M12.549,14.291C12.48,14.403 12.397,14.509 12.299,14.608C12.201,14.708 12.088,14.794 11.959,14.869C11.831,14.943 11.689,15.002 11.534,15.046C11.378,15.089 11.208,15.111 11.024,15.111C10.717,15.111 10.433,15.053 10.173,14.937C9.912,14.821 9.687,14.661 9.499,14.456C9.311,14.251 9.165,14.008 9.059,13.726C8.954,13.445 8.901,13.137 8.901,12.801C8.901,12.466 8.955,12.158 9.062,11.876C9.169,11.595 9.318,11.351 9.508,11.147C9.698,10.942 9.922,10.781 10.181,10.665C10.44,10.549 10.721,10.491 11.024,10.491C11.174,10.491 11.321,10.508 11.464,10.541C11.608,10.574 11.744,10.621 11.87,10.681C11.997,10.741 12.112,10.813 12.215,10.898C12.319,10.983 12.405,11.079 12.474,11.187L12.129,11.46C12.087,11.39 12.03,11.319 11.959,11.249C11.888,11.179 11.805,11.117 11.709,11.063C11.613,11.009 11.509,10.965 11.395,10.932C11.282,10.899 11.16,10.883 11.03,10.883C10.765,10.883 10.528,10.934 10.319,11.038C10.11,11.141 9.933,11.281 9.787,11.457C9.641,11.633 9.53,11.837 9.453,12.069C9.377,12.3 9.338,12.545 9.338,12.801C9.338,13.058 9.378,13.302 9.456,13.534C9.535,13.766 9.647,13.97 9.793,14.146C9.939,14.322 10.116,14.461 10.325,14.565C10.534,14.668 10.769,14.72 11.03,14.72C11.264,14.72 11.487,14.668 11.698,14.565C11.909,14.461 12.085,14.296 12.227,14.068L12.549,14.291Z" style="fill:white;fill-rule:nonzero;stroke:white;stroke-width:0.4px;"/>
            <path d="M14.638,14.999L14.224,14.999L14.224,11.156L13.487,11.833L13.234,11.522L14.27,10.603L14.638,10.603L14.638,14.999Z" style="fill:white;fill-rule:nonzero;stroke:white;stroke-width:0.4px;"/>
        </g>
        <rect x="0" y="-0" width="16" height="16" style="fill:none;"/>
    </g>
</svg>
