<?xml version="1.0" encoding="UTF-8" standalone="no"?>
<!DOCTYPE svg PUBLIC "-//W3C//DTD SVG 1.1//EN" "http://www.w3.org/Graphics/SVG/1.1/DTD/svg11.dtd">
<svg width="100%" height="100%" viewBox="0 0 512 513" version="1.1" xmlns="http://www.w3.org/2000/svg" xmlns:xlink="http://www.w3.org/1999/xlink" xml:space="preserve" xmlns:serif="http://www.serif.com/" style="fill-rule:evenodd;clip-rule:evenodd;stroke-linejoin:round;stroke-miterlimit:2;">
    <g id="C1">
        <g>
            <path d="M250.007,42.227C344.753,42.227 421.674,221.099 421.674,315.844C421.674,410.59 344.753,487.512 250.007,487.512C155.261,487.512 78.339,410.59 78.339,315.844C78.339,221.099 155.261,42.227 250.007,42.227Z" style="fill:rgb(47,170,240);"/>
            <path d="M298.883,120.573C373.641,130.961 414.723,280.532 404.335,355.291C393.946,430.049 324.818,482.309 250.059,471.921C175.301,461.533 123.041,392.404 133.429,317.646C143.817,242.887 224.124,110.184 298.883,120.573Z" style="fill:rgb(121,206,254);"/>
            <path d="M318.799,241.326C367.474,254.412 382.287,356.93 369.202,405.605C356.116,454.279 305.974,483.173 257.299,470.088C208.624,457.002 179.73,406.86 192.816,358.185C205.902,309.51 270.124,228.24 318.799,241.326Z" style="fill:white;"/>
        </g>
        <rect x="250.007" y="296.617" width="261.993" height="215.796" style="fill:rgb(47,170,240);"/>
        <path d="M401.574,457.741C399.364,461.318 396.694,464.695 393.564,467.875C390.433,471.054 386.812,473.835 382.699,476.22C378.587,478.604 374.045,480.492 369.073,481.883C364.101,483.273 358.669,483.969 352.777,483.969C342.956,483.969 333.872,482.114 325.524,478.405C317.176,474.696 309.995,469.563 303.98,463.007C297.965,456.45 293.269,448.667 289.893,439.66C286.517,430.652 284.829,420.784 284.829,410.054C284.829,399.325 286.548,389.456 289.985,380.449C293.422,371.441 298.179,363.659 304.256,357.102C310.333,350.545 317.514,345.412 325.8,341.703C334.087,337.994 343.079,336.14 352.777,336.14C357.564,336.14 362.26,336.67 366.863,337.729C371.467,338.789 375.794,340.279 379.845,342.2C383.896,344.121 387.579,346.439 390.894,349.154C394.208,351.87 396.97,354.95 399.18,358.394L388.132,367.136C386.781,364.884 384.97,362.632 382.699,360.381C380.428,358.129 377.758,356.142 374.689,354.42C371.62,352.698 368.275,351.307 364.654,350.247C361.032,349.187 357.135,348.658 352.961,348.658C344.491,348.658 336.91,350.313 330.22,353.625C323.529,356.937 317.852,361.407 313.187,367.037C308.522,372.667 304.962,379.19 302.507,386.608C300.052,394.026 298.824,401.842 298.824,410.054C298.824,418.267 300.082,426.082 302.599,433.5C305.115,440.918 308.706,447.442 313.371,453.072C318.036,458.701 323.713,463.172 330.404,466.484C337.094,469.795 344.613,471.451 352.961,471.451C360.449,471.451 367.569,469.795 374.321,466.484C381.073,463.172 386.72,457.874 391.262,450.588L401.574,457.741Z" style="fill:white;fill-rule:nonzero;stroke:white;stroke-width:12px;"/>
        <path d="M468.416,480.392L455.158,480.392L455.158,357.4L431.588,379.058L423.486,369.123L456.631,339.716L468.416,339.716L468.416,480.392Z" style="fill:white;fill-rule:nonzero;stroke:white;stroke-width:12px;"/>
        <rect x="0" y="0.413" width="512" height="512" style="fill:none;"/>
    </g>
</svg>
