<?xml version="1.0" encoding="UTF-8" standalone="no"?>
<!DOCTYPE svg PUBLIC "-//W3C//DTD SVG 1.1//EN" "http://www.w3.org/Graphics/SVG/1.1/DTD/svg11.dtd">
<svg width="100%" height="100%" viewBox="0 0 16 16" version="1.1" xmlns="http://www.w3.org/2000/svg" xmlns:xlink="http://www.w3.org/1999/xlink" xml:space="preserve" xmlns:serif="http://www.serif.com/" style="fill-rule:evenodd;clip-rule:evenodd;stroke-linejoin:round;stroke-miterlimit:2;">
    <g id="C16_dark">
        <rect x="0" y="0" width="16" height="16" style="fill:none;"/>
        <clipPath id="_clip1">
            <rect x="0" y="0" width="16" height="16"/>
        </clipPath>
        <g clip-path="url(#_clip1)">
            <rect x="2.999" y="0.946" width="10.207" height="7.054" style="fill:none;"/>
            <clipPath id="_clip2">
                <rect x="2.999" y="0.946" width="10.207" height="7.054"/>
            </clipPath>
            <g clip-path="url(#_clip2)">
                <g id="DocIcon--Symbol-" serif:id="DocIcon (Symbol)">
                    <path d="M13.064,15.999L2.999,15.999L2.999,5.978L8.032,5.978L8.032,0.946L13.064,0.946L13.064,15.999ZM7.03,4.976L2.999,4.976L2.999,4.974L7.03,0.974L7.03,4.976Z" style="fill:rgb(135,147,154);"/>
                </g>
            </g>
            <rect x="0.846" y="8.839" width="16" height="7.416" style="fill:rgb(36,129,118);"/>
            <g id="Text">
                <path d="M6.084,13.37L6.655,13.525C6.535,14.031 6.32,14.417 6.009,14.682C5.698,14.948 5.318,15.081 4.869,15.081C4.404,15.081 4.026,14.979 3.735,14.774C3.444,14.57 3.222,14.274 3.071,13.887C2.919,13.5 2.843,13.084 2.843,12.64C2.843,12.155 2.928,11.733 3.1,11.372C3.272,11.011 3.516,10.737 3.832,10.55C4.149,10.363 4.498,10.269 4.878,10.269C5.309,10.269 5.672,10.388 5.966,10.625C6.26,10.862 6.465,11.195 6.581,11.624L6.019,11.767C5.919,11.429 5.774,11.182 5.584,11.028C5.394,10.873 5.154,10.796 4.866,10.796C4.535,10.796 4.258,10.882 4.035,11.053C3.813,11.224 3.656,11.455 3.566,11.743C3.476,12.032 3.431,12.33 3.431,12.637C3.431,13.032 3.484,13.378 3.591,13.673C3.698,13.968 3.864,14.189 4.09,14.335C4.315,14.481 4.559,14.554 4.822,14.554C5.142,14.554 5.412,14.454 5.634,14.255C5.855,14.057 6.005,13.761 6.084,13.37Z" style="fill:white;fill-rule:nonzero;stroke:white;stroke-width:0.45px;"/>
                <path d="M9.553,15.001L9.023,15.001L9.023,11.361C8.896,11.492 8.729,11.623 8.522,11.754C8.315,11.886 8.129,11.984 7.964,12.05L7.964,11.497C8.26,11.347 8.519,11.165 8.741,10.951C8.962,10.738 9.119,10.53 9.211,10.329L9.553,10.329L9.553,15.001Z" style="fill:white;fill-rule:nonzero;stroke:white;stroke-width:0.45px;"/>
                <path d="M14.071,11.488L13.545,11.532C13.498,11.308 13.431,11.145 13.345,11.044C13.202,10.881 13.025,10.799 12.816,10.799C12.647,10.799 12.499,10.85 12.371,10.951C12.205,11.083 12.073,11.274 11.977,11.526C11.881,11.778 11.831,12.136 11.827,12.602C11.955,12.392 12.111,12.237 12.295,12.135C12.479,12.034 12.672,11.983 12.874,11.983C13.227,11.983 13.528,12.123 13.776,12.403C14.024,12.684 14.148,13.046 14.148,13.491C14.148,13.783 14.09,14.054 13.973,14.305C13.856,14.555 13.696,14.747 13.492,14.881C13.288,15.014 13.057,15.081 12.798,15.081C12.357,15.081 11.997,14.906 11.718,14.555C11.44,14.205 11.301,13.628 11.301,12.824C11.301,11.925 11.455,11.271 11.763,10.863C12.031,10.507 12.393,10.329 12.848,10.329C13.187,10.329 13.465,10.432 13.682,10.637C13.898,10.842 14.028,11.126 14.071,11.488ZM11.91,13.494C11.91,13.69 11.948,13.879 12.026,14.059C12.103,14.238 12.212,14.375 12.351,14.47C12.49,14.564 12.636,14.611 12.789,14.611C13.013,14.611 13.205,14.514 13.366,14.319C13.526,14.124 13.607,13.86 13.607,13.525C13.607,13.204 13.527,12.95 13.368,12.765C13.21,12.58 13.01,12.488 12.768,12.488C12.529,12.488 12.326,12.58 12.16,12.765C11.993,12.95 11.91,13.193 11.91,13.494Z" style="fill:white;fill-rule:nonzero;stroke:white;stroke-width:0.45px;"/>
            </g>
        </g>
    </g>
</svg>
