<?xml version="1.0" encoding="UTF-8" standalone="no"?>
<!DOCTYPE svg PUBLIC "-//W3C//DTD SVG 1.1//EN" "http://www.w3.org/Graphics/SVG/1.1/DTD/svg11.dtd">
<svg width="100%" height="100%" viewBox="0 0 16 16" version="1.1" xmlns="http://www.w3.org/2000/svg" xmlns:xlink="http://www.w3.org/1999/xlink" xml:space="preserve" xmlns:serif="http://www.serif.com/" style="fill-rule:evenodd;clip-rule:evenodd;stroke-linejoin:round;stroke-miterlimit:2;">
    <rect id="C16" x="0" y="0" width="16" height="16" style="fill:none;"/>
    <clipPath id="_clip1">
        <rect x="0" y="0" width="16" height="16"/>
    </clipPath>
    <g clip-path="url(#_clip1)">
        <rect x="2.999" y="0.946" width="10.207" height="7.054" style="fill:none;"/>
        <clipPath id="_clip2">
            <rect x="2.999" y="0.946" width="10.207" height="7.054"/>
        </clipPath>
        <g clip-path="url(#_clip2)">
            <g id="DocIcon--Symbol-" serif:id="DocIcon (Symbol)">
                <path d="M13.064,15.999L2.999,15.999L2.999,5.978L8.032,5.978L8.032,0.946L13.064,0.946L13.064,15.999ZM7.03,4.976L2.999,4.976L2.999,4.974L7.03,0.974L7.03,4.976Z" style="fill:rgb(135,147,154);"/>
            </g>
        </g>
        <rect x="0.846" y="8.839" width="16" height="7.416" style="fill:rgb(36,129,118);"/>
        <g id="Text">
            <path d="M5.13,15.099C4.247,15.099 3.614,14.799 3.238,14.183C3.002,13.785 2.883,13.275 2.883,12.659C2.883,11.856 3.085,11.196 3.496,10.7C3.899,10.228 4.483,9.987 5.221,9.987C5.548,9.987 5.937,10.047 6.375,10.145L6.375,10.993L6.236,10.993L5.548,10.453C5.436,10.378 5.304,10.34 5.165,10.34C4.685,10.34 4.309,10.535 4.052,10.918C3.795,11.338 3.656,11.886 3.656,12.554C3.656,13.095 3.746,13.545 3.892,13.898C4.142,14.468 4.574,14.754 5.158,14.754C5.304,14.754 5.443,14.716 5.554,14.641L6.243,14.101L6.382,14.101L6.382,14.941C5.93,15.039 5.513,15.099 5.13,15.099Z" style="fill:white;fill-rule:nonzero;stroke:white;stroke-width:0.45px;"/>
            <path d="M8.831,13.905L8.831,11.308C8.831,10.881 8.58,10.663 8.093,10.663L8.093,10.513L9.373,9.987L9.512,9.987L9.512,13.905C9.512,14.161 9.54,14.363 9.596,14.506C9.658,14.656 9.756,14.784 9.867,14.851L9.867,15.001L8.476,15.001L8.476,14.851C8.587,14.784 8.685,14.656 8.754,14.506C8.803,14.363 8.831,14.161 8.831,13.905Z" style="fill:white;fill-rule:nonzero;stroke:white;stroke-width:0.45px;"/>
            <path d="M12.469,12.097C12.768,11.939 13.102,11.849 13.449,11.849C13.811,11.849 14.124,12.021 14.375,12.337C14.59,12.637 14.702,12.997 14.702,13.418C14.702,13.928 14.583,14.348 14.34,14.641C14.082,14.949 13.714,15.099 13.241,15.099C12.656,15.099 12.239,14.859 11.996,14.386C11.801,14.018 11.71,13.463 11.71,12.727C11.71,12.014 11.843,11.398 12.114,10.888C12.427,10.288 12.893,9.987 13.491,9.987C13.811,9.987 14.145,10.047 14.486,10.145L14.486,10.993L14.354,10.993L13.707,10.445C13.616,10.378 13.533,10.34 13.477,10.34C13.136,10.34 12.872,10.543 12.691,10.956C12.552,11.286 12.469,11.676 12.469,12.097ZM12.455,12.337C12.455,12.382 12.441,12.472 12.441,12.592L12.441,13.05C12.441,13.575 12.483,13.958 12.566,14.198C12.684,14.603 12.921,14.814 13.227,14.814C13.498,14.814 13.693,14.671 13.811,14.393C13.909,14.191 13.957,13.89 13.957,13.523C13.957,13.102 13.888,12.787 13.762,12.592C13.602,12.352 13.345,12.239 12.997,12.239C12.837,12.239 12.65,12.277 12.455,12.337Z" style="fill:white;fill-rule:nonzero;stroke:white;stroke-width:0.45px;"/>
        </g>
    </g>
</svg>
