<?xml version="1.0" encoding="UTF-8" standalone="no"?>
<!DOCTYPE svg PUBLIC "-//W3C//DTD SVG 1.1//EN" "http://www.w3.org/Graphics/SVG/1.1/DTD/svg11.dtd">
<svg width="100%" height="100%" viewBox="0 0 16 16" version="1.1" xmlns="http://www.w3.org/2000/svg" xmlns:xlink="http://www.w3.org/1999/xlink" xml:space="preserve" xmlns:serif="http://www.serif.com/" style="fill-rule:evenodd;clip-rule:evenodd;stroke-linejoin:round;stroke-miterlimit:2;">
    <rect id="C2-Cob" x="0" y="0" width="16" height="16" style="fill:none;"/>
    <clipPath id="_clip1">
        <rect x="0" y="0" width="16" height="16"/>
    </clipPath>
    <g clip-path="url(#_clip1)">
        <g>
            <path d="M8.032,0.111C11.389,0.111 14.114,6.449 14.114,9.806C14.114,13.163 11.389,15.889 8.032,15.889C4.675,15.889 1.949,13.163 1.949,9.806C1.949,6.449 4.675,0.111 8.032,0.111Z" style="fill:rgb(47,170,240);"/>
            <path d="M9.763,2.887C12.412,3.255 13.868,8.555 13.5,11.204C13.132,13.853 10.682,15.704 8.034,15.336C5.385,14.968 3.533,12.519 3.901,9.87C4.269,7.221 7.115,2.519 9.763,2.887Z" style="fill:rgb(121,206,254);"/>
            <path d="M10.469,7.166C12.194,7.629 12.719,11.262 12.255,12.987C11.791,14.711 10.015,15.735 8.29,15.271C6.565,14.808 5.542,13.031 6.005,11.306C6.469,9.582 8.745,6.702 10.469,7.166Z" style="fill:white;"/>
        </g>
        <rect x="0.846" y="8.839" width="16" height="7.416" style="fill:rgb(92,159,42);"/>
        <g id="Text">
            <path d="M4.13,15.099C3.247,15.099 2.614,14.799 2.238,14.183C2.002,13.785 1.883,13.275 1.883,12.659C1.883,11.856 2.085,11.196 2.496,10.7C2.899,10.228 3.483,9.987 4.221,9.987C4.548,9.987 4.937,10.047 5.375,10.145L5.375,10.993L5.236,10.993L4.548,10.453C4.436,10.378 4.304,10.34 4.165,10.34C3.685,10.34 3.309,10.535 3.052,10.918C2.795,11.338 2.656,11.886 2.656,12.554C2.656,13.095 2.746,13.545 2.892,13.898C3.142,14.468 3.574,14.754 4.158,14.754C4.304,14.754 4.443,14.716 4.554,14.641L5.243,14.101L5.382,14.101L5.382,14.941C4.93,15.039 4.513,15.099 4.13,15.099Z" style="fill:white;fill-rule:nonzero;stroke:white;stroke-width:0.45px;"/>
            <path d="M6.509,12.547C6.509,11.909 6.641,11.361 6.899,10.918C7.281,10.303 7.831,9.987 8.533,9.987C9.229,9.987 9.785,10.303 10.161,10.918C10.418,11.361 10.557,11.909 10.557,12.547C10.557,13.185 10.418,13.733 10.161,14.176C9.785,14.791 9.229,15.099 8.533,15.099C7.831,15.099 7.281,14.791 6.899,14.176C6.641,13.733 6.509,13.185 6.509,12.547ZM9.785,12.547C9.771,11.901 9.667,11.391 9.486,11.031C9.25,10.58 8.923,10.363 8.485,10.37C8.053,10.378 7.726,10.618 7.511,11.076C7.351,11.436 7.267,11.961 7.281,12.607C7.288,13.252 7.393,13.763 7.573,14.123C7.803,14.566 8.137,14.791 8.575,14.784C9.006,14.776 9.333,14.528 9.542,14.078C9.709,13.71 9.792,13.192 9.785,12.547Z" style="fill:white;fill-rule:nonzero;stroke:white;stroke-width:0.45px;"/>
            <path d="M12.742,14.709L13.145,14.709C13.521,14.709 13.806,14.603 13.994,14.408C14.181,14.206 14.286,13.898 14.286,13.515C14.286,13.192 14.202,12.915 14.056,12.705C13.903,12.509 13.674,12.382 13.375,12.352C13.076,12.397 12.867,12.419 12.742,12.419L12.742,14.709ZM12.742,10.385L12.742,12.142C13.194,12.142 13.549,12.014 13.799,11.759C13.973,11.586 14.063,11.361 14.063,11.098C14.063,10.866 13.98,10.685 13.827,10.55C13.681,10.445 13.479,10.385 13.222,10.385L12.742,10.385ZM12.067,11.188C12.067,10.933 12.039,10.73 11.983,10.588C11.914,10.438 11.816,10.31 11.712,10.235L11.712,10.092L13.34,10.092C13.875,10.092 14.265,10.183 14.495,10.363C14.71,10.52 14.814,10.776 14.814,11.083C14.814,11.346 14.71,11.594 14.508,11.804C14.279,12.029 14.001,12.179 13.674,12.239C14.105,12.239 14.432,12.344 14.668,12.547C14.926,12.765 15.058,13.102 15.058,13.545C15.058,14.056 14.884,14.438 14.536,14.679C14.223,14.889 13.799,15.001 13.263,15.001L11.712,15.001L11.712,14.851C11.816,14.784 11.914,14.656 11.983,14.506C12.039,14.363 12.067,14.161 12.067,13.905L12.067,11.188Z" style="fill:white;fill-rule:nonzero;stroke:white;stroke-width:0.45px;"/>
        </g>
    </g>
</svg>
