<?xml version="1.0" encoding="UTF-8" standalone="no"?>
<!DOCTYPE svg PUBLIC "-//W3C//DTD SVG 1.1//EN" "http://www.w3.org/Graphics/SVG/1.1/DTD/svg11.dtd">
<svg width="100%" height="100%" viewBox="0 0 16 16" version="1.1" xmlns="http://www.w3.org/2000/svg" xmlns:xlink="http://www.w3.org/1999/xlink" xml:space="preserve" xmlns:serif="http://www.serif.com/" style="fill-rule:evenodd;clip-rule:evenodd;stroke-linejoin:round;stroke-miterlimit:2;">
    <g id="C2-Cob_dark">
        <rect x="0" y="0" width="16" height="16" style="fill:none;"/>
        <clipPath id="_clip1">
            <rect x="0" y="0" width="16" height="16"/>
        </clipPath>
        <g clip-path="url(#_clip1)">
            <g>
                <path d="M8.032,0.111C11.389,0.111 14.114,6.449 14.114,9.806C14.114,13.163 11.389,15.889 8.032,15.889C4.675,15.889 1.949,13.163 1.949,9.806C1.949,6.449 4.675,0.111 8.032,0.111Z" style="fill:rgb(89,170,55);"/>
                <path d="M9.763,2.887C12.412,3.255 13.868,8.555 13.5,11.204C13.132,13.853 10.682,15.704 8.034,15.336C5.385,14.968 3.533,12.519 3.901,9.87C4.269,7.221 7.115,2.519 9.763,2.887Z" style="fill:rgb(134,201,105);"/>
                <path d="M10.469,7.166C12.194,7.629 12.719,11.262 12.255,12.987C11.791,14.711 10.015,15.735 8.29,15.271C6.565,14.808 5.542,13.031 6.005,11.306C6.469,9.582 8.745,6.702 10.469,7.166Z" style="fill:white;"/>
            </g>
            <rect x="0.846" y="8.839" width="16" height="7.416" style="fill:rgb(92,159,42);"/>
            <g id="Text">
                <path d="M5.084,13.37L5.655,13.525C5.535,14.031 5.32,14.417 5.009,14.682C4.698,14.948 4.318,15.081 3.869,15.081C3.404,15.081 3.026,14.979 2.735,14.774C2.444,14.57 2.222,14.274 2.071,13.887C1.919,13.5 1.843,13.084 1.843,12.64C1.843,12.155 1.928,11.733 2.1,11.372C2.272,11.011 2.516,10.737 2.832,10.55C3.149,10.363 3.498,10.269 3.878,10.269C4.309,10.269 4.672,10.388 4.966,10.625C5.26,10.862 5.465,11.195 5.581,11.624L5.019,11.767C4.919,11.429 4.774,11.182 4.584,11.028C4.394,10.873 4.154,10.796 3.866,10.796C3.535,10.796 3.258,10.882 3.035,11.053C2.813,11.224 2.656,11.455 2.566,11.743C2.476,12.032 2.431,12.33 2.431,12.637C2.431,13.032 2.484,13.378 2.591,13.673C2.698,13.968 2.864,14.189 3.09,14.335C3.315,14.481 3.559,14.554 3.822,14.554C4.142,14.554 4.412,14.454 4.634,14.255C4.855,14.057 5.005,13.761 5.084,13.37Z" style="fill:white;fill-rule:nonzero;stroke:white;stroke-width:0.45px;"/>
                <path d="M6.6,12.735C6.6,11.963 6.792,11.358 7.176,10.921C7.56,10.484 8.057,10.266 8.664,10.266C9.062,10.266 9.421,10.369 9.741,10.574C10.061,10.779 10.304,11.065 10.472,11.432C10.64,11.799 10.723,12.216 10.723,12.681C10.723,13.153 10.635,13.575 10.459,13.948C10.282,14.32 10.032,14.602 9.709,14.793C9.385,14.985 9.036,15.081 8.661,15.081C8.256,15.081 7.893,14.975 7.573,14.763C7.254,14.552 7.011,14.263 6.847,13.897C6.682,13.531 6.6,13.144 6.6,12.735ZM7.188,12.745C7.188,13.305 7.328,13.747 7.607,14.07C7.886,14.392 8.237,14.554 8.659,14.554C9.088,14.554 9.441,14.391 9.719,14.065C9.996,13.739 10.135,13.277 10.135,12.678C10.135,12.299 10.076,11.969 9.957,11.686C9.839,11.404 9.665,11.185 9.437,11.029C9.208,10.874 8.952,10.796 8.667,10.796C8.263,10.796 7.916,10.946 7.625,11.245C7.333,11.544 7.188,12.044 7.188,12.745Z" style="fill:white;fill-rule:nonzero;stroke:white;stroke-width:0.45px;"/>
                <path d="M11.851,15.001L11.851,10.348L13.469,10.348C13.798,10.348 14.062,10.396 14.261,10.49C14.46,10.584 14.616,10.729 14.729,10.924C14.842,11.12 14.898,11.325 14.898,11.539C14.898,11.738 14.848,11.925 14.748,12.1C14.648,12.276 14.497,12.418 14.295,12.526C14.556,12.608 14.756,12.749 14.897,12.948C15.037,13.147 15.107,13.382 15.107,13.652C15.107,13.87 15.064,14.073 14.979,14.26C14.894,14.447 14.788,14.592 14.663,14.693C14.537,14.795 14.38,14.872 14.191,14.924C14.001,14.975 13.77,15.001 13.495,15.001L11.851,15.001ZM12.421,12.304L13.354,12.304C13.607,12.304 13.788,12.286 13.898,12.25C14.043,12.203 14.152,12.126 14.226,12.018C14.299,11.91 14.336,11.775 14.336,11.612C14.336,11.457 14.302,11.321 14.233,11.204C14.165,11.086 14.067,11.006 13.939,10.963C13.812,10.919 13.593,10.898 13.283,10.898L12.421,10.898L12.421,12.304ZM12.421,14.452L13.495,14.452C13.679,14.452 13.809,14.445 13.883,14.43C14.015,14.405 14.124,14.362 14.213,14.303C14.301,14.244 14.373,14.158 14.43,14.044C14.487,13.931 14.516,13.801 14.516,13.652C14.516,13.479 14.474,13.328 14.392,13.2C14.31,13.072 14.196,12.982 14.049,12.93C13.903,12.879 13.693,12.853 13.419,12.853L12.421,12.853L12.421,14.452Z" style="fill:white;fill-rule:nonzero;stroke:white;stroke-width:0.45px;"/>
            </g>
        </g>
    </g>
</svg>
