<?xml version="1.0" encoding="UTF-8" standalone="no"?>
<!DOCTYPE svg PUBLIC "-//W3C//DTD SVG 1.1//EN" "http://www.w3.org/Graphics/SVG/1.1/DTD/svg11.dtd">
<svg width="100%" height="100%" viewBox="0 0 16 16" version="1.1" xmlns="http://www.w3.org/2000/svg" xmlns:xlink="http://www.w3.org/1999/xlink" xml:space="preserve" xmlns:serif="http://www.serif.com/" style="fill-rule:evenodd;clip-rule:evenodd;stroke-linejoin:round;stroke-miterlimit:2;">
    <g id="C2">
        <g>
            <g>
                <path d="M7.813,1.307C10.774,1.307 13.177,6.896 13.177,9.857C13.177,12.818 10.774,15.222 7.813,15.222C4.852,15.222 2.448,12.818 2.448,9.857C2.448,6.896 4.852,1.307 7.813,1.307Z" style="fill:rgb(93,206,60);"/>
                <path d="M9.34,3.755C11.676,4.08 12.96,8.754 12.635,11.09C12.311,13.426 10.151,15.059 7.814,14.735C5.478,14.41 3.845,12.25 4.17,9.914C4.494,7.577 7.004,3.43 9.34,3.755Z" style="fill:rgb(144,229,119);"/>
                <path d="M9.962,7.529C11.484,7.937 11.946,11.141 11.538,12.662C11.129,14.183 9.562,15.086 8.041,14.677C6.52,14.268 5.617,12.701 6.026,11.18C6.434,9.659 8.441,7.12 9.962,7.529Z" style="fill:white;"/>
            </g>
            <rect x="7.813" y="9.256" width="8.187" height="6.744" style="fill:rgb(58,158,29);"/>
        </g>
        <path d="M12.115,13.996C12.052,14.098 11.975,14.195 11.885,14.287C11.795,14.378 11.692,14.457 11.574,14.526C11.456,14.594 11.325,14.648 11.183,14.688C11.04,14.728 10.884,14.748 10.715,14.748C10.434,14.748 10.173,14.695 9.934,14.589C9.694,14.482 9.488,14.335 9.316,14.147C9.143,13.959 9.009,13.736 8.912,13.477C8.815,13.219 8.767,12.936 8.767,12.628C8.767,12.32 8.816,12.037 8.915,11.779C9.013,11.521 9.15,11.298 9.324,11.109C9.498,10.921 9.704,10.774 9.942,10.668C10.179,10.561 10.437,10.508 10.715,10.508C10.853,10.508 10.987,10.523 11.119,10.554C11.251,10.584 11.376,10.627 11.492,10.682C11.608,10.737 11.714,10.804 11.809,10.882C11.904,10.959 11.983,11.048 12.046,11.147L11.729,11.397C11.691,11.333 11.639,11.268 11.574,11.203C11.509,11.139 11.432,11.082 11.344,11.033C11.256,10.983 11.16,10.943 11.056,10.913C10.952,10.882 10.84,10.867 10.721,10.867C10.478,10.867 10.26,10.915 10.068,11.01C9.877,11.105 9.714,11.233 9.58,11.394C9.446,11.556 9.344,11.743 9.274,11.956C9.203,12.168 9.168,12.393 9.168,12.628C9.168,12.864 9.204,13.088 9.276,13.301C9.348,13.513 9.451,13.7 9.585,13.862C9.719,14.023 9.882,14.152 10.074,14.247C10.266,14.342 10.481,14.389 10.721,14.389C10.935,14.389 11.14,14.342 11.333,14.247C11.527,14.152 11.689,14 11.819,13.791L12.115,13.996Z" style="fill:white;fill-rule:nonzero;stroke:white;stroke-width:0.4px;"/>
        <path d="M15.046,14.646L12.654,14.646L12.654,14.218L14.185,12.548C14.242,12.488 14.297,12.422 14.352,12.352C14.406,12.282 14.455,12.208 14.497,12.132C14.539,12.056 14.573,11.976 14.597,11.89C14.622,11.805 14.634,11.716 14.634,11.625C14.634,11.507 14.615,11.401 14.576,11.306C14.537,11.211 14.484,11.13 14.415,11.064C14.346,10.997 14.267,10.946 14.177,10.91C14.088,10.874 13.993,10.856 13.895,10.856C13.694,10.856 13.525,10.923 13.388,11.058C13.25,11.193 13.162,11.365 13.124,11.574L12.749,11.494C12.773,11.354 12.82,11.222 12.889,11.101C12.957,10.979 13.042,10.875 13.142,10.787C13.243,10.7 13.356,10.632 13.483,10.582C13.61,10.533 13.747,10.508 13.895,10.508C14.046,10.508 14.19,10.532 14.325,10.579C14.461,10.627 14.58,10.697 14.682,10.79C14.784,10.883 14.866,10.999 14.927,11.138C14.989,11.277 15.02,11.437 15.02,11.62C15.02,11.749 15.003,11.868 14.969,11.979C14.936,12.089 14.892,12.193 14.837,12.292C14.783,12.391 14.719,12.485 14.645,12.574C14.571,12.663 14.493,12.752 14.412,12.839L13.066,14.281L15.046,14.281L15.046,14.646Z" style="fill:white;fill-rule:nonzero;stroke:white;stroke-width:0.4px;"/>
        <rect x="0" y="0" width="16" height="16" style="fill:none;"/>
    </g>
</svg>
