<?xml version="1.0" encoding="UTF-8" standalone="no"?>
<!DOCTYPE svg PUBLIC "-//W3C//DTD SVG 1.1//EN" "http://www.w3.org/Graphics/SVG/1.1/DTD/svg11.dtd">
<svg width="100%" height="100%" viewBox="0 0 512 513" version="1.1" xmlns="http://www.w3.org/2000/svg" xmlns:xlink="http://www.w3.org/1999/xlink" xml:space="preserve" xmlns:serif="http://www.serif.com/" style="fill-rule:evenodd;clip-rule:evenodd;stroke-linejoin:round;stroke-miterlimit:2;">
    <g id="C2">
        <g>
            <g>
                <path d="M250.007,42.227C344.753,42.227 421.674,221.099 421.674,315.844C421.674,410.59 344.753,487.512 250.007,487.512C155.261,487.512 78.339,410.59 78.339,315.844C78.339,221.099 155.261,42.227 250.007,42.227Z" style="fill:rgb(47,170,240);"/>
                <path d="M298.883,120.573C373.641,130.961 414.723,280.532 404.335,355.291C393.946,430.049 324.818,482.309 250.059,471.921C175.301,461.533 123.041,392.404 133.429,317.646C143.817,242.887 224.124,110.184 298.883,120.573Z" style="fill:rgb(121,206,254);"/>
                <path d="M318.799,241.326C367.474,254.412 382.287,356.93 369.202,405.605C356.116,454.279 305.974,483.173 257.299,470.088C208.624,457.002 179.73,406.86 192.816,358.185C205.902,309.51 270.124,228.24 318.799,241.326Z" style="fill:white;"/>
            </g>
            <rect x="250.007" y="296.617" width="261.993" height="215.796" style="fill:rgb(0,129,202);"/>
        </g>
        <path d="M387.679,448.281C385.651,451.564 383.2,454.664 380.327,457.582C377.454,460.5 374.131,463.053 370.356,465.241C366.582,467.429 362.413,469.162 357.85,470.438C353.287,471.715 348.302,472.353 342.894,472.353C333.88,472.353 325.543,470.651 317.882,467.247C310.22,463.843 303.629,459.132 298.109,453.114C292.588,447.096 288.278,439.954 285.18,431.687C282.082,423.42 280.533,414.363 280.533,404.515C280.533,394.668 282.11,385.611 285.265,377.344C288.419,369.077 292.785,361.934 298.362,355.916C303.939,349.898 310.53,345.188 318.135,341.783C325.74,338.379 333.993,336.677 342.894,336.677C347.288,336.677 351.597,337.164 355.822,338.136C360.047,339.109 364.019,340.477 367.737,342.239C371.455,344.002 374.835,346.13 377.877,348.622C380.919,351.114 383.454,353.941 385.482,357.102L375.342,365.125C374.103,363.059 372.441,360.992 370.356,358.925C368.272,356.859 365.822,355.035 363.005,353.454C360.188,351.874 357.118,350.598 353.794,349.625C350.471,348.652 346.893,348.166 343.063,348.166C335.289,348.166 328.332,349.686 322.191,352.725C316.051,355.764 310.84,359.867 306.559,365.034C302.277,370.201 299.01,376.189 296.757,382.997C294.503,389.805 293.377,396.978 293.377,404.515C293.377,412.053 294.531,419.225 296.841,426.034C299.151,432.842 302.446,438.829 306.728,443.996C311.009,449.163 316.22,453.266 322.36,456.305C328.501,459.345 335.401,460.864 343.063,460.864C349.935,460.864 356.47,459.345 362.667,456.305C368.864,453.266 374.046,448.403 378.215,441.716L387.679,448.281Z" style="fill:white;fill-rule:nonzero;stroke:white;stroke-width:12px;"/>
        <path d="M481.474,469.07L404.917,469.07L404.917,455.393L453.927,401.962C455.73,400.017 457.504,397.92 459.251,395.671C460.997,393.422 462.546,391.081 463.898,388.65C465.25,386.218 466.321,383.635 467.109,380.9C467.898,378.164 468.292,375.338 468.292,372.42C468.292,368.651 467.673,365.247 466.433,362.208C465.194,359.168 463.476,356.585 461.279,354.457C459.082,352.33 456.547,350.689 453.674,349.534C450.801,348.379 447.787,347.801 444.632,347.801C438.21,347.801 432.802,349.959 428.408,354.275C424.014,358.591 421.197,364.092 419.958,370.779L407.959,368.226C408.748,363.727 410.241,359.533 412.438,355.643C414.635,351.752 417.339,348.409 420.55,345.613C423.761,342.817 427.394,340.629 431.45,339.048C435.506,337.468 439.9,336.677 444.632,336.677C449.477,336.677 454.068,337.437 458.406,338.957C462.743,340.477 466.546,342.726 469.813,345.704C473.081,348.683 475.7,352.391 477.672,356.828C479.643,361.266 480.629,366.402 480.629,372.237C480.629,376.371 480.094,380.201 479.024,383.726C477.953,387.252 476.545,390.595 474.799,393.756C473.052,396.917 470.996,399.926 468.63,402.783C466.264,405.64 463.786,408.466 461.194,411.262L418.099,457.399L481.474,457.399L481.474,469.07Z" style="fill:white;fill-rule:nonzero;stroke:white;stroke-width:12px;"/>
        <rect x="0" y="0.413" width="512" height="512" style="fill:none;"/>
    </g>
</svg>
