<?xml version="1.0" encoding="UTF-8" standalone="no"?>
<!DOCTYPE svg PUBLIC "-//W3C//DTD SVG 1.1//EN" "http://www.w3.org/Graphics/SVG/1.1/DTD/svg11.dtd">
<svg width="100%" height="100%" viewBox="0 0 512 513" version="1.1" xmlns="http://www.w3.org/2000/svg" xmlns:xlink="http://www.w3.org/1999/xlink" xml:space="preserve" xmlns:serif="http://www.serif.com/" style="fill-rule:evenodd;clip-rule:evenodd;stroke-linejoin:round;stroke-miterlimit:2;">
    <g id="C3">
        <g>
            <g>
                <path d="M250.007,42.227C344.753,42.227 421.674,221.099 421.674,315.844C421.674,410.59 344.753,487.512 250.007,487.512C155.261,487.512 78.339,410.59 78.339,315.844C78.339,221.099 155.261,42.227 250.007,42.227Z" style="fill:rgb(47,170,240);"/>
                <path d="M298.883,120.573C373.641,130.961 414.723,280.532 404.335,355.291C393.946,430.049 324.818,482.309 250.059,471.921C175.301,461.533 123.041,392.404 133.429,317.646C143.817,242.887 224.124,110.184 298.883,120.573Z" style="fill:rgb(121,206,254);"/>
                <path d="M318.799,241.326C367.474,254.412 382.287,356.93 369.202,405.605C356.116,454.279 305.974,483.173 257.299,470.088C208.624,457.002 179.73,406.86 192.816,358.185C205.902,309.51 270.124,228.24 318.799,241.326Z" style="fill:white;"/>
            </g>
            <rect x="250.007" y="296.617" width="261.993" height="215.796" style="fill:rgb(0,129,202);"/>
        </g>
        <path d="M387.679,448.281C385.651,451.564 383.2,454.664 380.327,457.582C377.454,460.5 374.131,463.053 370.356,465.241C366.582,467.429 362.413,469.162 357.85,470.438C353.287,471.715 348.302,472.353 342.894,472.353C333.88,472.353 325.543,470.651 317.882,467.247C310.22,463.843 303.629,459.132 298.109,453.114C292.588,447.096 288.278,439.954 285.18,431.687C282.082,423.42 280.533,414.363 280.533,404.515C280.533,394.668 282.11,385.611 285.265,377.344C288.419,369.077 292.785,361.934 298.362,355.916C303.939,349.898 310.53,345.188 318.135,341.783C325.74,338.379 333.993,336.677 342.894,336.677C347.288,336.677 351.597,337.164 355.822,338.136C360.047,339.109 364.019,340.477 367.737,342.239C371.455,344.002 374.835,346.13 377.877,348.622C380.919,351.114 383.454,353.941 385.482,357.102L375.342,365.125C374.103,363.059 372.441,360.992 370.356,358.925C368.272,356.859 365.822,355.035 363.005,353.454C360.188,351.874 357.118,350.598 353.794,349.625C350.471,348.652 346.893,348.166 343.063,348.166C335.289,348.166 328.332,349.686 322.191,352.725C316.051,355.764 310.84,359.867 306.559,365.034C302.277,370.201 299.01,376.189 296.757,382.997C294.503,389.805 293.377,396.978 293.377,404.515C293.377,412.053 294.531,419.225 296.841,426.034C299.151,432.842 302.446,438.829 306.728,443.996C311.009,449.163 316.22,453.266 322.36,456.305C328.501,459.345 335.401,460.864 343.063,460.864C349.935,460.864 356.47,459.345 362.667,456.305C368.864,453.266 374.046,448.403 378.215,441.716L387.679,448.281Z" style="fill:white;fill-rule:nonzero;stroke:white;stroke-width:12px;"/>
        <path d="M432.464,395.762L437.703,395.762C441.534,395.762 445.139,395.336 448.519,394.485C451.899,393.634 454.857,392.267 457.392,390.382C459.927,388.498 461.927,386.036 463.391,382.997C464.856,379.957 465.588,376.31 465.588,372.055C465.588,368.408 464.969,365.095 463.729,362.117C462.49,359.138 460.772,356.585 458.575,354.457C456.378,352.33 453.843,350.689 450.97,349.534C448.097,348.379 445.083,347.801 441.928,347.801C436.858,347.801 432.38,349.078 428.493,351.631C424.606,354.184 421.479,357.953 419.113,362.937L408.804,357.102C412.522,350.172 417.254,345.036 423,341.692C428.746,338.349 435.281,336.677 442.604,336.677C447.336,336.677 451.815,337.437 456.04,338.957C460.265,340.477 463.983,342.695 467.194,345.613C470.405,348.531 472.94,352.148 474.799,356.463C476.658,360.779 477.587,365.733 477.587,371.326C477.587,378.985 475.616,385.398 471.672,390.565C467.729,395.731 462.772,399.166 456.8,400.868L456.8,401.233C463.673,402.813 469.419,406.369 474.038,411.901C478.658,417.432 480.967,424.575 480.967,433.328C480.967,439.528 479.925,445.029 477.841,449.831C475.756,454.634 472.968,458.706 469.475,462.05C465.983,465.393 461.898,467.946 457.223,469.709C452.547,471.471 447.618,472.353 442.435,472.353C433.647,472.353 425.986,470.073 419.451,465.514C412.916,460.955 407.959,454.421 404.579,445.911L416.071,441.352C418.099,447.552 421.479,452.385 426.211,455.849C430.943,459.314 436.351,461.047 442.435,461.047C445.815,461.047 449.111,460.408 452.322,459.132C455.533,457.855 458.349,456.032 460.772,453.661C463.194,451.29 465.138,448.403 466.602,444.999C468.067,441.595 468.799,437.705 468.799,433.328C468.799,428.465 467.926,424.362 466.18,421.019C464.433,417.675 462.096,414.97 459.166,412.904C456.237,410.837 452.913,409.348 449.195,408.436C445.477,407.524 441.647,407.068 437.703,407.068L432.464,407.068L432.464,395.762Z" style="fill:white;fill-rule:nonzero;stroke:white;stroke-width:12px;"/>
        <rect x="0" y="0.413" width="512" height="512" style="fill:none;"/>
    </g>
</svg>
