<?xml version="1.0" encoding="UTF-8" standalone="no"?>
<!DOCTYPE svg PUBLIC "-//W3C//DTD SVG 1.1//EN" "http://www.w3.org/Graphics/SVG/1.1/DTD/svg11.dtd">
<svg width="100%" height="100%" viewBox="0 0 16 16" version="1.1" xmlns="http://www.w3.org/2000/svg" xmlns:xlink="http://www.w3.org/1999/xlink" xml:space="preserve" xmlns:serif="http://www.serif.com/" style="fill-rule:evenodd;clip-rule:evenodd;stroke-linejoin:round;stroke-miterlimit:2;">
    <g id="C3">
        <g>
            <path d="M7.813,1.307C10.774,1.307 13.177,6.896 13.177,9.857C13.177,12.818 10.774,15.222 7.813,15.222C4.852,15.222 2.448,12.818 2.448,9.857C2.448,6.896 4.852,1.307 7.813,1.307Z" style="fill:rgb(240,47,64);"/>
            <path d="M9.34,3.755C11.676,4.08 12.96,8.754 12.635,11.09C12.311,13.426 10.151,15.059 7.814,14.735C5.478,14.41 3.845,12.25 4.17,9.914C4.494,7.577 7.004,3.43 9.34,3.755Z" style="fill:rgb(254,121,133);"/>
            <path d="M9.962,7.529C11.484,7.937 11.946,11.141 11.538,12.662C11.129,14.183 9.562,15.086 8.041,14.677C6.52,14.268 5.617,12.701 6.026,11.18C6.434,9.659 8.441,7.12 9.962,7.529Z" style="fill:white;"/>
        </g>
        <rect x="7.813" y="9.256" width="8.187" height="6.744" style="fill:rgb(202,0,18);"/>
        <path d="M12.115,13.996C12.052,14.098 11.975,14.195 11.885,14.287C11.795,14.378 11.692,14.457 11.574,14.526C11.456,14.594 11.325,14.648 11.183,14.688C11.04,14.728 10.884,14.748 10.715,14.748C10.434,14.748 10.173,14.695 9.934,14.589C9.694,14.482 9.488,14.335 9.316,14.147C9.143,13.959 9.009,13.736 8.912,13.477C8.815,13.219 8.767,12.936 8.767,12.628C8.767,12.32 8.816,12.037 8.915,11.779C9.013,11.521 9.15,11.298 9.324,11.109C9.498,10.921 9.704,10.774 9.942,10.668C10.179,10.561 10.437,10.508 10.715,10.508C10.853,10.508 10.987,10.523 11.119,10.554C11.251,10.584 11.376,10.627 11.492,10.682C11.608,10.737 11.714,10.804 11.809,10.882C11.904,10.959 11.983,11.048 12.046,11.147L11.729,11.397C11.691,11.333 11.639,11.268 11.574,11.203C11.509,11.139 11.432,11.082 11.344,11.033C11.256,10.983 11.16,10.943 11.056,10.913C10.952,10.882 10.84,10.867 10.721,10.867C10.478,10.867 10.26,10.915 10.068,11.01C9.877,11.105 9.714,11.233 9.58,11.394C9.446,11.556 9.344,11.743 9.274,11.956C9.203,12.168 9.168,12.393 9.168,12.628C9.168,12.864 9.204,13.088 9.276,13.301C9.348,13.513 9.451,13.7 9.585,13.862C9.719,14.023 9.882,14.152 10.074,14.247C10.266,14.342 10.481,14.389 10.721,14.389C10.935,14.389 11.14,14.342 11.333,14.247C11.527,14.152 11.689,14 11.819,13.791L12.115,13.996Z" style="fill:white;fill-rule:nonzero;stroke:white;stroke-width:0.4px;"/>
        <path d="M13.515,12.355L13.678,12.355C13.798,12.355 13.911,12.341 14.016,12.315C14.122,12.288 14.214,12.245 14.293,12.187C14.373,12.128 14.435,12.051 14.481,11.956C14.527,11.861 14.55,11.747 14.55,11.614C14.55,11.5 14.53,11.396 14.492,11.303C14.453,11.21 14.399,11.13 14.33,11.064C14.262,10.997 14.183,10.946 14.093,10.91C14.003,10.874 13.909,10.856 13.81,10.856C13.652,10.856 13.512,10.896 13.39,10.976C13.269,11.055 13.171,11.173 13.097,11.329L12.775,11.147C12.891,10.93 13.039,10.769 13.219,10.665C13.398,10.56 13.603,10.508 13.831,10.508C13.979,10.508 14.119,10.532 14.251,10.579C14.383,10.627 14.499,10.696 14.6,10.787C14.7,10.879 14.779,10.992 14.837,11.127C14.896,11.261 14.925,11.416 14.925,11.591C14.925,11.83 14.863,12.031 14.74,12.192C14.617,12.354 14.462,12.461 14.275,12.514L14.275,12.526C14.49,12.575 14.669,12.686 14.814,12.859C14.958,13.032 15.03,13.255 15.03,13.529C15.03,13.722 14.998,13.894 14.933,14.044C14.867,14.194 14.78,14.322 14.671,14.426C14.562,14.531 14.434,14.61 14.288,14.665C14.142,14.721 13.988,14.748 13.826,14.748C13.551,14.748 13.312,14.677 13.108,14.534C12.904,14.392 12.749,14.188 12.643,13.922L13.002,13.779C13.066,13.973 13.171,14.124 13.319,14.232C13.467,14.341 13.636,14.395 13.826,14.395C13.932,14.395 14.035,14.375 14.135,14.335C14.235,14.295 14.323,14.238 14.399,14.164C14.475,14.09 14.536,14 14.581,13.893C14.627,13.787 14.65,13.665 14.65,13.529C14.65,13.377 14.623,13.248 14.568,13.144C14.514,13.039 14.44,12.955 14.349,12.89C14.257,12.826 14.154,12.779 14.037,12.751C13.921,12.722 13.801,12.708 13.678,12.708L13.515,12.708L13.515,12.355Z" style="fill:white;fill-rule:nonzero;stroke:white;stroke-width:0.4px;"/>
        <rect x="0" y="-0" width="16" height="16" style="fill:none;"/>
    </g>
</svg>
