<?xml version="1.0" encoding="UTF-8" standalone="no"?>
<!DOCTYPE svg PUBLIC "-//W3C//DTD SVG 1.1//EN" "http://www.w3.org/Graphics/SVG/1.1/DTD/svg11.dtd">
<svg width="100%" height="100%" viewBox="0 0 16 16" version="1.1" xmlns="http://www.w3.org/2000/svg" xmlns:xlink="http://www.w3.org/1999/xlink" xml:space="preserve" xmlns:serif="http://www.serif.com/" style="fill-rule:evenodd;clip-rule:evenodd;stroke-linejoin:round;stroke-miterlimit:2;">
    <rect id="Doc-Icons-V2" serif:id="Doc Icons-V2" x="0" y="0" width="16" height="16" style="fill:none;"/>
    <clipPath id="_clip1">
        <rect x="0" y="0" width="16" height="16"/>
    </clipPath>
    <g clip-path="url(#_clip1)">
        <rect x="2.999" y="0.946" width="10.207" height="7.054" style="fill:none;"/>
        <clipPath id="_clip2">
            <rect x="2.999" y="0.946" width="10.207" height="7.054"/>
        </clipPath>
        <g clip-path="url(#_clip2)">
            <g id="DocIcon--Symbol-" serif:id="DocIcon (Symbol)">
                <path d="M13.064,15.999L2.999,15.999L2.999,5.978L8.032,5.978L8.032,0.946L13.064,0.946L13.064,15.999ZM7.03,4.976L2.999,4.976L2.999,4.974L7.03,0.974L7.03,4.976Z" style="fill:rgb(135,147,154);"/>
            </g>
        </g>
        <rect x="0.846" y="8.839" width="16" height="7.416" style="fill:rgb(190,30,0);"/>
        <g id="Text">
            <path d="M4.13,15.099C3.247,15.099 2.614,14.799 2.238,14.183C2.002,13.785 1.883,13.275 1.883,12.659C1.883,11.856 2.085,11.196 2.496,10.7C2.899,10.228 3.483,9.987 4.221,9.987C4.548,9.987 4.937,10.047 5.375,10.145L5.375,10.993L5.236,10.993L4.548,10.453C4.436,10.378 4.304,10.34 4.165,10.34C3.685,10.34 3.309,10.535 3.052,10.918C2.795,11.338 2.656,11.886 2.656,12.554C2.656,13.095 2.746,13.545 2.892,13.898C3.142,14.468 3.574,14.754 4.158,14.754C4.304,14.754 4.443,14.716 4.554,14.641L5.243,14.101L5.382,14.101L5.382,14.941C4.93,15.039 4.513,15.099 4.13,15.099Z" style="fill:white;fill-rule:nonzero;stroke:white;stroke-width:0.45px;"/>
            <path d="M6.725,12.547C6.725,11.909 6.857,11.361 7.114,10.918C7.497,10.303 8.046,9.987 8.749,9.987C9.445,9.987 10.001,10.303 10.377,10.918C10.634,11.361 10.773,11.909 10.773,12.547C10.773,13.185 10.634,13.733 10.377,14.176C10.001,14.791 9.445,15.099 8.749,15.099C8.046,15.099 7.497,14.791 7.114,14.176C6.857,13.733 6.725,13.185 6.725,12.547ZM10.001,12.547C9.987,11.901 9.883,11.391 9.702,11.031C9.465,10.58 9.138,10.363 8.7,10.37C8.269,10.378 7.942,10.618 7.726,11.076C7.566,11.436 7.483,11.961 7.497,12.607C7.504,13.252 7.608,13.763 7.789,14.123C8.019,14.566 8.352,14.791 8.791,14.784C9.222,14.776 9.549,14.528 9.758,14.078C9.924,13.71 10.008,13.192 10.001,12.547Z" style="fill:white;fill-rule:nonzero;stroke:white;stroke-width:0.45px;"/>
            <path d="M12.547,12.021C12.345,11.811 12.241,11.526 12.241,11.173C12.241,10.836 12.373,10.543 12.63,10.31C12.888,10.1 13.235,9.987 13.653,9.987C13.889,9.987 14.272,10.047 14.78,10.16L14.78,11.008L14.641,11.008L13.966,10.46C13.834,10.385 13.702,10.34 13.59,10.34C13.34,10.34 13.131,10.408 12.999,10.535C12.888,10.655 12.825,10.791 12.825,10.941C12.825,11.203 12.929,11.398 13.131,11.519C13.18,11.549 13.242,11.586 13.312,11.616C13.382,11.646 13.458,11.691 13.549,11.729C14.147,12.014 14.557,12.299 14.759,12.562C14.947,12.81 15.051,13.14 15.051,13.538C15.051,14.026 14.891,14.416 14.592,14.694C14.286,14.964 13.848,15.099 13.277,15.099C13.124,15.099 12.957,15.084 12.783,15.054C12.602,15.031 12.401,14.994 12.185,14.941L12.185,14.101L12.317,14.101L13.013,14.641C13.11,14.716 13.208,14.754 13.319,14.754C13.98,14.724 14.314,14.386 14.314,13.755C14.314,13.463 14.23,13.215 14.063,13.027C13.952,12.915 13.729,12.765 13.43,12.614C13.048,12.419 12.749,12.217 12.547,12.021Z" style="fill:white;fill-rule:nonzero;stroke:white;stroke-width:0.45px;"/>
        </g>
    </g>
</svg>
