<?xml version="1.0" encoding="UTF-8" standalone="no"?>
<!DOCTYPE svg PUBLIC "-//W3C//DTD SVG 1.1//EN" "http://www.w3.org/Graphics/SVG/1.1/DTD/svg11.dtd">
<svg width="100%" height="100%" viewBox="0 0 16 16" version="1.1" xmlns="http://www.w3.org/2000/svg" xmlns:xlink="http://www.w3.org/1999/xlink" xml:space="preserve" xmlns:serif="http://www.serif.com/" style="fill-rule:evenodd;clip-rule:evenodd;stroke-linejoin:round;stroke-miterlimit:2;">
    <rect id="Doc-Icons-V2" serif:id="Doc Icons-V2" x="0" y="0" width="16" height="16" style="fill:none;"/>
    <clipPath id="_clip1">
        <rect x="0" y="0" width="16" height="16"/>
    </clipPath>
    <g clip-path="url(#_clip1)">
        <g id="TypeDef--Light-Doc-Icon" serif:id="TypeDef- Light Doc Icon">
        </g>
        <rect x="2.999" y="0.635" width="10.207" height="7.054" style="fill:none;"/>
        <clipPath id="_clip2">
            <rect x="2.999" y="0.635" width="10.207" height="7.054"/>
        </clipPath>
        <g clip-path="url(#_clip2)">
            <g id="DocIcon--Symbol-" serif:id="DocIcon (Symbol)">
                <path d="M13.064,15.688L2.999,15.688L2.999,5.668L8.032,5.668L8.032,0.635L13.064,0.635L13.064,15.688ZM7.03,4.666L2.999,4.666L2.999,4.664L7.03,0.663L7.03,4.666Z" style="fill:rgb(135,147,154);"/>
            </g>
        </g>
        <rect x="0.846" y="8.528" width="16" height="7.416" style="fill:rgb(47,170,240);fill-opacity:0.7;"/>
        <g id="Text" opacity="0.77">
            <path d="M5.084,13.059L5.655,13.215C5.535,13.72 5.32,14.106 5.009,14.371C4.698,14.637 4.318,14.77 3.869,14.77C3.404,14.77 3.026,14.668 2.735,14.463C2.444,14.259 2.222,13.964 2.071,13.576C1.919,13.189 1.843,12.773 1.843,12.329C1.843,11.845 1.928,11.422 2.1,11.061C2.272,10.7 2.516,10.426 2.832,10.239C3.149,10.052 3.498,9.958 3.878,9.958C4.309,9.958 4.672,10.077 4.966,10.314C5.26,10.551 5.465,10.884 5.581,11.313L5.019,11.456C4.919,11.118 4.774,10.871 4.584,10.717C4.394,10.562 4.154,10.485 3.866,10.485C3.535,10.485 3.258,10.571 3.035,10.742C2.813,10.914 2.656,11.144 2.566,11.432C2.476,11.721 2.431,12.019 2.431,12.326C2.431,12.722 2.484,13.067 2.591,13.362C2.698,13.657 2.864,13.878 3.09,14.024C3.315,14.17 3.559,14.243 3.822,14.243C4.142,14.243 4.412,14.143 4.634,13.945C4.855,13.746 5.005,13.451 5.084,13.059Z" style="fill:white;fill-rule:nonzero;stroke:white;stroke-width:0.45px;"/>
            <path d="M6.786,12.424C6.786,11.652 6.979,11.047 7.363,10.61C7.747,10.174 8.243,9.955 8.851,9.955C9.249,9.955 9.608,10.058 9.928,10.263C10.247,10.468 10.491,10.754 10.659,11.121C10.826,11.489 10.91,11.905 10.91,12.37C10.91,12.842 10.822,13.264 10.645,13.637C10.469,14.009 10.219,14.291 9.895,14.483C9.572,14.674 9.223,14.77 8.848,14.77C8.442,14.77 8.08,14.664 7.76,14.452C7.44,14.241 7.198,13.952 7.033,13.586C6.869,13.22 6.786,12.833 6.786,12.424ZM7.375,12.434C7.375,12.995 7.514,13.436 7.794,13.759C8.073,14.082 8.424,14.243 8.845,14.243C9.275,14.243 9.628,14.08 9.906,13.754C10.183,13.428 10.322,12.966 10.322,12.367C10.322,11.988 10.263,11.658 10.144,11.375C10.025,11.093 9.852,10.874 9.623,10.718C9.395,10.563 9.138,10.485 8.854,10.485C8.45,10.485 8.103,10.635 7.811,10.934C7.52,11.234 7.375,11.733 7.375,12.434Z" style="fill:white;fill-rule:nonzero;stroke:white;stroke-width:0.45px;"/>
            <path d="M12.054,13.196L12.592,13.145C12.617,13.378 12.677,13.568 12.77,13.718C12.863,13.867 13.008,13.987 13.204,14.079C13.4,14.171 13.62,14.218 13.866,14.218C14.083,14.218 14.275,14.183 14.442,14.113C14.609,14.043 14.733,13.947 14.814,13.826C14.895,13.704 14.936,13.571 14.936,13.427C14.936,13.281 14.897,13.154 14.819,13.045C14.74,12.936 14.611,12.844 14.43,12.77C14.315,12.722 14.059,12.646 13.663,12.543C13.266,12.441 12.989,12.344 12.83,12.253C12.624,12.137 12.471,11.992 12.37,11.82C12.269,11.647 12.218,11.454 12.218,11.24C12.218,11.006 12.28,10.786 12.404,10.582C12.527,10.378 12.708,10.223 12.945,10.117C13.182,10.011 13.446,9.958 13.736,9.958C14.056,9.958 14.338,10.014 14.582,10.125C14.826,10.236 15.014,10.399 15.145,10.615C15.276,10.831 15.347,11.075 15.357,11.348L14.81,11.393C14.78,11.099 14.681,10.877 14.511,10.726C14.342,10.576 14.091,10.501 13.76,10.501C13.415,10.501 13.163,10.569 13.005,10.706C12.847,10.842 12.768,11.007 12.768,11.199C12.768,11.366 12.824,11.504 12.936,11.612C13.046,11.72 13.333,11.83 13.796,11.943C14.26,12.057 14.578,12.156 14.751,12.24C15.002,12.365 15.187,12.523 15.307,12.715C15.426,12.906 15.486,13.127 15.486,13.376C15.486,13.624 15.421,13.857 15.289,14.076C15.158,14.295 14.969,14.466 14.723,14.587C14.477,14.709 14.2,14.77 13.892,14.77C13.502,14.77 13.175,14.708 12.911,14.586C12.647,14.463 12.44,14.278 12.29,14.032C12.14,13.785 12.062,13.507 12.054,13.196Z" style="fill:white;fill-rule:nonzero;stroke:white;stroke-width:0.45px;"/>
        </g>
    </g>
</svg>
