<?xml version="1.0" encoding="UTF-8" standalone="no"?>
<!DOCTYPE svg PUBLIC "-//W3C//DTD SVG 1.1//EN" "http://www.w3.org/Graphics/SVG/1.1/DTD/svg11.dtd">
<svg width="100%" height="100%" viewBox="0 0 512 513" version="1.1" xmlns="http://www.w3.org/2000/svg" xmlns:xlink="http://www.w3.org/1999/xlink" xml:space="preserve" xmlns:serif="http://www.serif.com/" style="fill-rule:evenodd;clip-rule:evenodd;stroke-linejoin:round;stroke-miterlimit:2;">
    <g id="CV">
        <g>
            <g>
                <path d="M250.007,42.227C344.753,42.227 421.674,221.099 421.674,315.844C421.674,410.59 344.753,487.512 250.007,487.512C155.261,487.512 78.339,410.59 78.339,315.844C78.339,221.099 155.261,42.227 250.007,42.227Z" style="fill:rgb(47,170,240);"/>
                <path d="M298.883,120.573C373.641,130.961 414.723,280.532 404.335,355.291C393.946,430.049 324.818,482.309 250.059,471.921C175.301,461.533 123.041,392.404 133.429,317.646C143.817,242.887 224.124,110.184 298.883,120.573Z" style="fill:rgb(121,206,254);"/>
                <path d="M318.799,241.326C367.474,254.412 382.287,356.93 369.202,405.605C356.116,454.279 305.974,483.173 257.299,470.088C208.624,457.002 179.73,406.86 192.816,358.185C205.902,309.51 270.124,228.24 318.799,241.326Z" style="fill:white;"/>
            </g>
            <rect x="250.007" y="296.617" width="261.993" height="215.796" style="fill:rgb(0,129,202);"/>
        </g>
        <path d="M384.045,448.281C382.017,451.564 379.567,454.664 376.694,457.582C373.821,460.5 370.497,463.053 366.723,465.241C362.949,467.429 358.78,469.162 354.217,470.438C349.654,471.715 344.668,472.353 339.26,472.353C330.247,472.353 321.91,470.651 314.248,467.247C306.587,463.843 299.996,459.132 294.475,453.114C288.954,447.096 284.645,439.954 281.547,431.687C278.448,423.42 276.899,414.363 276.899,404.515C276.899,394.668 278.476,385.611 281.631,377.344C284.786,369.077 289.152,361.934 294.729,355.916C300.306,349.898 306.897,345.188 314.502,341.783C322.107,338.379 330.36,336.677 339.26,336.677C343.654,336.677 347.964,337.164 352.189,338.136C356.414,339.109 360.385,340.477 364.103,342.239C367.821,344.002 371.201,346.13 374.243,348.622C377.285,351.114 379.82,353.941 381.848,357.102L371.708,365.125C370.469,363.059 368.807,360.992 366.723,358.925C364.639,356.859 362.188,355.035 359.371,353.454C356.555,351.874 353.484,350.598 350.161,349.625C346.837,348.652 343.26,348.166 339.429,348.166C331.655,348.166 324.698,349.686 318.558,352.725C312.417,355.764 307.206,359.867 302.925,365.034C298.644,370.201 295.376,376.189 293.123,382.997C290.87,389.805 289.743,396.978 289.743,404.515C289.743,412.053 290.898,419.225 293.208,426.034C295.517,432.842 298.813,438.829 303.094,443.996C307.375,449.163 312.586,453.266 318.727,456.305C324.867,459.345 331.768,460.864 339.429,460.864C346.302,460.864 352.837,459.345 359.033,456.305C365.23,453.266 370.413,448.403 374.581,441.716L384.045,448.281Z" style="fill:white;fill-rule:nonzero;stroke:white;stroke-width:12px;"/>
        <path d="M445.224,452.111L445.562,452.111L484.432,339.96L497.445,339.96L451.646,469.07L438.802,469.07L393.171,339.96L406.354,339.96L445.224,452.111Z" style="fill:white;fill-rule:nonzero;stroke:white;stroke-width:12px;"/>
        <rect x="0" y="0.413" width="512" height="512" style="fill:none;"/>
    </g>
</svg>
