<?xml version="1.0" encoding="UTF-8" standalone="no"?>
<!DOCTYPE svg PUBLIC "-//W3C//DTD SVG 1.1//EN" "http://www.w3.org/Graphics/SVG/1.1/DTD/svg11.dtd">
<svg width="100%" height="100%" viewBox="0 0 16 16" version="1.1" xmlns="http://www.w3.org/2000/svg" xmlns:xlink="http://www.w3.org/1999/xlink" xml:space="preserve" xmlns:serif="http://www.serif.com/" style="fill-rule:evenodd;clip-rule:evenodd;stroke-linejoin:round;stroke-miterlimit:2;">
    <g id="CV_dark">
        <g>
            <path d="M7.813,1.307C10.774,1.307 13.177,6.896 13.177,9.857C13.177,12.818 10.774,15.222 7.813,15.222C4.852,15.222 2.448,12.818 2.448,9.857C2.448,6.896 4.852,1.307 7.813,1.307Z" style="fill:rgb(240,47,222);"/>
            <path d="M9.34,3.755C11.676,4.08 12.96,8.754 12.635,11.09C12.311,13.426 10.151,15.059 7.814,14.735C5.478,14.41 3.845,12.25 4.17,9.914C4.494,7.577 7.004,3.43 9.34,3.755Z" style="fill:rgb(254,121,242);"/>
            <path d="M9.962,7.529C11.484,7.937 11.946,11.141 11.538,12.662C11.129,14.183 9.562,15.086 8.041,14.677C6.52,14.268 5.617,12.701 6.026,11.18C6.434,9.659 8.441,7.12 9.962,7.529Z" style="fill:white;"/>
        </g>
        <rect x="7.813" y="9.256" width="8.187" height="6.744" style="fill:rgb(202,0,184);"/>
        <g opacity="0.95">
            <path d="M12.001,13.996C11.938,14.098 11.861,14.195 11.772,14.287C11.682,14.378 11.578,14.457 11.46,14.526C11.342,14.594 11.212,14.648 11.069,14.688C10.927,14.728 10.771,14.748 10.602,14.748C10.32,14.748 10.06,14.695 9.82,14.589C9.581,14.482 9.375,14.335 9.202,14.147C9.03,13.959 8.895,13.736 8.798,13.477C8.702,13.219 8.653,12.936 8.653,12.628C8.653,12.32 8.702,12.037 8.801,11.779C8.9,11.521 9.036,11.298 9.21,11.109C9.385,10.921 9.591,10.774 9.828,10.668C10.066,10.561 10.324,10.508 10.602,10.508C10.739,10.508 10.874,10.523 11.006,10.554C11.138,10.584 11.262,10.627 11.378,10.682C11.494,10.737 11.6,10.804 11.695,10.882C11.79,10.959 11.869,11.048 11.933,11.147L11.616,11.397C11.577,11.333 11.525,11.268 11.46,11.203C11.395,11.139 11.318,11.082 11.23,11.033C11.142,10.983 11.046,10.943 10.943,10.913C10.839,10.882 10.727,10.867 10.607,10.867C10.364,10.867 10.147,10.915 9.955,11.01C9.763,11.105 9.6,11.233 9.466,11.394C9.333,11.556 9.231,11.743 9.16,11.956C9.09,12.168 9.054,12.393 9.054,12.628C9.054,12.864 9.091,13.088 9.163,13.301C9.235,13.513 9.338,13.7 9.472,13.862C9.605,14.023 9.768,14.152 9.96,14.247C10.152,14.342 10.368,14.389 10.607,14.389C10.822,14.389 11.026,14.342 11.22,14.247C11.413,14.152 11.575,14 11.706,13.791L12.001,13.996Z" style="fill:white;fill-rule:nonzero;stroke:white;stroke-width:0.4px;"/>
            <path d="M13.913,14.116L13.924,14.116L15.138,10.611L15.545,10.611L14.114,14.646L13.713,14.646L12.287,10.611L12.699,10.611L13.913,14.116Z" style="fill:white;fill-rule:nonzero;stroke:white;stroke-width:0.4px;"/>
        </g>
        <rect x="0" y="0" width="16" height="16" style="fill:none;"/>
    </g>
</svg>
