<?xml version="1.0" encoding="UTF-8" standalone="no"?>
<!DOCTYPE svg PUBLIC "-//W3C//DTD SVG 1.1//EN" "http://www.w3.org/Graphics/SVG/1.1/DTD/svg11.dtd">
<svg width="100%" height="100%" viewBox="0 0 512 513" version="1.1" xmlns="http://www.w3.org/2000/svg" xmlns:xlink="http://www.w3.org/1999/xlink" xml:space="preserve" xmlns:serif="http://www.serif.com/" style="fill-rule:evenodd;clip-rule:evenodd;stroke-linejoin:round;stroke-miterlimit:2;">
    <g id="DS">
        <g>
            <g>
                <path d="M250.007,42.227C344.753,42.227 421.674,221.099 421.674,315.844C421.674,410.59 344.753,487.512 250.007,487.512C155.261,487.512 78.339,410.59 78.339,315.844C78.339,221.099 155.261,42.227 250.007,42.227Z" style="fill:rgb(47,170,240);"/>
                <path d="M298.883,120.573C373.641,130.961 414.723,280.532 404.335,355.291C393.946,430.049 324.818,482.309 250.059,471.921C175.301,461.533 123.041,392.404 133.429,317.646C143.817,242.887 224.124,110.184 298.883,120.573Z" style="fill:rgb(121,206,254);"/>
                <path d="M318.799,241.326C367.474,254.412 382.287,356.93 369.202,405.605C356.116,454.279 305.974,483.173 257.299,470.088C208.624,457.002 179.73,406.86 192.816,358.185C205.902,309.51 270.124,228.24 318.799,241.326Z" style="fill:white;"/>
            </g>
            <rect x="250.007" y="296.617" width="261.993" height="215.796" style="fill:rgb(0,129,202);"/>
        </g>
        <path d="M285.18,339.96L324.895,339.96C332.331,339.96 339.795,341.297 347.288,343.972C354.78,346.646 361.54,350.689 367.568,356.099C373.596,361.509 378.468,368.256 382.186,376.341C385.904,384.425 387.763,393.817 387.763,404.515C387.763,415.335 385.904,424.757 382.186,432.781C378.468,440.805 373.596,447.522 367.568,452.932C361.54,458.342 354.78,462.384 347.288,465.058C339.795,467.733 332.331,469.07 324.895,469.07L285.18,469.07L285.18,339.96ZM297.348,457.399L321.515,457.399C330.529,457.399 338.387,455.88 345.091,452.84C351.794,449.801 357.343,445.82 361.737,440.896C366.131,435.972 369.427,430.349 371.624,424.028C373.821,417.706 374.919,411.202 374.919,404.515C374.919,397.829 373.821,391.324 371.624,385.003C369.427,378.681 366.131,373.058 361.737,368.134C357.343,363.211 351.794,359.229 345.091,356.19C338.387,353.151 330.529,351.631 321.515,351.631L297.348,351.631L297.348,457.399Z" style="fill:white;fill-rule:nonzero;stroke:white;stroke-width:12px;"/>
        <path d="M474.63,360.749C472.038,356.859 468.715,353.728 464.659,351.357C460.603,348.987 455.702,347.801 449.956,347.801C447.026,347.801 444.041,348.288 440.999,349.26C437.957,350.233 435.196,351.722 432.718,353.728C430.239,355.734 428.239,358.257 426.718,361.296C425.197,364.335 424.437,367.922 424.437,372.055C424.437,376.189 425.169,379.593 426.634,382.267C428.098,384.942 430.042,387.221 432.464,389.106C434.886,390.99 437.647,392.54 440.745,393.756C443.844,394.972 447.083,396.187 450.463,397.403C454.631,398.862 458.828,400.442 463.053,402.144C467.278,403.846 471.081,406.065 474.461,408.801C477.841,411.536 480.601,415.001 482.742,419.195C484.883,423.389 485.953,428.708 485.953,435.152C485.953,441.595 484.798,447.157 482.488,451.837C480.179,456.518 477.193,460.378 473.531,463.417C469.87,466.457 465.701,468.706 461.025,470.165C456.35,471.623 451.646,472.353 446.914,472.353C443.308,472.353 439.703,471.958 436.098,471.168C432.492,470.377 429.056,469.192 425.789,467.612C422.521,466.031 419.479,464.025 416.663,461.594C413.846,459.162 411.367,456.366 409.227,453.205L419.705,444.817C422.296,449.436 425.929,453.296 430.605,456.396C435.281,459.497 440.773,461.047 447.083,461.047C450.125,461.047 453.223,460.53 456.378,459.497C459.532,458.463 462.377,456.883 464.912,454.755C467.447,452.628 469.532,450.014 471.165,446.914C472.799,443.814 473.616,440.197 473.616,436.063C473.616,431.565 472.799,427.827 471.165,424.848C469.532,421.87 467.363,419.377 464.659,417.371C461.955,415.366 458.856,413.694 455.364,412.357C451.871,411.019 448.209,409.682 444.379,408.345C440.435,407.007 436.548,405.488 432.718,403.786C428.887,402.084 425.451,399.865 422.409,397.13C419.367,394.394 416.916,391.021 415.057,387.009C413.198,382.997 412.269,378.073 412.269,372.237C412.269,366.037 413.423,360.688 415.733,356.19C418.043,351.692 421.057,347.984 424.775,345.066C428.493,342.148 432.605,340.021 437.112,338.683C441.618,337.346 446.069,336.677 450.463,336.677C458.575,336.677 465.504,338.227 471.25,341.328C476.996,344.428 481.333,348.105 484.263,352.36L474.63,360.749Z" style="fill:white;fill-rule:nonzero;stroke:white;stroke-width:12px;"/>
        <rect x="0" y="0.413" width="512" height="512" style="fill:none;"/>
    </g>
</svg>
