<?xml version="1.0" encoding="UTF-8" standalone="no"?>
<!DOCTYPE svg PUBLIC "-//W3C//DTD SVG 1.1//EN" "http://www.w3.org/Graphics/SVG/1.1/DTD/svg11.dtd">
<svg width="100%" height="100%" viewBox="0 0 16 16" version="1.1" xmlns="http://www.w3.org/2000/svg" xmlns:xlink="http://www.w3.org/1999/xlink" xml:space="preserve" xmlns:serif="http://www.serif.com/" style="fill-rule:evenodd;clip-rule:evenodd;stroke-linejoin:round;stroke-miterlimit:2;">
    <g id="DS_dark">
        <g>
            <path d="M7.813,1.307C10.774,1.307 13.177,6.896 13.177,9.857C13.177,12.818 10.774,15.222 7.813,15.222C4.852,15.222 2.448,12.818 2.448,9.857C2.448,6.896 4.852,1.307 7.813,1.307Z" style="fill:rgb(88,58,227);"/>
            <path d="M9.34,3.755C11.676,4.08 12.96,8.754 12.635,11.09C12.311,13.426 10.151,15.059 7.814,14.735C5.478,14.41 3.845,12.25 4.17,9.914C4.494,7.577 7.004,3.43 9.34,3.755Z" style="fill:rgb(148,128,245);"/>
            <path d="M9.962,7.529C11.484,7.937 11.946,11.141 11.538,12.662C11.129,14.183 9.562,15.086 8.041,14.677C6.52,14.268 5.617,12.701 6.026,11.18C6.434,9.659 8.441,7.12 9.962,7.529Z" style="fill:white;"/>
        </g>
        <rect x="7.813" y="9.256" width="8.187" height="6.744" style="fill:rgb(88,58,227);"/>
        <g opacity="0.95">
            <path d="M8.912,10.611L10.153,10.611C10.385,10.611 10.619,10.653 10.853,10.736C11.087,10.82 11.298,10.946 11.486,11.115C11.675,11.284 11.827,11.495 11.943,11.748C12.06,12 12.118,12.294 12.118,12.628C12.118,12.966 12.06,13.261 11.943,13.511C11.827,13.762 11.675,13.972 11.486,14.141C11.298,14.31 11.087,14.437 10.853,14.52C10.619,14.604 10.385,14.646 10.153,14.646L8.912,14.646L8.912,10.611ZM9.292,14.281L10.047,14.281C10.329,14.281 10.575,14.233 10.784,14.138C10.994,14.043 11.167,13.919 11.304,13.765C11.442,13.611 11.545,13.436 11.613,13.238C11.682,13.04 11.716,12.837 11.716,12.628C11.716,12.419 11.682,12.216 11.613,12.018C11.545,11.821 11.442,11.645 11.304,11.491C11.167,11.337 10.994,11.213 10.784,11.118C10.575,11.023 10.329,10.976 10.047,10.976L9.292,10.976L9.292,14.281Z" style="fill:white;fill-rule:nonzero;stroke:white;stroke-width:0.39px;"/>
            <path d="M14.832,11.26C14.751,11.139 14.647,11.041 14.521,10.967C14.394,10.893 14.241,10.856 14.061,10.856C13.97,10.856 13.876,10.871 13.781,10.901C13.686,10.932 13.6,10.978 13.522,11.041C13.445,11.104 13.382,11.183 13.335,11.278C13.287,11.373 13.264,11.485 13.264,11.614C13.264,11.743 13.287,11.849 13.332,11.933C13.378,12.017 13.439,12.088 13.515,12.147C13.59,12.206 13.676,12.254 13.773,12.292C13.87,12.33 13.971,12.368 14.077,12.406C14.207,12.452 14.338,12.501 14.47,12.554C14.602,12.607 14.721,12.677 14.827,12.762C14.933,12.848 15.019,12.956 15.086,13.087C15.153,13.218 15.186,13.384 15.186,13.586C15.186,13.787 15.15,13.961 15.078,14.107C15.006,14.253 14.912,14.374 14.798,14.469C14.683,14.564 14.553,14.634 14.407,14.68C14.261,14.725 14.114,14.748 13.966,14.748C13.853,14.748 13.741,14.736 13.628,14.711C13.515,14.686 13.408,14.649 13.306,14.6C13.204,14.551 13.109,14.488 13.021,14.412C12.933,14.336 12.855,14.249 12.788,14.15L13.116,13.888C13.197,14.032 13.31,14.153 13.456,14.249C13.603,14.346 13.774,14.395 13.971,14.395C14.066,14.395 14.163,14.379 14.262,14.346C14.36,14.314 14.449,14.265 14.529,14.198C14.608,14.132 14.673,14.05 14.724,13.953C14.775,13.856 14.8,13.743 14.8,13.614C14.8,13.473 14.775,13.357 14.724,13.264C14.673,13.171 14.605,13.093 14.521,13.03C14.436,12.967 14.339,12.915 14.23,12.873C14.121,12.831 14.007,12.79 13.887,12.748C13.764,12.706 13.642,12.659 13.522,12.605C13.403,12.552 13.295,12.483 13.2,12.397C13.105,12.312 13.029,12.206 12.971,12.081C12.912,11.956 12.883,11.802 12.883,11.62C12.883,11.426 12.919,11.259 12.992,11.118C13.064,10.977 13.158,10.862 13.274,10.77C13.39,10.679 13.519,10.613 13.66,10.571C13.801,10.529 13.94,10.508 14.077,10.508C14.33,10.508 14.547,10.557 14.727,10.654C14.906,10.75 15.042,10.865 15.133,10.998L14.832,11.26Z" style="fill:white;fill-rule:nonzero;stroke:white;stroke-width:0.39px;"/>
        </g>
        <rect x="0" y="0" width="16" height="16" style="fill:none;"/>
    </g>
</svg>
