<?xml version="1.0" encoding="UTF-8" standalone="no"?>
<!DOCTYPE svg PUBLIC "-//W3C//DTD SVG 1.1//EN" "http://www.w3.org/Graphics/SVG/1.1/DTD/svg11.dtd">
<svg width="100%" height="100%" viewBox="0 0 16 16" version="1.1" xmlns="http://www.w3.org/2000/svg" xmlns:xlink="http://www.w3.org/1999/xlink" xml:space="preserve" xmlns:serif="http://www.serif.com/" style="fill-rule:evenodd;clip-rule:evenodd;stroke-linejoin:round;stroke-miterlimit:2;">
    <g id="MNG_dark">
        <rect x="0" y="0" width="16" height="16" style="fill:none;"/>
        <clipPath id="_clip1">
            <rect x="0" y="0" width="16" height="16"/>
        </clipPath>
        <g clip-path="url(#_clip1)">
            <rect x="2.999" y="0.946" width="10.207" height="7.054" style="fill:none;"/>
            <clipPath id="_clip2">
                <rect x="2.999" y="0.946" width="10.207" height="7.054"/>
            </clipPath>
            <g clip-path="url(#_clip2)">
                <g id="DocIcon--Symbol-" serif:id="DocIcon (Symbol)">
                    <path d="M13.064,15.999L2.999,15.999L2.999,5.978L8.032,5.978L8.032,0.946L13.064,0.946L13.064,15.999ZM7.03,4.976L2.999,4.976L2.999,4.974L7.03,0.974L7.03,4.976Z" style="fill:rgb(135,147,154);"/>
                </g>
            </g>
            <rect x="0.846" y="8.839" width="16" height="7.416" style="fill:rgb(230,81,0);"/>
            <g id="Text" opacity="0.95">
                <path d="M2,15.044L2,10.391L2.793,10.391L3.735,13.685C3.822,13.992 3.885,14.222 3.925,14.374C3.97,14.205 4.041,13.956 4.137,13.628L5.09,10.391L5.799,10.391L5.799,15.044L5.291,15.044L5.291,11.15L4.134,15.044L3.659,15.044L2.508,11.083L2.508,15.044L2,15.044Z" style="fill:white;fill-rule:nonzero;stroke:white;stroke-width:0.45px;"/>
                <path d="M7.027,15.044L7.027,10.391L7.567,10.391L9.658,14.044L9.658,10.391L10.163,10.391L10.163,15.044L9.623,15.044L7.532,11.388L7.532,15.044L7.027,15.044Z" style="fill:white;fill-rule:nonzero;stroke:white;stroke-width:0.45px;"/>
                <path d="M13.295,13.219L13.295,12.673L14.981,12.67L14.981,14.396C14.722,14.638 14.455,14.819 14.18,14.941C13.905,15.062 13.623,15.123 13.333,15.123C12.942,15.123 12.587,15.025 12.267,14.83C11.948,14.634 11.706,14.351 11.544,13.981C11.381,13.61 11.299,13.197 11.299,12.74C11.299,12.287 11.38,11.864 11.542,11.472C11.704,11.079 11.937,10.788 12.241,10.597C12.546,10.407 12.896,10.312 13.292,10.312C13.58,10.312 13.84,10.366 14.073,10.475C14.306,10.584 14.488,10.736 14.62,10.931C14.752,11.125 14.853,11.379 14.922,11.692L14.446,11.845C14.387,11.608 14.312,11.421 14.224,11.286C14.135,11.151 14.008,11.042 13.843,10.961C13.679,10.879 13.496,10.839 13.295,10.839C13.054,10.839 12.846,10.881 12.67,10.967C12.495,11.053 12.353,11.165 12.245,11.305C12.138,11.445 12.054,11.598 11.994,11.765C11.893,12.053 11.842,12.365 11.842,12.702C11.842,13.116 11.903,13.463 12.026,13.743C12.148,14.022 12.326,14.229 12.559,14.365C12.793,14.5 13.041,14.568 13.303,14.568C13.531,14.568 13.754,14.516 13.971,14.414C14.188,14.311 14.353,14.202 14.465,14.085L14.465,13.219L13.295,13.219Z" style="fill:white;fill-rule:nonzero;stroke:white;stroke-width:0.45px;"/>
            </g>
        </g>
    </g>
</svg>
