<?xml version="1.0" encoding="UTF-8" standalone="no"?>
<!DOCTYPE svg PUBLIC "-//W3C//DTD SVG 1.1//EN" "http://www.w3.org/Graphics/SVG/1.1/DTD/svg11.dtd">
<svg width="100%" height="100%" viewBox="0 0 16 16" version="1.1" xmlns="http://www.w3.org/2000/svg" xmlns:xlink="http://www.w3.org/1999/xlink" xml:space="preserve" xmlns:serif="http://www.serif.com/" style="fill-rule:evenodd;clip-rule:evenodd;stroke-linejoin:round;stroke-miterlimit:2;">
    <rect id="Photo-Album" serif:id="Photo Album" x="0" y="0" width="16" height="16" style="fill:none;"/>
    <clipPath id="_clip1">
        <rect x="0" y="0" width="16" height="16"/>
    </clipPath>
    <g clip-path="url(#_clip1)">
        <rect x="2.999" y="0.946" width="10.207" height="7.054" style="fill:none;"/>
        <clipPath id="_clip2">
            <rect x="2.999" y="0.946" width="10.207" height="7.054"/>
        </clipPath>
        <g clip-path="url(#_clip2)">
            <g id="DocIcon--Symbol-" serif:id="DocIcon (Symbol)">
                <path d="M13.064,15.999L2.999,15.999L2.999,5.978L8.032,5.978L8.032,0.946L13.064,0.946L13.064,15.999ZM7.03,4.976L2.999,4.976L2.999,4.974L7.03,0.974L7.03,4.976Z" style="fill:rgb(135,147,154);"/>
            </g>
        </g>
        <rect x="0.846" y="8.839" width="16" height="7.416" style="fill:rgb(168,2,27);fill-opacity:0.7;"/>
        <g id="Text" opacity="0.77">
            <path d="M2.534,15.001L4.19,10.348L4.804,10.348L6.569,15.001L5.919,15.001L5.416,13.592L3.613,13.592L3.14,15.001L2.534,15.001ZM3.778,13.091L5.24,13.091L4.79,11.802C4.652,11.411 4.551,11.089 4.484,10.837C4.429,11.136 4.351,11.432 4.251,11.726L3.778,13.091Z" style="fill:white;fill-rule:nonzero;stroke:white;stroke-width:0.45px;"/>
            <path d="M7.604,15.001L7.604,10.348L8.175,10.348L8.175,14.452L10.298,14.452L10.298,15.001L7.604,15.001Z" style="fill:white;fill-rule:nonzero;stroke:white;stroke-width:0.45px;"/>
            <path d="M11.557,15.001L11.557,10.348L13.174,10.348C13.504,10.348 13.768,10.396 13.967,10.49C14.166,10.584 14.322,10.729 14.435,10.924C14.547,11.12 14.604,11.325 14.604,11.539C14.604,11.738 14.554,11.925 14.454,12.1C14.354,12.276 14.203,12.418 14.001,12.526C14.262,12.608 14.462,12.749 14.602,12.948C14.742,13.147 14.813,13.382 14.813,13.652C14.813,13.87 14.77,14.073 14.685,14.26C14.599,14.447 14.494,14.592 14.368,14.693C14.243,14.795 14.086,14.872 13.896,14.924C13.707,14.975 13.475,15.001 13.201,15.001L11.557,15.001ZM12.127,12.304L13.06,12.304C13.313,12.304 13.494,12.286 13.604,12.25C13.749,12.203 13.858,12.126 13.932,12.018C14.005,11.91 14.042,11.775 14.042,11.612C14.042,11.457 14.008,11.321 13.939,11.204C13.87,11.086 13.772,11.006 13.645,10.963C13.517,10.919 13.299,10.898 12.989,10.898L12.127,10.898L12.127,12.304ZM12.127,14.452L13.201,14.452C13.385,14.452 13.514,14.445 13.589,14.43C13.72,14.405 13.83,14.362 13.918,14.303C14.007,14.244 14.079,14.158 14.136,14.044C14.193,13.931 14.221,13.801 14.221,13.652C14.221,13.479 14.18,13.328 14.098,13.2C14.015,13.072 13.901,12.982 13.755,12.93C13.609,12.879 13.399,12.853 13.124,12.853L12.127,12.853L12.127,14.452Z" style="fill:white;fill-rule:nonzero;stroke:white;stroke-width:0.45px;"/>
        </g>
    </g>
</svg>
