<?xml version="1.0" encoding="UTF-8" standalone="no"?>
<!DOCTYPE svg PUBLIC "-//W3C//DTD SVG 1.1//EN" "http://www.w3.org/Graphics/SVG/1.1/DTD/svg11.dtd">
<svg width="100%" height="100%" viewBox="0 0 512 513" version="1.1" xmlns="http://www.w3.org/2000/svg" xmlns:xlink="http://www.w3.org/1999/xlink" xml:space="preserve" xmlns:serif="http://www.serif.com/" style="fill-rule:evenodd;clip-rule:evenodd;stroke-linejoin:round;stroke-miterlimit:2;">
    <rect id="Egg-Logo---With-Text" serif:id="Egg Logo - With Text" x="0" y="0.413" width="512" height="512" style="fill:none;"/>
    <g>
        <rect id="Clip" x="75.158" y="22.314" width="359.682" height="467.587" style="fill:none;"/>
        <clipPath id="_clip1">
            <rect id="Clip1" serif:id="Clip" x="75.158" y="22.314" width="359.682" height="467.587"/>
        </clipPath>
        <g clip-path="url(#_clip1)">
            <path d="M254.999,22.365C354.256,22.365 434.84,210.196 434.84,309.687C434.84,409.178 354.256,489.952 254.999,489.952C155.742,489.952 75.158,409.178 75.158,309.687C75.158,210.196 155.742,22.365 254.999,22.365Z" style="fill:rgb(47,170,240);"/>
            <path d="M306.696,104.617C385.181,115.523 428.311,272.551 417.405,351.036C406.498,429.521 333.924,484.387 255.438,473.481C176.953,462.574 122.087,390 132.994,311.515C143.9,233.029 228.21,93.711 306.696,104.617Z" style="fill:rgb(121,206,254);"/>
            <path d="M327.605,231.39C378.706,245.128 394.258,352.757 380.52,403.858C366.782,454.96 314.141,485.294 263.039,471.556C211.938,457.818 181.603,405.177 195.341,354.075C209.079,302.974 276.503,217.652 327.605,231.39Z" style="fill:white;"/>
        </g>
    </g>
</svg>
