<?xml version="1.0" encoding="UTF-8" standalone="no"?>
<!DOCTYPE svg PUBLIC "-//W3C//DTD SVG 1.1//EN" "http://www.w3.org/Graphics/SVG/1.1/DTD/svg11.dtd">
<svg width="100%" height="100%" viewBox="0 0 16 16" version="1.1" xmlns="http://www.w3.org/2000/svg" xmlns:xlink="http://www.w3.org/1999/xlink" xml:space="preserve" xmlns:serif="http://www.serif.com/" style="fill-rule:evenodd;clip-rule:evenodd;stroke-linejoin:round;stroke-miterlimit:2;">
    <rect id="Pray" x="0" y="0" width="16" height="16" style="fill:none;"/>
    <clipPath id="_clip1">
        <rect x="0" y="0" width="16" height="16"/>
    </clipPath>
    <g clip-path="url(#_clip1)">
        <rect x="2.999" y="0.946" width="10.207" height="7.054" style="fill:none;"/>
        <clipPath id="_clip2">
            <rect x="2.999" y="0.946" width="10.207" height="7.054"/>
        </clipPath>
        <g clip-path="url(#_clip2)">
            <path id="_-Curves-" serif:id="(Curves)" d="M13.064,15.999L2.999,15.999L2.999,5.978L8.032,5.978L8.032,0.946L13.064,0.946L13.064,15.999ZM7.03,4.976L2.999,4.976L2.999,4.974L7.03,0.974L7.03,4.976Z" style="fill:rgb(135,147,154);"/>
        </g>
        <rect x="0.846" y="8.839" width="16" height="7.416" style="fill:rgb(36,129,118);fill-opacity:0.7;"/>
        <g id="Text" opacity="0.77">
            <path d="M2.518,15.001L2.518,10.348L4.145,10.348C4.431,10.348 4.649,10.363 4.8,10.393C5.012,10.431 5.19,10.503 5.333,10.61C5.476,10.717 5.591,10.867 5.678,11.059C5.766,11.252 5.809,11.464 5.809,11.694C5.809,12.09 5.693,12.425 5.459,12.699C5.226,12.973 4.804,13.11 4.195,13.11L3.089,13.11L3.089,15.001L2.518,15.001ZM3.089,12.561L4.203,12.561C4.572,12.561 4.834,12.487 4.989,12.338C5.144,12.19 5.221,11.982 5.221,11.713C5.221,11.519 5.175,11.352 5.084,11.213C4.993,11.075 4.873,10.983 4.724,10.939C4.628,10.911 4.45,10.898 4.192,10.898L3.089,10.898L3.089,12.561Z" style="fill:white;fill-rule:nonzero;stroke:white;stroke-width:0.45px;"/>
            <path d="M7.147,15.001L7.147,10.348L9.059,10.348C9.443,10.348 9.735,10.39 9.935,10.474C10.135,10.557 10.295,10.705 10.415,10.917C10.534,11.128 10.594,11.362 10.594,11.618C10.594,11.948 10.495,12.226 10.297,12.453C10.099,12.679 9.793,12.823 9.379,12.884C9.53,12.963 9.645,13.04 9.724,13.116C9.89,13.281 10.048,13.487 10.197,13.735L10.947,15.001L10.23,15.001L9.659,14.033C9.492,13.754 9.355,13.54 9.247,13.392C9.139,13.244 9.043,13.14 8.957,13.081C8.872,13.022 8.785,12.981 8.697,12.957C8.632,12.943 8.527,12.935 8.379,12.935L7.718,12.935L7.718,15.001L7.147,15.001ZM7.718,12.402L8.944,12.402C9.205,12.402 9.409,12.373 9.556,12.315C9.703,12.256 9.815,12.163 9.891,12.035C9.968,11.907 10.006,11.768 10.006,11.618C10.006,11.398 9.932,11.217 9.784,11.075C9.636,10.933 9.402,10.863 9.082,10.863L7.718,10.863L7.718,12.402Z" style="fill:white;fill-rule:nonzero;stroke:white;stroke-width:0.45px;"/>
            <path d="M13.197,15.001L13.197,13.03L11.535,10.348L12.229,10.348L13.079,11.751C13.236,12.014 13.382,12.276 13.517,12.538C13.647,12.295 13.804,12.021 13.988,11.716L14.823,10.348L15.488,10.348L13.767,13.03L13.767,15.001L13.197,15.001Z" style="fill:white;fill-rule:nonzero;stroke:white;stroke-width:0.45px;"/>
        </g>
    </g>
</svg>
