<?xml version="1.0" encoding="UTF-8" standalone="no"?>
<!DOCTYPE svg PUBLIC "-//W3C//DTD SVG 1.1//EN" "http://www.w3.org/Graphics/SVG/1.1/DTD/svg11.dtd">
<svg width="100%" height="100%" viewBox="0 0 16 16" version="1.1" xmlns="http://www.w3.org/2000/svg" xmlns:xlink="http://www.w3.org/1999/xlink" xml:space="preserve" xmlns:serif="http://www.serif.com/" style="fill-rule:evenodd;clip-rule:evenodd;stroke-linejoin:round;stroke-miterlimit:2;">
    <rect id="Pray" x="0" y="0" width="16" height="16" style="fill:none;"/>
    <clipPath id="_clip1">
        <rect x="0" y="0" width="16" height="16"/>
    </clipPath>
    <g clip-path="url(#_clip1)">
        <rect x="2.999" y="0.946" width="10.207" height="7.054" style="fill:none;"/>
        <clipPath id="_clip2">
            <rect x="2.999" y="0.946" width="10.207" height="7.054"/>
        </clipPath>
        <g clip-path="url(#_clip2)">
            <path id="_-Curves-" serif:id="(Curves)" d="M13.064,15.999L2.999,15.999L2.999,5.978L8.032,5.978L8.032,0.946L13.064,0.946L13.064,15.999ZM7.03,4.976L2.999,4.976L2.999,4.974L7.03,0.974L7.03,4.976Z" style="fill:rgb(135,147,154);"/>
        </g>
        <rect x="0.846" y="8.839" width="16" height="7.416" style="fill:rgb(36,129,118);"/>
        <g id="Text">
            <path d="M4.578,10.588C4.446,10.46 4.182,10.385 3.813,10.385L3.424,10.385L3.424,12.142C3.764,12.142 4.077,12.051 4.342,11.886C4.62,11.699 4.766,11.429 4.766,11.113C4.766,10.881 4.703,10.708 4.578,10.588ZM2.394,10.092L4.091,10.092C4.578,10.092 4.954,10.175 5.19,10.34C5.42,10.498 5.538,10.753 5.538,11.076C5.538,11.541 5.274,11.909 4.745,12.164C4.335,12.344 3.897,12.442 3.424,12.442L3.424,13.905C3.424,14.161 3.451,14.363 3.507,14.506C3.577,14.656 3.667,14.784 3.778,14.851L3.778,15.001L2.394,15.001L2.394,14.851C2.498,14.784 2.596,14.656 2.665,14.506C2.721,14.363 2.749,14.161 2.749,13.905L2.749,11.188C2.749,10.933 2.721,10.73 2.665,10.588C2.596,10.438 2.498,10.31 2.394,10.235L2.394,10.092Z" style="fill:white;fill-rule:nonzero;stroke:white;stroke-width:0.45px;"/>
            <path d="M7.875,10.385L7.875,12.142C8.327,12.142 8.675,12.036 8.891,11.841C9.086,11.661 9.19,11.398 9.19,11.083C9.19,10.836 9.086,10.648 8.898,10.528C8.731,10.438 8.501,10.385 8.216,10.385L7.875,10.385ZM9.566,10.303C9.83,10.46 9.962,10.715 9.962,11.038C9.962,11.391 9.816,11.691 9.524,11.939C9.301,12.112 9.023,12.232 8.696,12.292L9.733,14.063C9.837,14.221 9.955,14.386 10.094,14.536C10.206,14.671 10.366,14.784 10.553,14.851L10.553,15.001L9.468,15.001L7.875,12.292L7.875,13.905C7.875,14.161 7.903,14.363 7.959,14.506C8.028,14.656 8.119,14.784 8.23,14.851L8.23,15.001L6.846,15.001L6.846,14.851C6.95,14.784 7.048,14.656 7.117,14.506C7.173,14.363 7.201,14.161 7.201,13.905L7.201,11.188C7.201,10.933 7.173,10.73 7.117,10.588C7.048,10.438 6.95,10.31 6.846,10.235L6.846,10.092L8.613,10.092C9.002,10.092 9.322,10.16 9.566,10.303Z" style="fill:white;fill-rule:nonzero;stroke:white;stroke-width:0.45px;"/>
            <path d="M13.635,13.905C13.635,14.161 13.663,14.363 13.718,14.506C13.788,14.656 13.885,14.784 13.99,14.851L13.99,15.001L12.605,15.001L12.605,14.851C12.717,14.784 12.807,14.656 12.877,14.506C12.932,14.363 12.96,14.161 12.96,13.905L12.96,12.712L11.882,10.858C11.799,10.715 11.701,10.573 11.604,10.46C11.52,10.378 11.402,10.295 11.277,10.235L11.277,10.092L12.64,10.092L12.64,10.235C12.564,10.273 12.515,10.348 12.508,10.438C12.508,10.505 12.536,10.618 12.605,10.753L13.475,12.269L14.268,10.678C14.31,10.58 14.317,10.483 14.303,10.408C14.282,10.318 14.24,10.25 14.191,10.235L14.191,10.092L15.297,10.092L15.297,10.235C15.186,10.265 15.068,10.363 14.936,10.513C14.859,10.603 14.748,10.776 14.602,11.008L13.635,12.614L13.635,13.905Z" style="fill:white;fill-rule:nonzero;stroke:white;stroke-width:0.45px;"/>
        </g>
    </g>
</svg>
