<?xml version="1.0" encoding="UTF-8" standalone="no"?>
<!DOCTYPE svg PUBLIC "-//W3C//DTD SVG 1.1//EN" "http://www.w3.org/Graphics/SVG/1.1/DTD/svg11.dtd">
<svg width="100%" height="100%" viewBox="0 0 16 16" version="1.1" xmlns="http://www.w3.org/2000/svg" xmlns:xlink="http://www.w3.org/1999/xlink" xml:space="preserve" xmlns:serif="http://www.serif.com/" style="fill-rule:evenodd;clip-rule:evenodd;stroke-linejoin:round;stroke-miterlimit:2;">
    <rect id="RCB_dark" x="0" y="0" width="16" height="16" style="fill:none;"/>
    <clipPath id="_clip1">
        <rect x="0" y="0" width="16" height="16"/>
    </clipPath>
    <g clip-path="url(#_clip1)">
        <g>
            <path d="M8.019,0.111C11.369,0.111 14.088,6.451 14.088,9.808C14.088,13.166 11.369,15.892 8.019,15.892C4.669,15.892 1.949,13.166 1.949,9.808C1.949,6.451 4.669,0.111 8.019,0.111Z" style="fill:#e73840;"/>
            <path d="M9.763,2.887C12.412,3.255 13.868,8.555 13.5,11.204C13.132,13.853 10.682,15.704 8.034,15.336C5.385,14.968 3.533,12.519 3.901,9.87C4.269,7.221 7.115,2.519 9.763,2.887Z" style="fill:#f87f85;"/>
            <path d="M10.469,7.166C12.194,7.629 12.719,11.262 12.255,12.987C11.791,14.711 10.015,15.735 8.29,15.271C6.565,14.808 5.542,13.031 6.005,11.306C6.469,9.582 8.745,6.702 10.469,7.166Z" style="fill:#fff;"/>
        </g>
        <g>
            <rect x="-0.049" y="8.839" width="16.895" height="7.416" style="fill:#e73840;"/>
            <clipPath id="_clip2">
                <rect x="-0.049" y="8.839" width="16.895" height="7.416"/>
            </clipPath>
            <g clip-path="url(#_clip2)">
            </g>
        </g>
        <g id="Text">
            <path d="M2.082,15.005L2.082,10.352L3.994,10.352C4.378,10.352 4.67,10.394 4.87,10.478C5.07,10.561 5.23,10.709 5.35,10.92C5.469,11.132 5.529,11.366 5.529,11.622C5.529,11.952 5.43,12.23 5.232,12.456C5.034,12.683 4.728,12.827 4.314,12.888C4.465,12.966 4.58,13.044 4.659,13.12C4.825,13.285 4.983,13.491 5.132,13.739L5.882,15.005L5.164,15.005L4.594,14.037C4.427,13.758 4.29,13.544 4.182,13.396C4.074,13.248 3.978,13.144 3.892,13.085C3.807,13.026 3.72,12.984 3.632,12.961C3.567,12.946 3.461,12.939 3.314,12.939L2.653,12.939L2.653,15.005L2.082,15.005ZM2.653,12.406L3.879,12.406C4.14,12.406 4.344,12.377 4.491,12.318C4.638,12.26 4.75,12.167 4.826,12.039C4.903,11.911 4.941,11.772 4.941,11.622C4.941,11.402 4.867,11.221 4.719,11.079C4.571,10.937 4.337,10.866 4.017,10.866L2.653,10.866L2.653,12.406Z" style="fill:#fff;fill-rule:nonzero;stroke:#fff;stroke-width:0.45px;"/>
            <path d="M9.916,13.374L10.486,13.529C10.367,14.035 10.151,14.421 9.841,14.686C9.53,14.952 9.15,15.084 8.701,15.084C8.236,15.084 7.858,14.982 7.567,14.778C7.276,14.574 7.054,14.278 6.902,13.891C6.75,13.504 6.674,13.088 6.674,12.644C6.674,12.159 6.76,11.737 6.932,11.376C7.103,11.015 7.347,10.741 7.664,10.554C7.981,10.366 8.329,10.273 8.71,10.273C9.141,10.273 9.504,10.391 9.798,10.628C10.092,10.865 10.297,11.199 10.413,11.628L9.851,11.771C9.751,11.432 9.606,11.186 9.416,11.031C9.225,10.877 8.986,10.8 8.698,10.8C8.367,10.8 8.09,10.885 7.867,11.057C7.644,11.228 7.488,11.458 7.398,11.747C7.308,12.036 7.263,12.334 7.263,12.641C7.263,13.036 7.316,13.382 7.423,13.677C7.53,13.972 7.696,14.193 7.921,14.339C8.147,14.485 8.391,14.558 8.654,14.558C8.973,14.558 9.244,14.458 9.466,14.259C9.687,14.06 9.837,13.765 9.916,13.374Z" style="fill:#fff;fill-rule:nonzero;stroke:#fff;stroke-width:0.45px;"/>
            <path d="M11.581,15.005L11.581,10.352L13.199,10.352C13.528,10.352 13.793,10.399 13.992,10.493C14.191,10.588 14.347,10.733 14.459,10.928C14.572,11.124 14.629,11.329 14.629,11.542C14.629,11.741 14.579,11.929 14.479,12.104C14.379,12.28 14.228,12.422 14.026,12.529C14.286,12.612 14.487,12.753 14.627,12.952C14.767,13.15 14.837,13.385 14.837,13.656C14.837,13.874 14.795,14.077 14.709,14.264C14.624,14.451 14.519,14.596 14.393,14.697C14.268,14.799 14.11,14.875 13.921,14.927C13.732,14.979 13.5,15.005 13.226,15.005L11.581,15.005ZM12.152,12.307L13.084,12.307C13.337,12.307 13.519,12.289 13.628,12.253C13.774,12.207 13.883,12.13 13.956,12.022C14.03,11.914 14.067,11.778 14.067,11.615C14.067,11.461 14.032,11.325 13.964,11.208C13.895,11.09 13.797,11.01 13.67,10.966C13.542,10.923 13.324,10.901 13.014,10.901L12.152,10.901L12.152,12.307ZM12.152,14.456L13.226,14.456C13.41,14.456 13.539,14.449 13.614,14.434C13.745,14.408 13.855,14.366 13.943,14.307C14.031,14.248 14.104,14.161 14.161,14.048C14.218,13.935 14.246,13.804 14.246,13.656C14.246,13.483 14.205,13.332 14.123,13.204C14.04,13.076 13.926,12.986 13.78,12.934C13.634,12.882 13.424,12.856 13.149,12.856L12.152,12.856L12.152,14.456Z" style="fill:#fff;fill-rule:nonzero;stroke:#fff;stroke-width:0.45px;"/>
        </g>
    </g>
</svg>
