<?xml version="1.0" encoding="UTF-8" standalone="no"?>
<!DOCTYPE svg PUBLIC "-//W3C//DTD SVG 1.1//EN" "http://www.w3.org/Graphics/SVG/1.1/DTD/svg11.dtd">
<svg width="100%" height="100%" viewBox="0 0 16 16" version="1.1" xmlns="http://www.w3.org/2000/svg" xmlns:xlink="http://www.w3.org/1999/xlink" xml:space="preserve" xmlns:serif="http://www.serif.com/" style="fill-rule:evenodd;clip-rule:evenodd;stroke-linejoin:round;stroke-miterlimit:2;">
    <rect id="RCB" x="0" y="0" width="16" height="16" style="fill:none;"/>
    <clipPath id="_clip1">
        <rect x="0" y="0" width="16" height="16"/>
    </clipPath>
    <g clip-path="url(#_clip1)">
        <g>
            <g>
                <rect id="Clip" x="1.949" y="0.11" width="12.139" height="15.781" style="fill:none;"/>
                <clipPath id="_clip2">
                    <rect id="Clip1" serif:id="Clip" x="1.949" y="0.11" width="12.139" height="15.781"/>
                </clipPath>
                <g clip-path="url(#_clip2)">
                    <path d="M8.019,0.111C11.369,0.111 14.088,6.451 14.088,9.808C14.088,13.166 11.369,15.892 8.019,15.892C4.669,15.892 1.949,13.166 1.949,9.808C1.949,6.451 4.669,0.111 8.019,0.111Z" style="fill:rgb(47,170,240);"/>
                    <path d="M9.763,2.887C12.412,3.255 13.868,8.555 13.5,11.204C13.132,13.853 10.682,15.704 8.034,15.336C5.385,14.968 3.533,12.519 3.901,9.87C4.269,7.221 7.115,2.519 9.763,2.887Z" style="fill:rgb(121,206,254);"/>
                    <path d="M10.469,7.166C12.194,7.629 12.719,11.262 12.255,12.987C11.791,14.711 10.015,15.735 8.29,15.271C6.565,14.808 5.542,13.031 6.005,11.306C6.469,9.582 8.745,6.702 10.469,7.166Z" style="fill:white;"/>
                </g>
            </g>
        </g>
        <rect x="-0.049" y="8.839" width="16.895" height="7.416" style="fill:rgb(231,56,64);"/>
        <g id="Text">
            <path d="M2.979,10.389L2.979,12.145C3.431,12.145 3.779,12.04 3.994,11.845C4.189,11.665 4.293,11.402 4.293,11.087C4.293,10.839 4.189,10.652 4.001,10.532C3.834,10.442 3.605,10.389 3.32,10.389L2.979,10.389ZM4.669,10.306C4.933,10.464 5.065,10.719 5.065,11.042C5.065,11.395 4.919,11.695 4.627,11.943C4.405,12.115 4.126,12.235 3.8,12.295L4.836,14.067C4.94,14.224 5.059,14.39 5.198,14.54C5.309,14.675 5.469,14.787 5.657,14.855L5.657,15.005L4.572,15.005L2.979,12.295L2.979,13.909C2.979,14.164 3.007,14.367 3.062,14.51C3.132,14.66 3.222,14.787 3.333,14.855L3.333,15.005L1.949,15.005L1.949,14.855C2.054,14.787 2.151,14.66 2.221,14.51C2.276,14.367 2.304,14.164 2.304,13.909L2.304,11.192C2.304,10.937 2.276,10.734 2.221,10.592C2.151,10.442 2.054,10.314 1.949,10.239L1.949,10.096L3.716,10.096C4.106,10.096 4.426,10.164 4.669,10.306Z" style="fill:white;fill-rule:nonzero;stroke:white;stroke-width:0.45px;"/>
            <path d="M8.641,15.103C7.757,15.103 7.124,14.802 6.749,14.187C6.512,13.789 6.394,13.279 6.394,12.663C6.394,11.86 6.596,11.2 7.006,10.704C7.41,10.231 7.994,9.991 8.731,9.991C9.058,9.991 9.448,10.051 9.886,10.149L9.886,10.997L9.747,10.997L9.058,10.457C8.947,10.381 8.815,10.344 8.676,10.344C8.196,10.344 7.82,10.539 7.563,10.922C7.305,11.342 7.166,11.89 7.166,12.558C7.166,13.099 7.257,13.549 7.403,13.902C7.653,14.472 8.084,14.757 8.669,14.757C8.815,14.757 8.954,14.72 9.065,14.645L9.754,14.104L9.893,14.104L9.893,14.945C9.441,15.043 9.023,15.103 8.641,15.103Z" style="fill:white;fill-rule:nonzero;stroke:white;stroke-width:0.45px;"/>
            <path d="M12.049,14.712L12.453,14.712C12.828,14.712 13.114,14.607 13.301,14.412C13.489,14.209 13.593,13.902 13.593,13.519C13.593,13.196 13.51,12.918 13.364,12.708C13.211,12.513 12.981,12.386 12.682,12.355C12.383,12.401 12.174,12.423 12.049,12.423L12.049,14.712ZM12.049,10.389L12.049,12.145C12.501,12.145 12.856,12.018 13.107,11.763C13.28,11.59 13.371,11.365 13.371,11.102C13.371,10.869 13.287,10.689 13.134,10.554C12.988,10.449 12.787,10.389 12.529,10.389L12.049,10.389ZM11.375,11.192C11.375,10.937 11.347,10.734 11.291,10.592C11.221,10.442 11.124,10.314 11.02,10.239L11.02,10.096L12.647,10.096C13.183,10.096 13.573,10.186 13.802,10.366C14.018,10.524 14.122,10.779 14.122,11.087C14.122,11.35 14.018,11.597 13.816,11.808C13.587,12.033 13.308,12.183 12.981,12.243C13.413,12.243 13.74,12.348 13.976,12.551C14.233,12.768 14.366,13.106 14.366,13.549C14.366,14.059 14.192,14.442 13.844,14.682C13.531,14.892 13.107,15.005 12.571,15.005L11.02,15.005L11.02,14.855C11.124,14.787 11.221,14.66 11.291,14.51C11.347,14.367 11.375,14.164 11.375,13.909L11.375,11.192Z" style="fill:white;fill-rule:nonzero;stroke:white;stroke-width:0.45px;"/>
        </g>
    </g>
</svg>
