<?xml version="1.0" encoding="UTF-8" standalone="no"?>
<!DOCTYPE svg PUBLIC "-//W3C//DTD SVG 1.1//EN" "http://www.w3.org/Graphics/SVG/1.1/DTD/svg11.dtd">
<svg width="100%" height="100%" viewBox="0 0 16 16" version="1.1" xmlns="http://www.w3.org/2000/svg" xmlns:xlink="http://www.w3.org/1999/xlink" xml:space="preserve" xmlns:serif="http://www.serif.com/" style="fill-rule:evenodd;clip-rule:evenodd;stroke-linejoin:round;stroke-miterlimit:2;">
    <rect id="Cob" x="0" y="0" width="16" height="16" style="fill:none;"/>
    <clipPath id="_clip1">
        <rect x="0" y="0" width="16" height="16"/>
    </clipPath>
    <g clip-path="url(#_clip1)">
        <rect x="2.999" y="0.946" width="10.207" height="7.054" style="fill:none;"/>
        <clipPath id="_clip2">
            <rect x="2.999" y="0.946" width="10.207" height="7.054"/>
        </clipPath>
        <g clip-path="url(#_clip2)">
            <g id="DocIcon--Symbol-" serif:id="DocIcon (Symbol)">
                <path d="M13.064,15.999L2.999,15.999L2.999,5.978L8.032,5.978L8.032,0.946L13.064,0.946L13.064,15.999ZM7.03,4.976L2.999,4.976L2.999,4.974L7.03,0.974L7.03,4.976Z" style="fill:rgb(135,147,154);"/>
            </g>
        </g>
        <rect x="0.846" y="8.839" width="16" height="7.416" style="fill:rgb(190,30,0);"/>
        <g id="Text">
            <path d="M3.601,12.021C3.399,11.811 3.295,11.526 3.295,11.173C3.295,10.836 3.427,10.543 3.684,10.31C3.942,10.1 4.29,9.987 4.707,9.987C4.943,9.987 5.326,10.047 5.834,10.16L5.834,11.008L5.695,11.008L5.02,10.46C4.888,10.385 4.756,10.34 4.644,10.34C4.394,10.34 4.185,10.408 4.053,10.535C3.942,10.655 3.879,10.791 3.879,10.941C3.879,11.203 3.984,11.398 4.185,11.519C4.234,11.549 4.297,11.586 4.366,11.616C4.436,11.646 4.512,11.691 4.603,11.729C5.201,12.014 5.611,12.299 5.813,12.562C6.001,12.81 6.105,13.14 6.105,13.538C6.105,14.026 5.945,14.416 5.646,14.694C5.34,14.964 4.902,15.099 4.331,15.099C4.178,15.099 4.011,15.084 3.837,15.054C3.657,15.031 3.455,14.994 3.239,14.941L3.239,14.101L3.371,14.101L4.067,14.641C4.164,14.716 4.262,14.754 4.373,14.754C5.034,14.724 5.368,14.386 5.368,13.755C5.368,13.463 5.284,13.215 5.117,13.027C5.006,12.915 4.783,12.765 4.484,12.614C4.102,12.419 3.803,12.217 3.601,12.021Z" style="fill:white;fill-rule:nonzero;stroke:white;stroke-width:0.45px;"/>
            <path d="M8.581,13.905L8.581,11.308C8.581,10.881 8.331,10.663 7.844,10.663L7.844,10.513L9.124,9.987L9.263,9.987L9.263,13.905C9.263,14.161 9.291,14.363 9.347,14.506C9.409,14.656 9.507,14.784 9.618,14.851L9.618,15.001L8.227,15.001L8.227,14.851C8.338,14.784 8.435,14.656 8.505,14.506C8.554,14.363 8.581,14.161 8.581,13.905Z" style="fill:white;fill-rule:nonzero;stroke:white;stroke-width:0.45px;"/>
            <path d="M12.219,12.097C12.518,11.939 12.852,11.849 13.2,11.849C13.562,11.849 13.875,12.021 14.125,12.337C14.341,12.637 14.452,12.997 14.452,13.418C14.452,13.928 14.334,14.348 14.09,14.641C13.833,14.949 13.464,15.099 12.991,15.099C12.407,15.099 11.99,14.859 11.746,14.386C11.552,14.018 11.461,13.463 11.461,12.727C11.461,12.014 11.593,11.398 11.865,10.888C12.178,10.288 12.644,9.987 13.242,9.987C13.562,9.987 13.896,10.047 14.237,10.145L14.237,10.993L14.104,10.993L13.458,10.445C13.367,10.378 13.284,10.34 13.228,10.34C12.887,10.34 12.623,10.543 12.442,10.956C12.303,11.286 12.219,11.676 12.219,12.097ZM12.205,12.337C12.205,12.382 12.192,12.472 12.192,12.592L12.192,13.05C12.192,13.575 12.233,13.958 12.317,14.198C12.435,14.603 12.671,14.814 12.978,14.814C13.249,14.814 13.444,14.671 13.562,14.393C13.659,14.191 13.708,13.89 13.708,13.523C13.708,13.102 13.638,12.787 13.513,12.592C13.353,12.352 13.096,12.239 12.748,12.239C12.588,12.239 12.4,12.277 12.205,12.337Z" style="fill:white;fill-rule:nonzero;stroke:white;stroke-width:0.45px;"/>
        </g>
    </g>
</svg>
