<?xml version="1.0" encoding="UTF-8" standalone="no"?>
<!DOCTYPE svg PUBLIC "-//W3C//DTD SVG 1.1//EN" "http://www.w3.org/Graphics/SVG/1.1/DTD/svg11.dtd">
<svg width="100%" height="100%" viewBox="0 0 16 16" version="1.1" xmlns="http://www.w3.org/2000/svg" xmlns:xlink="http://www.w3.org/1999/xlink" xml:space="preserve" xmlns:serif="http://www.serif.com/" style="fill-rule:evenodd;clip-rule:evenodd;stroke-linejoin:round;stroke-miterlimit:2;">
    <g id="Cob_dark">
        <rect x="0" y="0" width="16" height="16" style="fill:none;"/>
        <clipPath id="_clip1">
            <rect x="0" y="0" width="16" height="16"/>
        </clipPath>
        <g clip-path="url(#_clip1)">
            <rect x="2.999" y="0.946" width="10.207" height="7.054" style="fill:none;"/>
            <clipPath id="_clip2">
                <rect x="2.999" y="0.946" width="10.207" height="7.054"/>
            </clipPath>
            <g clip-path="url(#_clip2)">
                <g id="DocIcon--Symbol-" serif:id="DocIcon (Symbol)">
                    <path d="M13.064,15.999L2.999,15.999L2.999,5.978L8.032,5.978L8.032,0.946L13.064,0.946L13.064,15.999ZM7.03,4.976L2.999,4.976L2.999,4.974L7.03,0.974L7.03,4.976Z" style="fill:rgb(135,147,154);"/>
                </g>
            </g>
            <rect x="0.846" y="8.839" width="16" height="7.416" style="fill:rgb(190,30,0);"/>
            <path id="Text" d="M3.127,13.506L3.666,13.456C3.691,13.688 3.75,13.879 3.843,14.028C3.937,14.178 4.081,14.298 4.277,14.39C4.473,14.482 4.694,14.528 4.939,14.528C5.157,14.528 5.349,14.493 5.516,14.424C5.682,14.354 5.806,14.258 5.888,14.136C5.969,14.015 6.01,13.882 6.01,13.738C6.01,13.592 5.971,13.465 5.892,13.356C5.814,13.247 5.684,13.155 5.504,13.081C5.388,13.032 5.132,12.957 4.736,12.854C4.34,12.752 4.063,12.655 3.904,12.564C3.698,12.447 3.544,12.303 3.443,12.131C3.342,11.958 3.292,11.765 3.292,11.551C3.292,11.316 3.354,11.097 3.477,10.893C3.601,10.689 3.781,10.534 4.018,10.428C4.256,10.322 4.519,10.269 4.81,10.269C5.129,10.269 5.411,10.325 5.655,10.436C5.899,10.547 6.087,10.71 6.219,10.926C6.35,11.142 6.421,11.386 6.43,11.659L5.883,11.704C5.854,11.41 5.754,11.187 5.585,11.037C5.415,10.887 5.165,10.812 4.833,10.812C4.488,10.812 4.237,10.88 4.079,11.017C3.921,11.153 3.842,11.318 3.842,11.51C3.842,11.677 3.898,11.815 4.01,11.923C4.119,12.031 4.406,12.141 4.87,12.254C5.334,12.368 5.652,12.466 5.824,12.551C6.075,12.676 6.261,12.834 6.38,13.026C6.5,13.217 6.56,13.438 6.56,13.687C6.56,13.935 6.494,14.168 6.363,14.387C6.231,14.606 6.043,14.776 5.797,14.898C5.55,15.02 5.273,15.081 4.966,15.081C4.575,15.081 4.248,15.019 3.985,14.897C3.721,14.774 3.514,14.589 3.364,14.343C3.214,14.096 3.135,13.817 3.127,13.506Z" style="fill:white;fill-rule:nonzero;stroke:white;stroke-width:0.45px;"/>
            <path d="M9.534,15.001L9.005,15.001L9.005,11.361C8.877,11.492 8.71,11.623 8.503,11.754C8.297,11.886 8.111,11.984 7.946,12.05L7.946,11.497C8.242,11.347 8.501,11.165 8.723,10.951C8.944,10.738 9.101,10.53 9.193,10.329L9.534,10.329L9.534,15.001Z" style="fill:white;fill-rule:nonzero;stroke:white;stroke-width:0.45px;"/>
            <path d="M14.053,11.488L13.527,11.532C13.48,11.308 13.413,11.145 13.327,11.044C13.184,10.881 13.007,10.799 12.797,10.799C12.629,10.799 12.481,10.85 12.353,10.951C12.186,11.083 12.055,11.274 11.959,11.526C11.863,11.778 11.813,12.136 11.809,12.602C11.936,12.392 12.092,12.237 12.277,12.135C12.461,12.034 12.654,11.983 12.856,11.983C13.209,11.983 13.51,12.123 13.758,12.403C14.006,12.684 14.13,13.046 14.13,13.491C14.13,13.783 14.071,14.054 13.955,14.305C13.838,14.555 13.678,14.747 13.474,14.881C13.27,15.014 13.038,15.081 12.78,15.081C12.338,15.081 11.979,14.906 11.7,14.555C11.422,14.205 11.282,13.628 11.282,12.824C11.282,11.925 11.436,11.271 11.744,10.863C12.013,10.507 12.375,10.329 12.83,10.329C13.169,10.329 13.447,10.432 13.663,10.637C13.88,10.842 14.01,11.126 14.053,11.488ZM11.891,13.494C11.891,13.69 11.93,13.879 12.007,14.059C12.085,14.238 12.193,14.375 12.332,14.47C12.472,14.564 12.618,14.611 12.771,14.611C12.994,14.611 13.186,14.514 13.347,14.319C13.508,14.124 13.588,13.86 13.588,13.525C13.588,13.204 13.509,12.95 13.35,12.765C13.191,12.58 12.991,12.488 12.75,12.488C12.511,12.488 12.308,12.58 12.141,12.765C11.975,12.95 11.891,13.193 11.891,13.494Z" style="fill:white;fill-rule:nonzero;stroke:white;stroke-width:0.45px;"/>
        </g>
    </g>
</svg>
