<?xml version="1.0" encoding="UTF-8" standalone="no"?>
<!DOCTYPE svg PUBLIC "-//W3C//DTD SVG 1.1//EN" "http://www.w3.org/Graphics/SVG/1.1/DTD/svg11.dtd">
<svg width="100%" height="100%" viewBox="0 0 512 513" version="1.1" xmlns="http://www.w3.org/2000/svg" xmlns:xlink="http://www.w3.org/1999/xlink" xml:space="preserve" xmlns:serif="http://www.serif.com/" style="fill-rule:evenodd;clip-rule:evenodd;stroke-linejoin:round;stroke-miterlimit:2;">
    <rect id="Egg-Logo---Without-Text" serif:id="Egg Logo - Without Text" x="0" y="0.413" width="512" height="512" style="fill:none;"/>
    <g>
        <rect id="Clip" x="78.339" y="42.178" width="342.603" height="445.383" style="fill:none;"/>
        <clipPath id="_clip1">
            <rect id="Clip1" serif:id="Clip" x="78.339" y="42.178" width="342.603" height="445.383"/>
        </clipPath>
        <g clip-path="url(#_clip1)">
            <path d="M249.641,42.227C344.184,42.227 420.942,221.138 420.942,315.905C420.942,410.672 344.184,487.61 249.641,487.61C155.097,487.61 78.339,410.672 78.339,315.905C78.339,221.138 155.097,42.227 249.641,42.227Z" style="fill:rgb(47,170,240);"/>
            <path d="M298.883,120.573C373.641,130.961 414.723,280.532 404.335,355.291C393.946,430.049 324.818,482.309 250.059,471.921C175.301,461.533 123.041,392.404 133.429,317.646C143.817,242.887 224.124,110.184 298.883,120.573Z" style="fill:rgb(121,206,254);"/>
            <path d="M318.799,241.326C367.474,254.412 382.287,356.93 369.202,405.605C356.116,454.279 305.974,483.173 257.299,470.088C208.624,457.002 179.73,406.86 192.816,358.185C205.902,309.51 270.124,228.24 318.799,241.326Z" style="fill:white;"/>
        </g>
    </g>
</svg>
