<?xml version="1.0" encoding="UTF-8" standalone="no"?>
<!DOCTYPE svg PUBLIC "-//W3C//DTD SVG 1.1//EN" "http://www.w3.org/Graphics/SVG/1.1/DTD/svg11.dtd">
<svg width="100%" height="100%" viewBox="0 0 16 16" version="1.1" xmlns="http://www.w3.org/2000/svg" xmlns:xlink="http://www.w3.org/1999/xlink" xml:space="preserve" xmlns:serif="http://www.serif.com/" style="fill-rule:evenodd;clip-rule:evenodd;stroke-linejoin:round;stroke-miterlimit:2;">
    <rect id="Sfc" x="0" y="0" width="16" height="16" style="fill:none;"/>
    <clipPath id="_clip1">
        <rect x="0" y="0" width="16" height="16"/>
    </clipPath>
    <g clip-path="url(#_clip1)">
        <rect x="2.999" y="0.946" width="10.207" height="7.054" style="fill:none;"/>
        <clipPath id="_clip2">
            <rect x="2.999" y="0.946" width="10.207" height="7.054"/>
        </clipPath>
        <g clip-path="url(#_clip2)">
            <g id="DocIcon--Symbol-" serif:id="DocIcon (Symbol)">
                <path d="M13.064,15.999L2.999,15.999L2.999,5.978L8.032,5.978L8.032,0.946L13.064,0.946L13.064,15.999ZM7.03,4.976L2.999,4.976L2.999,4.974L7.03,0.974L7.03,4.976Z" style="fill:rgb(135,147,154);"/>
            </g>
        </g>
        <rect x="0.846" y="8.839" width="16" height="7.416" style="fill:rgb(190,75,0);"/>
        <g id="Text">
            <path d="M3.287,12.021C3.085,11.811 2.981,11.526 2.981,11.173C2.981,10.836 3.113,10.543 3.37,10.31C3.628,10.1 3.975,9.987 4.393,9.987C4.629,9.987 5.012,10.047 5.52,10.16L5.52,11.008L5.381,11.008L4.706,10.46C4.574,10.385 4.442,10.34 4.33,10.34C4.08,10.34 3.871,10.408 3.739,10.535C3.628,10.655 3.565,10.791 3.565,10.941C3.565,11.203 3.669,11.398 3.871,11.519C3.92,11.549 3.982,11.586 4.052,11.616C4.122,11.646 4.198,11.691 4.288,11.729C4.887,12.014 5.297,12.299 5.499,12.562C5.687,12.81 5.791,13.14 5.791,13.538C5.791,14.026 5.631,14.416 5.332,14.694C5.026,14.964 4.588,15.099 4.017,15.099C3.864,15.099 3.697,15.084 3.523,15.054C3.342,15.031 3.141,14.994 2.925,14.941L2.925,14.101L3.057,14.101L3.753,14.641C3.85,14.716 3.948,14.754 4.059,14.754C4.72,14.724 5.054,14.386 5.054,13.755C5.054,13.463 4.97,13.215 4.803,13.027C4.692,12.915 4.469,12.765 4.17,12.614C3.788,12.419 3.489,12.217 3.287,12.021Z" style="fill:white;fill-rule:nonzero;stroke:white;stroke-width:0.45px;"/>
            <path d="M7.516,11.188C7.516,10.933 7.488,10.73 7.433,10.588C7.363,10.438 7.266,10.31 7.161,10.235L7.161,10.092L10.083,10.092L10.083,11.016L9.944,11.016L9.408,10.498C9.318,10.43 9.199,10.385 9.053,10.385L8.191,10.385L8.191,12.051L8.706,12.051C8.935,12.051 9.123,12.021 9.262,11.954C9.401,11.879 9.533,11.751 9.631,11.609L9.77,11.609L9.77,12.795L9.631,12.795C9.533,12.652 9.401,12.524 9.262,12.449C9.123,12.382 8.935,12.344 8.706,12.344L8.191,12.344L8.191,13.905C8.191,14.161 8.219,14.363 8.274,14.506C8.344,14.656 8.434,14.784 8.546,14.851L8.546,15.001L7.161,15.001L7.161,14.851C7.266,14.784 7.363,14.656 7.433,14.506C7.488,14.363 7.516,14.161 7.516,13.905L7.516,11.188Z" style="fill:white;fill-rule:nonzero;stroke:white;stroke-width:0.45px;"/>
            <path d="M13.63,15.099C12.747,15.099 12.114,14.799 11.738,14.183C11.502,13.785 11.384,13.275 11.384,12.659C11.384,11.856 11.585,11.196 11.996,10.7C12.399,10.228 12.983,9.987 13.721,9.987C14.048,9.987 14.437,10.047 14.875,10.145L14.875,10.993L14.736,10.993L14.048,10.453C13.936,10.378 13.804,10.34 13.665,10.34C13.185,10.34 12.81,10.535 12.552,10.918C12.295,11.338 12.156,11.886 12.156,12.554C12.156,13.095 12.246,13.545 12.392,13.898C12.643,14.468 13.074,14.754 13.658,14.754C13.804,14.754 13.943,14.716 14.055,14.641L14.743,14.101L14.882,14.101L14.882,14.941C14.43,15.039 14.013,15.099 13.63,15.099Z" style="fill:white;fill-rule:nonzero;stroke:white;stroke-width:0.45px;"/>
        </g>
    </g>
</svg>
