<?xml version="1.0" encoding="UTF-8" standalone="no"?>
<!DOCTYPE svg PUBLIC "-//W3C//DTD SVG 1.1//EN" "http://www.w3.org/Graphics/SVG/1.1/DTD/svg11.dtd">
<svg width="100%" height="100%" viewBox="0 0 16 16" version="1.1" xmlns="http://www.w3.org/2000/svg" xmlns:xlink="http://www.w3.org/1999/xlink" xml:space="preserve" xmlns:serif="http://www.serif.com/" style="fill-rule:evenodd;clip-rule:evenodd;stroke-linejoin:round;stroke-miterlimit:2;">
    <g id="Sfc_dark">
        <rect x="0" y="0" width="16" height="16" style="fill:none;"/>
        <clipPath id="_clip1">
            <rect x="0" y="0" width="16" height="16"/>
        </clipPath>
        <g clip-path="url(#_clip1)">
            <rect x="2.999" y="0.946" width="10.207" height="7.054" style="fill:none;"/>
            <clipPath id="_clip2">
                <rect x="2.999" y="0.946" width="10.207" height="7.054"/>
            </clipPath>
            <g clip-path="url(#_clip2)">
                <g id="DocIcon--Symbol-" serif:id="DocIcon (Symbol)">
                    <path d="M13.064,15.999L2.999,15.999L2.999,5.978L8.032,5.978L8.032,0.946L13.064,0.946L13.064,15.999ZM7.03,4.976L2.999,4.976L2.999,4.974L7.03,0.974L7.03,4.976Z" style="fill:rgb(135,147,154);"/>
                </g>
            </g>
            <rect x="0.846" y="8.839" width="16" height="7.416" style="fill:rgb(190,75,0);"/>
            <g id="Text" opacity="0.95">
                <path d="M2.813,13.506L3.351,13.456C3.377,13.688 3.436,13.879 3.529,14.028C3.623,14.178 3.767,14.298 3.963,14.39C4.159,14.482 4.38,14.528 4.625,14.528C4.843,14.528 5.035,14.493 5.202,14.424C5.368,14.354 5.492,14.258 5.574,14.136C5.655,14.015 5.696,13.882 5.696,13.738C5.696,13.592 5.656,13.465 5.578,13.356C5.5,13.247 5.37,13.155 5.19,13.081C5.074,13.032 4.818,12.957 4.422,12.854C4.026,12.752 3.748,12.655 3.59,12.564C3.384,12.447 3.23,12.303 3.129,12.131C3.028,11.958 2.978,11.765 2.978,11.551C2.978,11.316 3.04,11.097 3.163,10.893C3.287,10.689 3.467,10.534 3.704,10.428C3.942,10.322 4.205,10.269 4.496,10.269C4.815,10.269 5.097,10.325 5.341,10.436C5.585,10.547 5.773,10.71 5.904,10.926C6.036,11.142 6.106,11.386 6.116,11.659L5.569,11.704C5.54,11.41 5.44,11.187 5.271,11.037C5.101,10.887 4.851,10.812 4.519,10.812C4.174,10.812 3.923,10.88 3.765,11.017C3.607,11.153 3.528,11.318 3.528,11.51C3.528,11.677 3.584,11.815 3.696,11.923C3.805,12.031 4.092,12.141 4.556,12.254C5.02,12.368 5.338,12.466 5.51,12.551C5.761,12.676 5.947,12.834 6.066,13.026C6.186,13.217 6.246,13.438 6.246,13.687C6.246,13.935 6.18,14.168 6.049,14.387C5.917,14.606 5.729,14.776 5.482,14.898C5.236,15.02 4.959,15.081 4.651,15.081C4.261,15.081 3.934,15.019 3.671,14.897C3.407,14.774 3.2,14.589 3.05,14.343C2.9,14.096 2.821,13.817 2.813,13.506Z" style="fill:white;fill-rule:nonzero;stroke:white;stroke-width:0.45px;"/>
                <path d="M7.657,15.001L7.657,10.348L10.566,10.348L10.566,10.898L8.228,10.898L8.228,12.338L10.251,12.338L10.251,12.888L8.228,12.888L8.228,15.001L7.657,15.001Z" style="fill:white;fill-rule:nonzero;stroke:white;stroke-width:0.45px;"/>
                <path d="M14.986,13.37L15.557,13.525C15.437,14.031 15.222,14.417 14.911,14.682C14.6,14.948 14.22,15.081 13.771,15.081C13.307,15.081 12.929,14.979 12.637,14.774C12.346,14.57 12.125,14.274 11.973,13.887C11.821,13.5 11.745,13.084 11.745,12.64C11.745,12.155 11.831,11.733 12.002,11.372C12.174,11.011 12.418,10.737 12.735,10.55C13.051,10.363 13.4,10.269 13.78,10.269C14.212,10.269 14.574,10.388 14.868,10.625C15.163,10.862 15.368,11.195 15.483,11.624L14.921,11.767C14.821,11.429 14.676,11.182 14.486,11.028C14.296,10.873 14.057,10.796 13.768,10.796C13.437,10.796 13.16,10.882 12.938,11.053C12.715,11.224 12.559,11.455 12.468,11.743C12.378,12.032 12.333,12.33 12.333,12.637C12.333,13.032 12.386,13.378 12.493,13.673C12.6,13.968 12.766,14.189 12.992,14.335C13.217,14.481 13.462,14.554 13.724,14.554C14.044,14.554 14.315,14.454 14.536,14.255C14.758,14.057 14.908,13.761 14.986,13.37Z" style="fill:white;fill-rule:nonzero;stroke:white;stroke-width:0.45px;"/>
            </g>
        </g>
    </g>
</svg>
