<?xml version="1.0" encoding="UTF-8" standalone="no"?>
<!DOCTYPE svg PUBLIC "-//W3C//DTD SVG 1.1//EN" "http://www.w3.org/Graphics/SVG/1.1/DTD/svg11.dtd">
<svg width="100%" height="100%" viewBox="0 0 512 513" version="1.1" xmlns="http://www.w3.org/2000/svg" xmlns:xlink="http://www.w3.org/1999/xlink" xml:space="preserve" xmlns:serif="http://www.serif.com/" style="fill-rule:evenodd;clip-rule:evenodd;stroke-linejoin:round;stroke-miterlimit:2;">
    <g id="SM">
        <g>
            <g>
                <path d="M250.007,42.227C344.753,42.227 421.674,221.099 421.674,315.844C421.674,410.59 344.753,487.512 250.007,487.512C155.261,487.512 78.339,410.59 78.339,315.844C78.339,221.099 155.261,42.227 250.007,42.227Z" style="fill:rgb(47,170,240);"/>
                <path d="M298.883,120.573C373.641,130.961 414.723,280.532 404.335,355.291C393.946,430.049 324.818,482.309 250.059,471.921C175.301,461.533 123.041,392.404 133.429,317.646C143.817,242.887 224.124,110.184 298.883,120.573Z" style="fill:rgb(121,206,254);"/>
                <path d="M318.799,241.326C367.474,254.412 382.287,356.93 369.202,405.605C356.116,454.279 305.974,483.173 257.299,470.088C208.624,457.002 179.73,406.86 192.816,358.185C205.902,309.51 270.124,228.24 318.799,241.326Z" style="fill:white;"/>
            </g>
            <rect x="250.007" y="296.617" width="261.993" height="215.796" style="fill:rgb(0,129,202);"/>
        </g>
        <path d="M332.247,360.749C329.655,356.859 326.332,353.728 322.276,351.357C318.22,348.987 313.319,347.801 307.573,347.801C304.643,347.801 301.658,348.288 298.616,349.26C295.574,350.233 292.813,351.722 290.335,353.728C287.856,355.734 285.856,358.257 284.335,361.296C282.814,364.335 282.054,367.922 282.054,372.055C282.054,376.189 282.786,379.593 284.251,382.267C285.715,384.942 287.659,387.221 290.081,389.106C292.503,390.99 295.264,392.54 298.362,393.756C301.46,394.972 304.7,396.187 308.08,397.403C312.248,398.862 316.445,400.442 320.67,402.144C324.895,403.846 328.698,406.065 332.078,408.801C335.458,411.536 338.218,415.001 340.359,419.195C342.499,423.389 343.57,428.708 343.57,435.152C343.57,441.595 342.415,447.157 340.105,451.837C337.796,456.518 334.81,460.378 331.148,463.417C327.487,466.457 323.318,468.706 318.642,470.165C313.966,471.623 309.263,472.353 304.531,472.353C300.925,472.353 297.32,471.958 293.715,471.168C290.109,470.377 286.673,469.192 283.406,467.612C280.138,466.031 277.096,464.025 274.279,461.594C271.463,459.162 268.984,456.366 266.843,453.205L277.322,444.817C279.913,449.436 283.546,453.296 288.222,456.396C292.898,459.497 298.39,461.047 304.7,461.047C307.742,461.047 310.84,460.53 313.995,459.497C317.149,458.463 319.994,456.883 322.529,454.755C325.064,452.628 327.149,450.014 328.782,446.914C330.416,443.814 331.233,440.197 331.233,436.063C331.233,431.565 330.416,427.827 328.782,424.848C327.149,421.87 324.98,419.377 322.276,417.371C319.572,415.366 316.473,413.694 312.981,412.357C309.488,411.019 305.826,409.682 301.996,408.345C298.052,407.007 294.165,405.488 290.335,403.786C286.504,402.084 283.068,399.865 280.026,397.13C276.983,394.394 274.533,391.021 272.674,387.009C270.815,382.997 269.885,378.073 269.885,372.237C269.885,366.037 271.04,360.688 273.35,356.19C275.66,351.692 278.674,347.984 282.392,345.066C286.11,342.148 290.222,340.021 294.729,338.683C299.235,337.346 303.686,336.677 308.08,336.677C316.192,336.677 323.121,338.227 328.867,341.328C334.613,344.428 338.95,348.105 341.88,352.36L332.247,360.749Z" style="fill:white;fill-rule:nonzero;stroke:white;stroke-width:12px;"/>
        <path d="M432.295,446.823L432.464,446.823L472.517,339.96L491.107,339.96L491.107,469.07L478.939,469.07L478.939,356.919L478.601,356.919L435.337,469.07L428.915,469.07L385.651,356.919L385.313,356.919L385.313,469.07L373.145,469.07L373.145,339.96L391.735,339.96L432.295,446.823Z" style="fill:white;fill-rule:nonzero;stroke:white;stroke-width:12px;"/>
        <rect x="0" y="0.413" width="512" height="512" style="fill:none;"/>
    </g>
</svg>
