<?xml version="1.0" encoding="UTF-8" standalone="no"?>
<!DOCTYPE svg PUBLIC "-//W3C//DTD SVG 1.1//EN" "http://www.w3.org/Graphics/SVG/1.1/DTD/svg11.dtd">
<svg width="100%" height="100%" viewBox="0 0 16 16" version="1.1" xmlns="http://www.w3.org/2000/svg" xmlns:xlink="http://www.w3.org/1999/xlink" xml:space="preserve" xmlns:serif="http://www.serif.com/" style="fill-rule:evenodd;clip-rule:evenodd;stroke-linejoin:round;stroke-miterlimit:2;">
    <rect id="Spr" x="0" y="0" width="16" height="16" style="fill:none;"/>
    <clipPath id="_clip1">
        <rect x="0" y="0" width="16" height="16"/>
    </clipPath>
    <g clip-path="url(#_clip1)">
        <rect x="2.999" y="0.946" width="10.207" height="7.054" style="fill:none;"/>
        <clipPath id="_clip2">
            <rect x="2.999" y="0.946" width="10.207" height="7.054"/>
        </clipPath>
        <g clip-path="url(#_clip2)">
            <g id="DocIcon--Symbol-" serif:id="DocIcon (Symbol)">
                <path d="M13.064,15.999L2.999,15.999L2.999,5.978L8.032,5.978L8.032,0.946L13.064,0.946L13.064,15.999ZM7.03,4.976L2.999,4.976L2.999,4.974L7.03,0.974L7.03,4.976Z" style="fill:rgb(135,147,154);"/>
            </g>
        </g>
        <rect x="0.846" y="8.839" width="16" height="7.416" style="fill:rgb(92,159,42);"/>
        <g id="Text">
            <path d="M3.287,12.021C3.085,11.811 2.981,11.526 2.981,11.173C2.981,10.836 3.113,10.543 3.37,10.31C3.628,10.1 3.975,9.987 4.393,9.987C4.629,9.987 5.012,10.047 5.52,10.16L5.52,11.008L5.381,11.008L4.706,10.46C4.574,10.385 4.442,10.34 4.33,10.34C4.08,10.34 3.871,10.408 3.739,10.535C3.628,10.655 3.565,10.791 3.565,10.941C3.565,11.203 3.669,11.398 3.871,11.519C3.92,11.549 3.982,11.586 4.052,11.616C4.122,11.646 4.198,11.691 4.288,11.729C4.887,12.014 5.297,12.299 5.499,12.562C5.687,12.81 5.791,13.14 5.791,13.538C5.791,14.026 5.631,14.416 5.332,14.694C5.026,14.964 4.588,15.099 4.017,15.099C3.864,15.099 3.697,15.084 3.523,15.054C3.342,15.031 3.141,14.994 2.925,14.941L2.925,14.101L3.057,14.101L3.753,14.641C3.85,14.716 3.948,14.754 4.059,14.754C4.72,14.724 5.054,14.386 5.054,13.755C5.054,13.463 4.97,13.215 4.803,13.027C4.692,12.915 4.469,12.765 4.17,12.614C3.788,12.419 3.489,12.217 3.287,12.021Z" style="fill:white;fill-rule:nonzero;stroke:white;stroke-width:0.45px;"/>
            <path d="M9.13,10.588C8.998,10.46 8.733,10.385 8.365,10.385L7.975,10.385L7.975,12.142C8.316,12.142 8.629,12.051 8.893,11.886C9.172,11.699 9.318,11.429 9.318,11.113C9.318,10.881 9.255,10.708 9.13,10.588ZM6.946,10.092L8.643,10.092C9.13,10.092 9.505,10.175 9.742,10.34C9.971,10.498 10.09,10.753 10.09,11.076C10.09,11.541 9.825,11.909 9.297,12.164C8.886,12.344 8.448,12.442 7.975,12.442L7.975,13.905C7.975,14.161 8.003,14.363 8.059,14.506C8.128,14.656 8.219,14.784 8.33,14.851L8.33,15.001L6.946,15.001L6.946,14.851C7.05,14.784 7.147,14.656 7.217,14.506C7.273,14.363 7.3,14.161 7.3,13.905L7.3,11.188C7.3,10.933 7.273,10.73 7.217,10.588C7.147,10.438 7.05,10.31 6.946,10.235L6.946,10.092Z" style="fill:white;fill-rule:nonzero;stroke:white;stroke-width:0.45px;"/>
            <path d="M12.211,10.385L12.211,12.142C12.663,12.142 13.011,12.036 13.227,11.841C13.422,11.661 13.526,11.398 13.526,11.083C13.526,10.836 13.422,10.648 13.234,10.528C13.067,10.438 12.837,10.385 12.552,10.385L12.211,10.385ZM13.902,10.303C14.166,10.46 14.298,10.715 14.298,11.038C14.298,11.391 14.152,11.691 13.86,11.939C13.637,12.112 13.359,12.232 13.032,12.292L14.069,14.063C14.173,14.221 14.291,14.386 14.43,14.536C14.542,14.671 14.702,14.784 14.889,14.851L14.889,15.001L13.804,15.001L12.211,12.292L12.211,13.905C12.211,14.161 12.239,14.363 12.295,14.506C12.364,14.656 12.455,14.784 12.566,14.851L12.566,15.001L11.182,15.001L11.182,14.851C11.286,14.784 11.384,14.656 11.453,14.506C11.509,14.363 11.537,14.161 11.537,13.905L11.537,11.188C11.537,10.933 11.509,10.73 11.453,10.588C11.384,10.438 11.286,10.31 11.182,10.235L11.182,10.092L12.949,10.092C13.338,10.092 13.658,10.16 13.902,10.303Z" style="fill:white;fill-rule:nonzero;stroke:white;stroke-width:0.45px;"/>
        </g>
    </g>
</svg>
