<?xml version="1.0" encoding="UTF-8" standalone="no"?>
<!DOCTYPE svg PUBLIC "-//W3C//DTD SVG 1.1//EN" "http://www.w3.org/Graphics/SVG/1.1/DTD/svg11.dtd">
<svg width="100%" height="100%" viewBox="0 0 16 16" version="1.1" xmlns="http://www.w3.org/2000/svg" xmlns:xlink="http://www.w3.org/1999/xlink" xml:space="preserve" xmlns:serif="http://www.serif.com/" style="fill-rule:evenodd;clip-rule:evenodd;stroke-linejoin:round;stroke-miterlimit:2;">
    <rect id="Catalogue" x="0" y="0" width="16" height="16" style="fill:none;"/>
    <clipPath id="_clip1">
        <rect x="0" y="0" width="16" height="16"/>
    </clipPath>
    <g clip-path="url(#_clip1)">
        <rect x="2.999" y="0.946" width="10.207" height="7.054" style="fill:none;"/>
        <clipPath id="_clip2">
            <rect x="2.999" y="0.946" width="10.207" height="7.054"/>
        </clipPath>
        <g clip-path="url(#_clip2)">
            <g id="DocIcon--Symbol-" serif:id="DocIcon (Symbol)">
                <path d="M13.064,15.999L2.999,15.999L2.999,5.978L8.032,5.978L8.032,0.946L13.064,0.946L13.064,15.999ZM7.03,4.976L2.999,4.976L2.999,4.974L7.03,0.974L7.03,4.976Z" style="fill:rgb(135,147,154);"/>
            </g>
        </g>
        <rect x="0.846" y="8.839" width="16" height="7.416" style="fill:rgb(106,1,80);fill-opacity:0.7;"/>
        <g id="Text" opacity="0.77">
            <path d="M5.201,13.412L5.728,13.568C5.618,14.074 5.419,14.459 5.132,14.725C4.845,14.99 4.495,15.123 4.08,15.123C3.651,15.123 3.302,15.021 3.033,14.817C2.764,14.613 2.56,14.317 2.42,13.93C2.279,13.543 2.209,13.127 2.209,12.682C2.209,12.198 2.288,11.775 2.447,11.415C2.605,11.054 2.83,10.78 3.123,10.593C3.415,10.405 3.737,10.312 4.088,10.312C4.486,10.312 4.821,10.43 5.093,10.667C5.364,10.904 5.554,11.237 5.66,11.667L5.142,11.81C5.049,11.471 4.915,11.225 4.74,11.07C4.564,10.916 4.343,10.839 4.077,10.839C3.771,10.839 3.516,10.924 3.31,11.096C3.105,11.267 2.96,11.497 2.877,11.786C2.794,12.075 2.752,12.373 2.752,12.679C2.752,13.075 2.801,13.42 2.9,13.716C2.999,14.011 3.152,14.231 3.36,14.377C3.569,14.523 3.794,14.596 4.037,14.596C4.332,14.596 4.581,14.497 4.786,14.298C4.991,14.099 5.129,13.804 5.201,13.412Z" style="fill:white;fill-rule:nonzero;stroke:white;stroke-width:0.45px;"/>
            <path d="M6.324,15.044L7.853,10.391L8.42,10.391L10.049,15.044L9.449,15.044L8.985,13.635L7.32,13.635L6.883,15.044L6.324,15.044ZM7.472,13.133L8.822,13.133L8.406,11.845C8.28,11.453 8.186,11.132 8.124,10.88C8.073,11.178 8.002,11.474 7.91,11.768L7.472,13.133Z" style="fill:white;fill-rule:nonzero;stroke:white;stroke-width:0.45px;"/>
            <path d="M11.454,15.044L11.454,10.94L10.142,10.94L10.142,10.391L13.298,10.391L13.298,10.94L11.981,10.94L11.981,15.044L11.454,15.044Z" style="fill:white;fill-rule:nonzero;stroke:white;stroke-width:0.45px;"/>
        </g>
    </g>
</svg>
