<?xml version="1.0" encoding="UTF-8" standalone="no"?>
<!DOCTYPE svg PUBLIC "-//W3C//DTD SVG 1.1//EN" "http://www.w3.org/Graphics/SVG/1.1/DTD/svg11.dtd">
<svg width="100%" height="100%" viewBox="0 0 16 16" version="1.1" xmlns="http://www.w3.org/2000/svg" xmlns:xlink="http://www.w3.org/1999/xlink" xml:space="preserve" xmlns:serif="http://www.serif.com/" style="fill-rule:evenodd;clip-rule:evenodd;stroke-linejoin:round;stroke-miterlimit:2;">
    <rect id="WAV" x="0" y="0" width="16" height="16" style="fill:none;"/>
    <clipPath id="_clip1">
        <rect x="0" y="0" width="16" height="16"/>
    </clipPath>
    <g clip-path="url(#_clip1)">
        <rect x="2.999" y="0.946" width="10.207" height="7.054" style="fill:none;"/>
        <clipPath id="_clip2">
            <rect x="2.999" y="0.946" width="10.207" height="7.054"/>
        </clipPath>
        <g clip-path="url(#_clip2)">
            <g id="DocIcon--Symbol-" serif:id="DocIcon (Symbol)">
                <path d="M13.064,15.999L2.999,15.999L2.999,5.978L8.032,5.978L8.032,0.946L13.064,0.946L13.064,15.999ZM7.03,4.976L2.999,4.976L2.999,4.974L7.03,0.974L7.03,4.976Z" style="fill:rgb(135,147,154);"/>
            </g>
        </g>
        <rect x="0.846" y="8.839" width="16" height="7.416" style="fill:rgb(197,17,98);fill-opacity:0.7;"/>
        <g id="Text" opacity="0.77">
            <path d="M3.056,15.044L2,10.391L2.54,10.391L3.146,13.441C3.211,13.761 3.267,14.078 3.314,14.393C3.416,13.896 3.475,13.609 3.493,13.533L4.251,10.391L4.886,10.391L5.457,12.746C5.6,13.33 5.703,13.879 5.766,14.393C5.817,14.099 5.883,13.762 5.964,13.381L6.589,10.391L7.119,10.391L6.027,15.044L5.519,15.044L4.68,11.499C4.609,11.202 4.568,11.02 4.555,10.953C4.514,11.166 4.475,11.348 4.438,11.499L3.594,15.044L3.056,15.044Z" style="fill:white;fill-rule:nonzero;stroke:white;stroke-width:0.45px;"/>
            <path d="M7.35,15.044L8.879,10.391L9.446,10.391L11.076,15.044L10.476,15.044L10.011,13.635L8.347,13.635L7.91,15.044L7.35,15.044ZM8.499,13.133L9.848,13.133L9.433,11.845C9.306,11.453 9.212,11.132 9.15,10.88C9.1,11.178 9.028,11.474 8.936,11.768L8.499,13.133Z" style="fill:white;fill-rule:nonzero;stroke:white;stroke-width:0.45px;"/>
            <path d="M12.605,15.044L11.063,10.391L11.633,10.391L12.668,13.771C12.751,14.042 12.821,14.296 12.877,14.533C12.938,14.279 13.01,14.025 13.091,13.771L14.167,10.391L14.704,10.391L13.146,15.044L12.605,15.044Z" style="fill:white;fill-rule:nonzero;stroke:white;stroke-width:0.45px;"/>
        </g>
    </g>
</svg>
