<?xml version="1.0" encoding="UTF-8" standalone="no"?><!DOCTYPE svg PUBLIC "-//W3C//DTD SVG 1.1//EN" "http://www.w3.org/Graphics/SVG/1.1/DTD/svg11.dtd"><svg width="100%" height="100%" viewBox="0 0 2134 2138" version="1.1" xmlns="http://www.w3.org/2000/svg" xmlns:xlink="http://www.w3.org/1999/xlink" xml:space="preserve" xmlns:serif="http://www.serif.com/" style="fill-rule:evenodd;clip-rule:evenodd;stroke-linejoin:round;stroke-miterlimit:2;"><rect id="Egg-Logo---With-Text" serif:id="Egg Logo - With Text" x="0" y="1.722" width="2133.33" height="2133.33" style="fill:none;"/><g><path d="M1064.1,93.189c414.455,0 750.939,782.453 750.939,1196.91c0,414.455 -336.484,750.94 -750.939,750.94c-414.455,0 -750.94,-336.485 -750.94,-750.94c0,-414.455 336.485,-1196.91 750.94,-1196.91Z" style="fill:#2faaf0;"/><path d="M1277.9,435.903c327.022,45.443 506.731,699.725 461.288,1026.75c-45.443,327.023 -347.837,555.629 -674.86,510.186c-327.022,-45.442 -555.628,-347.837 -510.186,-674.859c45.443,-327.022 396.736,-907.516 723.758,-862.074Z" style="fill:#79cefe;"/><path d="M1365.02,964.125c212.924,57.242 277.723,505.695 220.481,718.618c-57.242,212.923 -276.581,339.316 -489.504,282.074c-212.924,-57.241 -339.317,-276.581 -282.075,-489.504c57.242,-212.923 338.175,-568.429 551.098,-511.188Z" style="fill:#fff;"/></g></svg>