<?xml version="1.0" encoding="UTF-8" standalone="no"?>
<!DOCTYPE svg PUBLIC "-//W3C//DTD SVG 1.1//EN" "http://www.w3.org/Graphics/SVG/1.1/DTD/svg11.dtd">
<svg width="100%" height="100%" viewBox="0 0 16 16" version="1.1" xmlns="http://www.w3.org/2000/svg" xmlns:xlink="http://www.w3.org/1999/xlink" xml:space="preserve" xmlns:serif="http://www.serif.com/" style="fill-rule:evenodd;clip-rule:evenodd;stroke-linejoin:round;stroke-miterlimit:2;">
    <rect id="ATT-Group" serif:id="ATT/Group" x="0" y="0" width="16" height="16" style="fill:none;"/>
    <clipPath id="_clip1">
        <rect x="0" y="0" width="16" height="16"/>
    </clipPath>
    <g clip-path="url(#_clip1)">
        <g>
            <rect id="Clip" x="8" y="7.976" width="6.088" height="7.915" style="fill:none;"/>
            <clipPath id="_clip2">
                <rect x="8" y="7.976" width="6.088" height="7.915"/>
            </clipPath>
            <g clip-path="url(#_clip2)">
                <path d="M11.044,7.976C12.724,7.976 14.088,11.156 14.088,12.84C14.088,14.524 12.724,15.891 11.044,15.891C9.364,15.891 8,14.524 8,12.84C8,11.156 9.364,7.976 11.044,7.976Z" style="fill:rgb(47,170,240);"/>
                <path d="M11.919,9.369C13.248,9.553 13.978,12.211 13.793,13.54C13.609,14.868 12.38,15.797 11.052,15.612C9.723,15.428 8.794,14.199 8.979,12.871C9.164,11.542 10.591,9.184 11.919,9.369Z" style="fill:rgb(121,206,254);"/>
                <path d="M12.273,11.515C13.138,11.747 13.401,13.569 13.169,14.434C12.936,15.299 12.045,15.812 11.18,15.58C10.315,15.347 9.802,14.456 10.034,13.591C10.267,12.726 11.408,11.282 12.273,11.515Z" style="fill:white;"/>
            </g>
        </g>
        <path d="M13.032,7L10,6.973L7.053,11L7.053,15L2.968,15.053L2.968,5.033L8,5.033L8,-0L13.032,-0L13.032,7ZM6.998,4.031L2.968,4.031L2.968,4.029L6.998,0.028L6.998,4.031Z" style="fill:rgb(135,147,154);"/>
    </g>
</svg>
