<?xml version="1.0" encoding="UTF-8" standalone="no"?>
<!DOCTYPE svg PUBLIC "-//W3C//DTD SVG 1.1//EN" "http://www.w3.org/Graphics/SVG/1.1/DTD/svg11.dtd">
<svg width="100%" height="100%" viewBox="0 0 16 16" version="1.1" xmlns="http://www.w3.org/2000/svg" xmlns:xlink="http://www.w3.org/1999/xlink" xml:space="preserve" xmlns:serif="http://www.serif.com/" style="fill-rule:evenodd;clip-rule:evenodd;stroke-linejoin:round;stroke-miterlimit:2;">
    <rect id="Doc-Icons-V2" serif:id="Doc Icons-V2" x="0" y="0" width="16" height="16" style="fill:none;"/>
    <clipPath id="_clip1">
        <rect x="0" y="0" width="16" height="16"/>
    </clipPath>
    <g clip-path="url(#_clip1)">
        <rect x="2.999" y="0.946" width="10.207" height="7.054" style="fill:none;"/>
        <clipPath id="_clip2">
            <rect x="2.999" y="0.946" width="10.207" height="7.054"/>
        </clipPath>
        <g clip-path="url(#_clip2)">
            <g id="DocIcon--Symbol-" serif:id="DocIcon (Symbol)">
                <path d="M13.064,15.999L2.999,15.999L2.999,5.978L8.032,5.978L8.032,0.946L13.064,0.946L13.064,15.999ZM7.03,4.976L2.999,4.976L2.999,4.974L7.03,0.974L7.03,4.976Z" style="fill:rgb(135,147,154);"/>
            </g>
        </g>
        <rect x="0.846" y="8.839" width="16" height="7.416" style="fill:rgb(190,30,0);fill-opacity:0.7;"/>
        <g id="Text" opacity="0.77">
            <path d="M5.084,13.37L5.655,13.525C5.535,14.031 5.32,14.417 5.009,14.682C4.698,14.948 4.318,15.081 3.869,15.081C3.404,15.081 3.026,14.979 2.735,14.774C2.444,14.57 2.222,14.274 2.071,13.887C1.919,13.5 1.843,13.084 1.843,12.64C1.843,12.155 1.928,11.733 2.1,11.372C2.272,11.011 2.516,10.737 2.832,10.55C3.149,10.363 3.498,10.269 3.878,10.269C4.309,10.269 4.672,10.388 4.966,10.625C5.26,10.862 5.465,11.195 5.581,11.624L5.019,11.767C4.919,11.429 4.774,11.182 4.584,11.028C4.394,10.873 4.154,10.796 3.866,10.796C3.535,10.796 3.258,10.882 3.035,11.053C2.813,11.224 2.656,11.455 2.566,11.743C2.476,12.032 2.431,12.33 2.431,12.637C2.431,13.032 2.484,13.378 2.591,13.673C2.698,13.968 2.864,14.189 3.09,14.335C3.315,14.481 3.559,14.554 3.822,14.554C4.142,14.554 4.412,14.454 4.634,14.255C4.855,14.057 5.005,13.761 5.084,13.37Z" style="fill:white;fill-rule:nonzero;stroke:white;stroke-width:0.45px;"/>
            <path d="M6.786,12.735C6.786,11.963 6.979,11.358 7.363,10.921C7.747,10.484 8.243,10.266 8.851,10.266C9.249,10.266 9.608,10.369 9.928,10.574C10.247,10.779 10.491,11.065 10.659,11.432C10.826,11.799 10.91,12.216 10.91,12.681C10.91,13.153 10.822,13.575 10.645,13.948C10.469,14.32 10.219,14.602 9.895,14.793C9.572,14.985 9.223,15.081 8.848,15.081C8.442,15.081 8.08,14.975 7.76,14.763C7.44,14.552 7.198,14.263 7.033,13.897C6.869,13.531 6.786,13.144 6.786,12.735ZM7.375,12.745C7.375,13.305 7.514,13.747 7.794,14.07C8.073,14.392 8.424,14.554 8.845,14.554C9.275,14.554 9.628,14.391 9.906,14.065C10.183,13.739 10.322,13.277 10.322,12.678C10.322,12.299 10.263,11.969 10.144,11.686C10.025,11.404 9.852,11.185 9.623,11.029C9.395,10.874 9.138,10.796 8.854,10.796C8.45,10.796 8.103,10.946 7.811,11.245C7.52,11.544 7.375,12.044 7.375,12.745Z" style="fill:white;fill-rule:nonzero;stroke:white;stroke-width:0.45px;"/>
            <path d="M12.054,13.506L12.592,13.456C12.617,13.688 12.677,13.879 12.77,14.028C12.863,14.178 13.008,14.298 13.204,14.39C13.4,14.482 13.62,14.528 13.866,14.528C14.083,14.528 14.275,14.493 14.442,14.424C14.609,14.354 14.733,14.258 14.814,14.136C14.895,14.015 14.936,13.882 14.936,13.738C14.936,13.592 14.897,13.465 14.819,13.356C14.74,13.247 14.611,13.155 14.43,13.081C14.315,13.032 14.059,12.957 13.663,12.854C13.266,12.752 12.989,12.655 12.83,12.564C12.624,12.447 12.471,12.303 12.37,12.131C12.269,11.958 12.218,11.765 12.218,11.551C12.218,11.316 12.28,11.097 12.404,10.893C12.527,10.689 12.708,10.534 12.945,10.428C13.182,10.322 13.446,10.269 13.736,10.269C14.056,10.269 14.338,10.325 14.582,10.436C14.826,10.547 15.014,10.71 15.145,10.926C15.276,11.142 15.347,11.386 15.357,11.659L14.81,11.704C14.78,11.41 14.681,11.187 14.511,11.037C14.342,10.887 14.091,10.812 13.76,10.812C13.415,10.812 13.163,10.88 13.005,11.017C12.847,11.153 12.768,11.318 12.768,11.51C12.768,11.677 12.824,11.815 12.936,11.923C13.046,12.031 13.333,12.141 13.796,12.254C14.26,12.368 14.578,12.466 14.751,12.551C15.002,12.676 15.187,12.834 15.307,13.026C15.426,13.217 15.486,13.438 15.486,13.687C15.486,13.935 15.421,14.168 15.289,14.387C15.158,14.606 14.969,14.776 14.723,14.898C14.477,15.02 14.2,15.081 13.892,15.081C13.502,15.081 13.175,15.019 12.911,14.897C12.647,14.774 12.44,14.589 12.29,14.343C12.14,14.096 12.062,13.817 12.054,13.506Z" style="fill:white;fill-rule:nonzero;stroke:white;stroke-width:0.45px;"/>
        </g>
    </g>
</svg>
