<?xml version="1.0" encoding="UTF-8" standalone="no"?>
<!DOCTYPE svg PUBLIC "-//W3C//DTD SVG 1.1//EN" "http://www.w3.org/Graphics/SVG/1.1/DTD/svg11.dtd">
<svg width="100%" height="100%" viewBox="0 0 16 16" version="1.1" xmlns="http://www.w3.org/2000/svg" xmlns:xlink="http://www.w3.org/1999/xlink" xml:space="preserve" xmlns:serif="http://www.serif.com/" style="fill-rule:evenodd;clip-rule:evenodd;stroke-linejoin:round;stroke-miterlimit:2;">
    <g id="SM">
        <g opacity="0.8">
            <path d="M7.813,1.307C10.774,1.307 13.177,6.896 13.177,9.857C13.177,12.818 10.774,15.222 7.813,15.222C4.852,15.222 2.448,12.818 2.448,9.857C2.448,6.896 4.852,1.307 7.813,1.307Z" style="fill:rgb(227,119,58);"/>
            <path d="M9.34,3.755C11.676,4.08 12.96,8.754 12.635,11.09C12.311,13.426 10.151,15.059 7.814,14.735C5.478,14.41 3.845,12.25 4.17,9.914C4.494,7.577 7.004,3.43 9.34,3.755Z" style="fill:rgb(245,170,128);"/>
            <path d="M9.962,7.529C11.484,7.937 11.946,11.141 11.538,12.662C11.129,14.183 9.562,15.086 8.041,14.677C6.52,14.268 5.617,12.701 6.026,11.18C6.434,9.659 8.441,7.12 9.962,7.529Z" style="fill:white;"/>
        </g>
        <rect x="7.813" y="9.256" width="8.187" height="6.744" style="fill:rgb(187,76,13);"/>
        <g opacity="0.77">
            <path d="M10.383,11.26C10.302,11.139 10.198,11.041 10.071,10.967C9.944,10.893 9.791,10.856 9.612,10.856C9.52,10.856 9.427,10.871 9.332,10.901C9.237,10.932 9.15,10.978 9.073,11.041C8.995,11.104 8.933,11.183 8.885,11.278C8.838,11.373 8.814,11.485 8.814,11.614C8.814,11.743 8.837,11.849 8.883,11.933C8.929,12.017 8.989,12.088 9.065,12.147C9.141,12.206 9.227,12.254 9.324,12.292C9.421,12.33 9.522,12.368 9.627,12.406C9.758,12.452 9.889,12.501 10.021,12.554C10.153,12.607 10.272,12.677 10.377,12.762C10.483,12.848 10.569,12.956 10.636,13.087C10.703,13.218 10.737,13.384 10.737,13.586C10.737,13.787 10.7,13.961 10.628,14.107C10.556,14.253 10.463,14.374 10.348,14.469C10.234,14.564 10.104,14.634 9.958,14.68C9.811,14.725 9.664,14.748 9.517,14.748C9.404,14.748 9.291,14.736 9.179,14.711C9.066,14.686 8.959,14.649 8.856,14.6C8.754,14.551 8.659,14.488 8.571,14.412C8.483,14.336 8.406,14.249 8.339,14.15L8.666,13.888C8.747,14.032 8.861,14.153 9.007,14.249C9.153,14.346 9.325,14.395 9.522,14.395C9.617,14.395 9.714,14.379 9.812,14.346C9.911,14.314 10,14.265 10.079,14.198C10.158,14.132 10.223,14.05 10.274,13.953C10.325,13.856 10.351,13.743 10.351,13.614C10.351,13.473 10.325,13.357 10.274,13.264C10.223,13.171 10.156,13.093 10.071,13.03C9.987,12.967 9.89,12.915 9.781,12.873C9.671,12.831 9.557,12.79 9.437,12.748C9.314,12.706 9.193,12.659 9.073,12.605C8.953,12.552 8.846,12.483 8.751,12.397C8.656,12.312 8.579,12.206 8.521,12.081C8.463,11.956 8.434,11.802 8.434,11.62C8.434,11.426 8.47,11.259 8.542,11.118C8.614,10.977 8.709,10.862 8.825,10.77C8.941,10.679 9.069,10.613 9.21,10.571C9.351,10.529 9.49,10.508 9.627,10.508C9.881,10.508 10.098,10.557 10.277,10.654C10.457,10.75 10.592,10.865 10.684,10.998L10.383,11.26Z" style="fill:white;fill-rule:nonzero;stroke:white;stroke-width:0.36px;"/>
            <path d="M13.509,13.95L13.515,13.95L14.766,10.611L15.347,10.611L15.347,14.646L14.967,14.646L14.967,11.141L14.956,11.141L13.604,14.646L13.404,14.646L12.052,11.141L12.041,11.141L12.041,14.646L11.661,14.646L11.661,10.611L12.242,10.611L13.509,13.95Z" style="fill:white;fill-rule:nonzero;stroke:white;stroke-width:0.36px;"/>
        </g>
        <rect x="0" y="-0" width="16" height="16" style="fill:none;"/>
    </g>
</svg>
