<?xml version="1.0" encoding="UTF-8" standalone="no"?>
<!DOCTYPE svg PUBLIC "-//W3C//DTD SVG 1.1//EN" "http://www.w3.org/Graphics/SVG/1.1/DTD/svg11.dtd">
<svg width="100%" height="100%" viewBox="0 0 16 16" version="1.1" xmlns="http://www.w3.org/2000/svg" xmlns:xlink="http://www.w3.org/1999/xlink" xml:space="preserve" xmlns:serif="http://www.serif.com/" style="fill-rule:evenodd;clip-rule:evenodd;stroke-linejoin:round;stroke-miterlimit:2;">
    <rect id="Spr" x="0" y="0" width="16" height="16" style="fill:none;"/>
    <clipPath id="_clip1">
        <rect x="0" y="0" width="16" height="16"/>
    </clipPath>
    <g clip-path="url(#_clip1)">
        <rect x="2.999" y="0.946" width="10.207" height="7.054" style="fill:none;"/>
        <clipPath id="_clip2">
            <rect x="2.999" y="0.946" width="10.207" height="7.054"/>
        </clipPath>
        <g clip-path="url(#_clip2)">
            <g id="DocIcon--Symbol-" serif:id="DocIcon (Symbol)">
                <path d="M13.064,15.999L2.999,15.999L2.999,5.978L8.032,5.978L8.032,0.946L13.064,0.946L13.064,15.999ZM7.03,4.976L2.999,4.976L2.999,4.974L7.03,0.974L7.03,4.976Z" style="fill:rgb(135,147,154);"/>
            </g>
        </g>
        <rect x="0.846" y="8.839" width="16" height="7.416" style="fill:rgb(92,159,42);fill-opacity:0.7;"/>
        <g id="Text" opacity="0.77">
            <path d="M2.813,13.506L3.351,13.456C3.377,13.688 3.436,13.879 3.529,14.028C3.623,14.178 3.767,14.298 3.963,14.39C4.159,14.482 4.38,14.528 4.625,14.528C4.843,14.528 5.035,14.493 5.202,14.424C5.368,14.354 5.492,14.258 5.574,14.136C5.655,14.015 5.696,13.882 5.696,13.738C5.696,13.592 5.656,13.465 5.578,13.356C5.5,13.247 5.37,13.155 5.19,13.081C5.074,13.032 4.818,12.957 4.422,12.854C4.026,12.752 3.748,12.655 3.59,12.564C3.384,12.447 3.23,12.303 3.129,12.131C3.028,11.958 2.978,11.765 2.978,11.551C2.978,11.316 3.04,11.097 3.163,10.893C3.287,10.689 3.467,10.534 3.704,10.428C3.942,10.322 4.205,10.269 4.496,10.269C4.815,10.269 5.097,10.325 5.341,10.436C5.585,10.547 5.773,10.71 5.904,10.926C6.036,11.142 6.106,11.386 6.116,11.659L5.569,11.704C5.54,11.41 5.44,11.187 5.271,11.037C5.101,10.887 4.851,10.812 4.519,10.812C4.174,10.812 3.923,10.88 3.765,11.017C3.607,11.153 3.528,11.318 3.528,11.51C3.528,11.677 3.584,11.815 3.696,11.923C3.805,12.031 4.092,12.141 4.556,12.254C5.02,12.368 5.338,12.466 5.51,12.551C5.761,12.676 5.947,12.834 6.066,13.026C6.186,13.217 6.246,13.438 6.246,13.687C6.246,13.935 6.18,14.168 6.049,14.387C5.917,14.606 5.729,14.776 5.482,14.898C5.236,15.02 4.959,15.081 4.651,15.081C4.261,15.081 3.934,15.019 3.671,14.897C3.407,14.774 3.2,14.589 3.05,14.343C2.9,14.096 2.821,13.817 2.813,13.506Z" style="fill:white;fill-rule:nonzero;stroke:white;stroke-width:0.45px;"/>
            <path d="M7.441,15.001L7.441,10.348L9.067,10.348C9.354,10.348 9.572,10.363 9.723,10.393C9.935,10.431 10.112,10.503 10.256,10.61C10.399,10.717 10.514,10.867 10.601,11.059C10.688,11.252 10.732,11.464 10.732,11.694C10.732,12.09 10.615,12.425 10.382,12.699C10.149,12.973 9.727,13.11 9.117,13.11L8.011,13.11L8.011,15.001L7.441,15.001ZM8.011,12.561L9.126,12.561C9.495,12.561 9.757,12.487 9.911,12.338C10.066,12.19 10.144,11.982 10.144,11.713C10.144,11.519 10.098,11.352 10.007,11.213C9.916,11.075 9.796,10.983 9.647,10.939C9.551,10.911 9.373,10.898 9.114,10.898L8.011,10.898L8.011,12.561Z" style="fill:white;fill-rule:nonzero;stroke:white;stroke-width:0.45px;"/>
            <path d="M11.883,15.001L11.883,10.348L13.795,10.348C14.179,10.348 14.471,10.39 14.671,10.474C14.871,10.557 15.031,10.705 15.151,10.917C15.271,11.128 15.33,11.362 15.33,11.618C15.33,11.948 15.231,12.226 15.033,12.453C14.835,12.679 14.529,12.823 14.116,12.884C14.267,12.963 14.381,13.04 14.46,13.116C14.626,13.281 14.784,13.487 14.933,13.735L15.683,15.001L14.966,15.001L14.395,14.033C14.228,13.754 14.091,13.54 13.983,13.392C13.875,13.244 13.779,13.14 13.693,13.081C13.608,13.022 13.521,12.981 13.433,12.957C13.368,12.943 13.263,12.935 13.116,12.935L12.454,12.935L12.454,15.001L11.883,15.001ZM12.454,12.402L13.68,12.402C13.941,12.402 14.145,12.373 14.292,12.315C14.439,12.256 14.551,12.163 14.627,12.035C14.704,11.907 14.742,11.768 14.742,11.618C14.742,11.398 14.668,11.217 14.52,11.075C14.372,10.933 14.138,10.863 13.818,10.863L12.454,10.863L12.454,12.402Z" style="fill:white;fill-rule:nonzero;stroke:white;stroke-width:0.45px;"/>
        </g>
    </g>
</svg>
